<?xml version="1.0" encoding="UTF-8"?>
<svg version="1.1" xmlns="http://www.w3.org/2000/svg" width="626" height="626">
<path d="M0 0 C206.58 0 413.16 0 626 0 C626 206.58 626 413.16 626 626 C419.42 626 212.84 626 0 626 C0 419.42 0 212.84 0 0 Z " fill="#151111" transform="translate(0,0)"/>
<path d="M0 0 C22.44 0 44.88 0 68 0 C68 1.32 68 2.64 68 4 C67.18015625 4.09796875 66.3603125 4.1959375 65.515625 4.296875 C64.43796875 4.44640625 63.3603125 4.5959375 62.25 4.75 C61.18265625 4.88921875 60.1153125 5.0284375 59.015625 5.171875 C55.52687609 6.12992522 54.19068575 7.15415589 52 10 C51.0019933 13.06112013 50.8502409 15.92895373 50.79467773 19.13574219 C50.77473251 20.15649841 50.75478729 21.17725464 50.73423767 22.22894287 C50.71752518 23.32386047 50.70081268 24.41877808 50.68359375 25.546875 C50.6524221 27.23638275 50.6524221 27.23638275 50.62062073 28.96002197 C50.55525667 32.55661949 50.49630115 36.15328977 50.4375 39.75 C50.3943023 42.1888096 50.3506876 44.62761184 50.30664062 47.06640625 C50.1995887 53.044194 50.09779783 59.02205407 50 65 C50.57854736 64.85900879 51.15709473 64.71801758 51.75317383 64.57275391 C58.16125252 63.01584134 64.57668739 61.49281365 71 60 C72.0835376 59.74782715 73.1670752 59.4956543 74.28344727 59.23583984 C82.09971174 57.61608383 89.9871246 57.60363623 97.9375 57.625 C98.66444061 57.62521149 99.39138123 57.62542297 100.14035034 57.62564087 C112.14724521 57.66042531 123.41701083 58.7271849 135 62 C135.69786621 62.18723633 136.39573242 62.37447266 137.11474609 62.56738281 C155.05138843 67.43283885 172.66802733 75.49130748 188 86 C186 87 186 87 184.13085938 86.45849609 C183.37611328 86.14992676 182.62136719 85.84135742 181.84375 85.5234375 C180.99514404 85.18465576 180.14653809 84.84587402 179.2722168 84.49682617 C178.35738525 84.12662354 177.44255371 83.7564209 176.5 83.375 C161.61916285 77.54045004 146.750877 73.63702466 131 71 C130.06881348 70.82799072 129.13762695 70.65598145 128.17822266 70.47875977 C86.36221473 64.17969758 46.86969484 80.74348807 9.75537109 97.74023438 C-24.43952149 113.37426288 -56.85126035 127.07517325 -95 126 C-94.74421622 128.89787973 -94.47099197 131.79231034 -94.1875 134.6875 C-94.11724609 135.50412109 -94.04699219 136.32074219 -93.97460938 137.16210938 C-93.5093195 141.75917337 -93.01538085 145.29830971 -90 149 C-85.71029866 150.42990045 -81.42865676 150.43812176 -76.93359375 150.71875 C-74 151 -74 151 -72 152 C-72.33 153.32 -72.66 154.64 -73 156 C-95.44 156 -117.88 156 -141 156 C-141.33 154.68 -141.66 153.36 -142 152 C-138.55355587 150.27677794 -134.55244738 150.31108793 -130.75 149.890625 C-127.82580075 149.30124841 -127.82580075 149.30124841 -126.86767578 146.78930664 C-125.98453639 143.95028932 -125.59872607 141.44085474 -125.3671875 138.48046875 C-125.28339844 137.45888672 -125.19960937 136.43730469 -125.11328125 135.38476562 C-125.03464844 134.32966797 -124.95601562 133.27457031 -124.875 132.1875 C-124.78863281 131.11306641 -124.70226562 130.03863281 -124.61328125 128.93164062 C-124.40180869 126.28823357 -124.19762846 123.64447211 -124 121 C-124.98226562 120.896875 -125.96453125 120.79375 -126.9765625 120.6875 C-131.35696832 120.05450608 -135.27404342 118.62524729 -139.375 117 C-140.54095703 116.54077148 -140.54095703 116.54077148 -141.73046875 116.07226562 C-153.91871549 111.13986529 -165.53461074 104.9968945 -176 97 C-175.01 96.505 -175.01 96.505 -174 96 C-171.9609375 96.78515625 -171.9609375 96.78515625 -169.375 98.0625 C-157.66457221 103.5183235 -146.19796012 107.39195692 -133.625 110.3125 C-132.53179443 110.56700928 -131.43858887 110.82151855 -130.31225586 111.08374023 C-80.67178389 122.16989841 -35.52246039 102.46847336 8.39038086 81.41967773 C9.00993652 81.12517731 9.62949219 80.83067688 10.26782227 80.5272522 C11.95324366 79.72587281 13.63578015 78.91843408 15.31811523 78.1105957 C18 77 18 77 21 77 C20.96192483 68.61110365 20.9025377 60.22274205 20.81609726 51.83421803 C20.77662347 47.93885958 20.7444348 44.04372713 20.72900391 40.14819336 C20.71383622 36.38723507 20.67938997 32.62689812 20.63169098 28.86621666 C20.6168781 27.43299453 20.60895903 25.99968369 20.60811615 24.56638527 C20.60574486 22.5556259 20.57637174 20.54495367 20.54589844 18.53442383 C20.53701599 17.39080887 20.52813354 16.24719391 20.51898193 15.06892395 C19.88591064 11.32534924 18.66105667 9.66673916 16 7 C10.82710939 4.97141545 5.49695991 4.47366094 0 4 C0 2.68 0 1.36 0 0 Z " fill="#EDC367" transform="translate(321,234)"/>
<path d="M0 0 C10.87533345 -0.0697813 21.75061285 -0.12295337 32.62612534 -0.15543652 C37.67710071 -0.17103372 42.72792192 -0.19216233 47.77880859 -0.22631836 C52.66122179 -0.25912517 57.54348751 -0.27689763 62.4260025 -0.28463173 C64.28055388 -0.29013721 66.13509799 -0.30088712 67.98958588 -0.31719017 C83.2656296 -0.44603547 98.88300667 0.38387931 111.1328125 10.81640625 C112.96602941 12.78056722 114.48641107 14.78194814 116 17 C116.5053125 17.65871094 117.010625 18.31742188 117.53125 18.99609375 C122.90908676 27.37655604 122.14427039 38.45033405 121 48 C119.89873199 52.43307038 118.31476078 56.07657258 116 60 C115.56558594 60.79277344 115.13117188 61.58554687 114.68359375 62.40234375 C106.96113262 75.27311229 95.06837718 81.53242449 81.20703125 85.875 C74.8210957 87.37512189 64.97437004 88.98718502 59 86 C59.33 84.35 59.66 82.7 60 81 C60.845625 80.90203125 61.69125 80.8040625 62.5625 80.703125 C72.94208475 79.33490701 79.70869128 77.47026294 86.4609375 69.22265625 C93.37730323 59.23430066 94.116285 48.57183989 92.57421875 36.73046875 C90.61678291 27.37560667 86.25469096 21.03321543 78.4375 15.5625 C69.34377727 9.70580884 62.51037296 11 51 11 C50.67 42.68 50.34 74.36 50 107 C30 107 30 107 21 105 C20.99191315 103.84377136 20.98382629 102.68754272 20.97549438 101.49627686 C20.89805758 90.60747683 20.81032446 79.71880214 20.71247292 68.83016586 C20.66249669 63.23201736 20.61616666 57.63388786 20.578125 52.03564453 C20.54128911 46.63447701 20.49493359 41.23346789 20.44193649 35.83243561 C20.42338356 33.77036565 20.40827893 31.70826172 20.39665604 29.64614105 C20.37980913 26.76099884 20.35077759 23.87622011 20.31884766 20.99121094 C20.31668747 20.13597336 20.31452728 19.28073578 20.31230164 18.39958191 C20.30113815 17.61156693 20.28997467 16.82355194 20.2784729 16.01165771 C20.27294214 15.32953091 20.26741138 14.6474041 20.26171303 13.94460678 C19.94364886 11.58129401 19.26806176 10.01676113 18 8 C12.24794615 4.69562864 6.54288016 4.34311668 0 4 C0 2.68 0 1.36 0 0 Z " fill="#C99933" transform="translate(176,234)"/>
<path d="M0 0 C1.44791044 0.01005493 2.89582768 0.01917632 4.34375 0.02734375 C7.85431037 0.04914656 11.36461028 0.08353619 14.875 0.125 C14.875 0.785 14.875 1.445 14.875 2.125 C14.32263672 2.19493164 13.77027344 2.26486328 13.20117188 2.33691406 C-0.96910657 4.16249674 -14.54984086 6.55402742 -28.125 11.125 C-28.11452637 12.24358398 -28.10405273 13.36216797 -28.09326172 14.51464844 C-28.05668597 18.7192049 -28.03396472 22.92374771 -28.01513672 27.12841797 C-28.00516384 28.93801245 -27.99158068 30.74759118 -27.97412109 32.55712891 C-27.76088362 55.24810483 -30.43749189 74.75311648 -46.625 91.75 C-47.8625 92.925625 -47.8625 92.925625 -49.125 94.125 C-49.5890625 94.63289063 -50.053125 95.14078125 -50.53125 95.6640625 C-58.59168251 104.31717387 -74.20067252 116.64453792 -86.53515625 117.30859375 C-87.38980469 117.24800781 -88.24445313 117.18742187 -89.125 117.125 C-88.94140625 115.32421875 -88.94140625 115.32421875 -88.125 113.125 C-85.90234375 111.51953125 -85.90234375 111.51953125 -83.0625 109.9375 C-72.18414285 103.28648371 -65.3878202 93.69012801 -62.125 81.33984375 C-60.12343635 71.72656449 -59.02976245 62.17734996 -58.80859375 52.37109375 C-58.7774221 51.19160912 -58.7774221 51.19160912 -58.74562073 49.98829651 C-58.68101412 47.51310693 -58.62166054 45.0378251 -58.5625 42.5625 C-58.51922989 40.86913165 -58.47561313 39.17577213 -58.43164062 37.48242188 C-58.32542609 33.36337218 -58.22391753 29.24423113 -58.125 25.125 C-59.21832642 25.70616577 -59.21832642 25.70616577 -60.33374023 26.29907227 C-74.01921067 33.54977398 -87.5997826 40.67604606 -102.125 46.125 C-102.78878662 46.3820874 -103.45257324 46.6391748 -104.13647461 46.90405273 C-116.09808036 51.50117882 -127.38636315 52.40349234 -140.125 52.4375 C-141.38981201 52.44289795 -142.65462402 52.4482959 -143.95776367 52.45385742 C-150.03365204 52.40734073 -155.40662158 52.26088241 -161.125 50.125 C-161.125 49.795 -161.125 49.465 -161.125 49.125 C-159.82949219 49.02703125 -158.53398437 48.9290625 -157.19921875 48.828125 C-125.71207287 46.26341247 -98.30394596 36.42114038 -71 20.5 C-57.04754776 12.39202866 -41.74166832 6.18827107 -26.125 2.125 C-25.42826172 1.93808594 -24.73152344 1.75117188 -24.01367188 1.55859375 C-16.06495265 -0.32731791 -8.10899736 -0.09870851 0 0 Z " fill="#E4B654" transform="translate(400.125,325.875)"/>
<path d="M0 0 C3.46221304 1.08575001 6.81621211 2.31487331 10.15234375 3.734375 C19.2032852 7.56948736 28.23862192 10.86457674 37.75 13.375 C38.63421631 13.6131543 39.51843262 13.85130859 40.42944336 14.09667969 C54.28251601 17.5949686 68.28947783 18.32136988 82.5 18.625 C84.01694557 18.66333788 85.53387307 18.70239761 87.05078125 18.7421875 C90.70035187 18.83639394 94.3500643 18.92101652 98 19 C98 18.67 98 18.34 98 18 C98.7425 18.020625 99.485 18.04125 100.25 18.0625 C102.70462279 18.00671312 104.66109261 17.6930096 107 17 C106.505 19.475 106.505 19.475 106 22 C108.70879335 23.35439668 111.00933268 23.06501451 114 23 C114 23.66 114 24.32 114 25 C113.34 25 112.68 25 112 25 C111.505 26.485 111.505 26.485 111 28 C101.08717557 30.64341985 91.17592366 30.19255751 81 30 C81.25578378 32.89787973 81.52900803 35.79231034 81.8125 38.6875 C81.88275391 39.50412109 81.95300781 40.32074219 82.02539062 41.16210938 C82.4906805 45.75917337 82.98461915 49.29830971 86 53 C90.28970134 54.42990045 94.57134324 54.43812176 99.06640625 54.71875 C102 55 102 55 104 56 C103.67 57.32 103.34 58.64 103 60 C80.56 60 58.12 60 35 60 C34.505 58.02 34.505 58.02 34 56 C37.44644413 54.27677794 41.44755262 54.31108793 45.25 53.890625 C48.17419925 53.30124841 48.17419925 53.30124841 49.13232422 50.78930664 C50.01546361 47.95028932 50.40127393 45.44085474 50.6328125 42.48046875 C50.71660156 41.45888672 50.80039063 40.43730469 50.88671875 39.38476562 C50.96535156 38.32966797 51.04398438 37.27457031 51.125 36.1875 C51.21136719 35.11306641 51.29773438 34.03863281 51.38671875 32.93164062 C51.59819131 30.28823357 51.80237154 27.64447211 52 25 C51.01773438 24.896875 50.03546875 24.79375 49.0234375 24.6875 C44.64303168 24.05450608 40.72595658 22.62524729 36.625 21 C35.45904297 20.54077148 35.45904297 20.54077148 34.26953125 20.07226562 C22.29534198 15.22649113 10.01250522 9.26585198 0 1 C0 0.67 0 0.34 0 0 Z " fill="#F3EABB" transform="translate(145,330)"/>
<path d="M0 0 C9.9 0 19.8 0 30 0 C29.01 0.33 28.02 0.66 27 1 C26.7834375 2.60875 26.7834375 2.60875 26.5625 4.25 C26 8 26 8 25.47293091 9.75119019 C24.77626282 13.06388135 24.86122784 16.36151927 24.87060547 19.73095703 C24.86885315 20.50551743 24.86710083 21.28007782 24.86529541 22.07810974 C24.86089602 24.63803349 24.86380991 27.19788804 24.8671875 29.7578125 C24.8665135 31.54417941 24.86554267 33.33054624 24.86428833 35.11691284 C24.8628136 38.86440909 24.86495718 42.61188152 24.86962891 46.359375 C24.8753013 51.14049257 24.87206162 55.92155369 24.86605644 60.70266914 C24.86242358 64.3951967 24.86360231 68.08771113 24.86618423 71.78023911 C24.86684727 73.54152305 24.86604708 75.30280822 24.86370468 77.06409073 C24.4529791 90.12418671 24.4529791 90.12418671 26 103 C26.66 103.66 27.32 104.32 28 105 C25.2915983 105.02714434 22.58347279 105.04690846 19.875 105.0625 C19.11445313 105.07087891 18.35390625 105.07925781 17.5703125 105.08789062 C16.82265625 105.09111328 16.075 105.09433594 15.3046875 105.09765625 C14.2835083 105.10551147 14.2835083 105.10551147 13.24169922 105.11352539 C10.44708589 104.97199901 7.75554115 104.47491941 5 104 C5.00333092 102.18715767 5.00333092 102.18715767 5.00672913 100.33769226 C5.02697724 88.96304759 5.04198022 77.58840656 5.05181217 66.21374798 C5.05703674 60.36555418 5.0641267 54.5173749 5.07543945 48.66918945 C5.08628341 43.02822031 5.09228006 37.38726515 5.09487724 31.74628639 C5.09672876 29.59125358 5.10034416 27.43622156 5.10573006 25.28119469 C5.11296046 22.26907048 5.11399009 19.2570045 5.11352539 16.24487305 C5.11712067 15.34863724 5.12071594 14.45240143 5.12442017 13.52900696 C5.1230455 12.70871002 5.12167084 11.88841309 5.12025452 11.04325867 C5.12163721 9.9744397 5.12163721 9.9744397 5.12304783 8.88402843 C4.82543593 4.3271883 3.40164444 3.40164444 0 0 Z " fill="#F9F3C5" transform="translate(192,235)"/>
<path d="M0 0 C9.44893105 -0.0231679 18.89785232 -0.04093781 28.34680557 -0.05181217 C32.73430637 -0.05703125 37.12178773 -0.06411124 41.50927734 -0.07543945 C45.74325502 -0.08630293 49.977214 -0.0922842 54.21120453 -0.09487724 C55.82673181 -0.09672524 57.44225807 -0.10033388 59.0577774 -0.10573006 C61.3201163 -0.11298637 63.5823779 -0.113989 65.84472656 -0.11352539 C67.13268127 -0.115746 68.42063599 -0.11796661 69.74761963 -0.12025452 C72.38507167 -0.02273655 74.50364726 0.20758144 77 1 C77 3.64 77 6.28 77 9 C76.01 9 75.02 9 74 9 C74 9.66 74 10.32 74 11 C66.41 11 58.82 11 51 11 C50.67 42.68 50.34 74.36 50 107 C43.4 107 36.8 107 30 107 C30 106.67 30 106.34 30 106 C33.63 105.67 37.26 105.34 41 105 C40.75878418 102.87050903 40.75878418 102.87050903 40.51269531 100.69799805 C39.73570201 92.08997819 39.81515101 83.46793044 39.796875 74.83203125 C39.79263393 73.4720379 39.79263393 73.4720379 39.78830719 72.08456993 C39.77340998 67.29669284 39.76411787 62.5088452 39.75976562 57.72094727 C39.75426066 52.79512402 39.73016307 47.86957432 39.70179367 42.94383717 C39.68313364 39.13387767 39.67796014 35.3239841 39.67642975 31.51398277 C39.67341591 29.69799982 39.66543054 27.88201767 39.65224457 26.06608009 C39.63509506 23.5253684 39.63708453 20.98532694 39.64355469 18.44458008 C39.62973251 17.33545258 39.62973251 17.33545258 39.6156311 16.20391846 C39.66099536 10.48658618 40.82449851 7.8013373 43 2 C34.42 2 25.84 2 17 2 C18.32 2.99 19.64 3.98 21 5 C21.875 7 21.875 7 22 9 C21.01 10.485 21.01 10.485 20 12 C19.814375 11.401875 19.62875 10.80375 19.4375 10.1875 C17.31888406 6.96351921 14.59931966 5.96319822 11 5 C7.33946246 4.48831196 3.69013865 4.19351541 0 4 C0 2.68 0 1.36 0 0 Z " fill="#DFC06D" transform="translate(176,234)"/>
<path d="M0 0 C0.495 1.98 0.495 1.98 1 4 C-0.65 4.33 -2.3 4.66 -4 5 C-5.33211294 8.92265017 -4.99377278 12.80773897 -4.80859375 16.87890625 C-4.75030192 18.45636735 -4.69237111 20.03384182 -4.63476562 21.61132812 C-4.53836529 24.07746826 -4.43833211 26.54333081 -4.33129883 29.0090332 C-3.93896261 38.25642573 -3.66691175 46.94308974 -6 56 C-6.33 56 -6.66 56 -7 56 C-7 41.15 -7 26.3 -7 11 C-11.104375 13.165625 -15.20875 15.33125 -19.4375 17.5625 C-29.76118949 22.95530532 -40.09020565 27.90732687 -51 32 C-51.66378662 32.2570874 -52.32757324 32.5141748 -53.01147461 32.77905273 C-64.97308036 37.37617882 -76.26136315 38.27849234 -89 38.3125 C-90.26481201 38.31789795 -91.52962402 38.3232959 -92.83276367 38.32885742 C-98.90865204 38.28234073 -104.28162158 38.13588241 -110 36 C-110 35.67 -110 35.34 -110 35 C-108.70449219 34.90203125 -107.40898437 34.8040625 -106.07421875 34.703125 C-73.41718347 32.04312184 -45.21650412 21.33776798 -16.95825195 4.81689453 C-10.97671714 1.32075517 -6.9940995 -0.27427841 0 0 Z " fill="#DFBB5C" transform="translate(349,340)"/>
<path d="M0 0 C1.04679932 0.28085449 1.04679932 0.28085449 2.11474609 0.56738281 C20.05138843 5.43283885 37.66802733 13.49130748 53 24 C51 25 51 25 49.13085938 24.45849609 C48.37611328 24.14992676 47.62136719 23.84135742 46.84375 23.5234375 C45.99514404 23.18465576 45.14653809 22.84587402 44.2722168 22.49682617 C43.35738525 22.12662354 42.44255371 21.7564209 41.5 21.375 C26.61916285 15.54045004 11.750877 11.63702466 -4 9 C-4.88220215 8.82509033 -5.7644043 8.65018066 -6.67333984 8.4699707 C-10.70662811 7.9001718 -14.61300335 7.87537774 -18.6796875 7.90234375 C-19.49245148 7.9037587 -20.30521545 7.90517365 -21.14260864 7.90663147 C-23.72011101 7.91219665 -26.2975242 7.9247426 -28.875 7.9375 C-30.63020707 7.9425195 -32.38541552 7.94708162 -34.140625 7.95117188 C-38.42711732 7.96215466 -42.71354357 7.97939508 -47 8 C-47.33 5.03 -47.66 2.06 -48 -1 C-51.63 -1.33 -55.26 -1.66 -59 -2 C-59 -2.33 -59 -2.66 -59 -3 C-40.24037906 -6.56020695 -18.28394955 -5.16619547 0 0 Z " fill="#AF893E" transform="translate(456,296)"/>
<path d="M0 0 C0 2.66666667 0 5.33333333 0 8 C3.15259465 9.01333399 4.84507423 8.81126663 8 8 C10.33300933 7.96111651 12.66709801 7.9551365 15 8 C5.32869427 16.23197302 -10.07519432 19.86628546 -21.875 23.875 C-22.97851807 24.2560791 -24.08203613 24.6371582 -25.21899414 25.02978516 C-32.7460592 27.53038542 -40.13049675 29.03385275 -48 30 C-47.67 29.01 -47.34 28.02 -47 27 C-46.34 27 -45.68 27 -45 27 C-45 26.34 -45 25.68 -45 25 C-46.11375 25.20625 -47.2275 25.4125 -48.375 25.625 C-49.57125 25.74875 -50.7675 25.8725 -52 26 C-52.66 25.34 -53.32 24.68 -54 24 C-53.34 22.35 -52.68 20.7 -52 19 C-52.99 19 -53.98 19 -55 19 C-55.33 19.66 -55.66 20.32 -56 21 C-60.29105809 22.09771253 -63.69211856 21.92311745 -68 21 C-68 20.67 -68 20.34 -68 20 C-67.32235596 19.88519287 -66.64471191 19.77038574 -65.9465332 19.65209961 C-44.64520907 15.97586569 -25.38521529 10.16714372 -5.61328125 1.50390625 C-2 0 -2 0 0 0 Z " fill="#DCB85B" transform="translate(304,328)"/>
<path d="M0 0 C1.37478516 0.01740234 1.37478516 0.01740234 2.77734375 0.03515625 C3.69644531 0.04417969 4.61554688 0.05320313 5.5625 0.0625 C6.27277344 0.07410156 6.98304688 0.08570313 7.71484375 0.09765625 C6.72484375 0.42765625 5.73484375 0.75765625 4.71484375 1.09765625 C4.49828125 2.70640625 4.49828125 2.70640625 4.27734375 4.34765625 C3.71484375 8.09765625 3.71484375 8.09765625 3.18777466 9.84884644 C2.49110657 13.1615376 2.57607159 16.45917552 2.58544922 19.82861328 C2.5836969 20.60317368 2.58194458 21.37773407 2.58013916 22.17576599 C2.57573977 24.73568974 2.57865366 27.29554429 2.58203125 29.85546875 C2.58135725 31.64183566 2.58038642 33.42820249 2.57913208 35.21456909 C2.57765735 38.96206534 2.57980093 42.70953777 2.58447266 46.45703125 C2.59014505 51.23814882 2.58690537 56.01920994 2.58090019 60.80032539 C2.57726733 64.49285295 2.57844606 68.18536738 2.58102798 71.87789536 C2.58169102 73.6391793 2.58089083 75.40046447 2.57854843 77.16174698 C2.16782285 90.22184296 2.16782285 90.22184296 3.71484375 103.09765625 C4.37484375 103.75765625 5.03484375 104.41765625 5.71484375 105.09765625 C2.33984375 105.28515625 2.33984375 105.28515625 -1.28515625 105.09765625 C-3.34172339 102.01280554 -3.53495412 101.38982401 -3.53239441 97.90927124 C-3.5365889 97.05676285 -3.54078339 96.20425446 -3.54510498 95.32591248 C-3.53948547 94.39384476 -3.53386597 93.46177704 -3.52807617 92.50146484 C-3.52997452 91.51752243 -3.53187286 90.53358002 -3.53382874 89.51982117 C-3.53753883 86.26183144 -3.5268302 83.00406372 -3.515625 79.74609375 C-3.51443339 77.48833238 -3.51398 75.23057051 -3.51423645 72.97280884 C-3.51267126 68.23997904 -3.50437777 63.50722485 -3.4909668 58.77441406 C-3.47395751 52.69313717 -3.47015298 46.61194327 -3.47091198 40.53064537 C-3.47064073 35.86912232 -3.46516711 31.20761759 -3.45791054 26.54610062 C-3.454718 24.30289473 -3.4527551 22.05968676 -3.45201683 19.81647873 C-3.44986055 16.6893023 -3.44113239 13.56221585 -3.43041992 10.43505859 C-3.43087311 9.49894241 -3.43132629 8.56282623 -3.43179321 7.5983429 C-3.3942571 0.14505372 -3.3942571 0.14505372 0 0 Z " fill="#EEDC98" transform="translate(214.28515625,234.90234375)"/>
<path d="M0 0 C0.33 0 0.66 0 1 0 C1 15.18 1 30.36 1 46 C11.395 43.525 11.395 43.525 22 41 C33.32857143 40.44285714 33.32857143 40.44285714 38 42 C39.61987986 44.77693691 40.10437747 46.34764079 39.59375 49.5390625 C37.753287 52.3809539 37.25874122 52.48333706 34.10546875 53.2578125 C32.4701143 53.56854159 30.83029776 53.85638827 29.1875 54.125 C27.46594143 54.44421211 25.74458766 54.7645306 24.0234375 55.0859375 C23.17362305 55.23772461 22.32380859 55.38951172 21.44824219 55.54589844 C18.04168181 56.17774949 14.6843985 56.95354715 11.3125 57.75 C10.27738281 57.99234375 9.24226563 58.2346875 8.17578125 58.484375 C7.45777344 58.65453125 6.73976563 58.8246875 6 59 C5.67 56.03 5.34 53.06 5 50 C3.02 50.495 3.02 50.495 1 51 C-0.5625 49.25 -0.5625 49.25 -2 47 C-1.71370746 45.65578072 -1.37345887 44.32265542 -1 43 C-0.8903555 41.53538048 -0.82490964 40.06703953 -0.79467773 38.59863281 C-0.7647599 37.3077475 -0.7647599 37.3077475 -0.73423767 35.99078369 C-0.71752518 35.07085632 -0.70081268 34.15092896 -0.68359375 33.203125 C-0.66281265 32.25435486 -0.64203156 31.30558472 -0.62062073 30.32806396 C-0.55532066 27.30211518 -0.49633112 24.2760808 -0.4375 21.25 C-0.3942962 19.19660579 -0.35068131 17.14322018 -0.30664062 15.08984375 C-0.19965927 10.0599832 -0.09833677 5.03003668 0 0 Z " fill="#D8AC4B" transform="translate(370,253)"/>
<path d="M0 0 C1.44791044 0.01005493 2.89582768 0.01917632 4.34375 0.02734375 C7.85431037 0.04914656 11.36461028 0.08353619 14.875 0.125 C14.875 0.785 14.875 1.445 14.875 2.125 C14.32263672 2.19493164 13.77027344 2.26486328 13.20117188 2.33691406 C-0.96910657 4.16249674 -14.54984086 6.55402742 -28.125 11.125 C-28.11452637 12.24358398 -28.10405273 13.36216797 -28.09326172 14.51464844 C-28.05668597 18.7192049 -28.03396472 22.92374771 -28.01513672 27.12841797 C-28.00516384 28.93801245 -27.99158068 30.74759118 -27.97412109 32.55712891 C-27.7300184 58.5325276 -27.7300184 58.5325276 -32.125 65.125 C-32.25 58.375 -32.25 58.375 -31.125 56.125 C-31.03832745 53.49872867 -31.00939865 50.89937517 -31.02734375 48.2734375 C-31.02946617 47.11238998 -31.02946617 47.11238998 -31.03163147 45.92788696 C-31.03723597 43.45188558 -31.04978917 40.97597412 -31.0625 38.5 C-31.06751442 36.82291797 -31.07207743 35.14583453 -31.07617188 33.46875 C-31.08720685 29.35413194 -31.10447446 25.23958122 -31.125 21.125 C-31.455 21.125 -31.785 21.125 -32.125 21.125 C-32.125 17.165 -32.125 13.205 -32.125 9.125 C-33.115 9.62 -33.115 9.62 -34.125 10.125 C-36.3322923 10.19592842 -38.54167452 10.20915025 -40.75 10.1875 C-41.93851562 10.17847656 -43.12703125 10.16945313 -44.3515625 10.16015625 C-45.26679688 10.14855469 -46.18203125 10.13695312 -47.125 10.125 C-43.43531431 7.66520954 -39.7495812 6.50814048 -35.5625 5.125 C-34.80130859 4.86460937 -34.04011719 4.60421875 -33.25585938 4.3359375 C-22.07245922 0.61127269 -11.7001706 -0.14242284 0 0 Z " fill="#BA9441" transform="translate(400.125,325.875)"/>
<path d="M0 0 C0.66 0.33 1.32 0.66 2 1 C1.99666908 2.88801079 1.99666908 2.88801079 1.99327087 4.81416321 C1.97302386 16.65972476 1.95802031 28.50528282 1.94818783 40.35085773 C1.94296298 46.44118787 1.93587251 52.53150406 1.92456055 58.62182617 C1.91371758 64.49621404 1.90772015 70.37058848 1.90512276 76.24498558 C1.90327106 78.48933308 1.89965532 80.73367982 1.89426994 82.97802162 C1.88704087 86.11467723 1.88600986 89.2512769 1.88647461 92.38793945 C1.88287933 93.32157822 1.87928406 94.25521698 1.87557983 95.21714783 C1.8769545 96.07110138 1.87832916 96.92505493 1.87974548 97.80488586 C1.87836279 98.91795089 1.87836279 98.91795089 1.87695217 100.05350208 C1.93045662 102.21761368 1.93045662 102.21761368 3 105 C-0.3 105 -3.6 105 -7 105 C-5.68 104.01 -4.36 103.02 -3 102 C-2.3997264 100.05991522 -2.3997264 100.05991522 -2.48101807 97.8808136 C-2.46710526 97.04368835 -2.45319244 96.20656311 -2.43885803 95.34407043 C-2.44640358 93.97166451 -2.44640358 93.97166451 -2.45410156 92.5715332 C-2.44376389 91.60549164 -2.43342621 90.63945007 -2.42277527 89.64413452 C-2.39324166 86.44618207 -2.39184585 83.24885963 -2.390625 80.05078125 C-2.37565052 77.83545212 -2.35892493 75.62013418 -2.34051514 73.40483093 C-2.29674748 67.57033794 -2.27682159 61.73599554 -2.26177979 55.90136719 C-2.24224267 49.9491278 -2.20026888 43.99705188 -2.16015625 38.04492188 C-2.08475208 26.36333155 -2.03452239 14.68177764 -2 3 C-2.99 2.67 -3.98 2.34 -5 2 C-2.625 0.9375 -2.625 0.9375 0 0 Z " fill="#F4E6B0" transform="translate(210,235)"/>
<path d="M0 0 C0 0.66 0 1.32 0 2 C1.1446875 1.7215625 1.1446875 1.7215625 2.3125 1.4375 C5 1 5 1 8 2 C8.495 5.465 8.495 5.465 9 9 C4.53506346 12.15171991 0.06331434 13.14368317 -5.1875 14.25 C-6.00669922 14.435625 -6.82589844 14.62125 -7.66992188 14.8125 C-13.73800559 16.1309972 -13.73800559 16.1309972 -16 15 C-15.67 14.34 -15.34 13.68 -15 13 C-14.34 13 -13.68 13 -13 13 C-13 12.34 -13 11.68 -13 11 C-14.11375 11.20625 -15.2275 11.4125 -16.375 11.625 C-17.57125 11.74875 -18.7675 11.8725 -20 12 C-20.66 11.34 -21.32 10.68 -22 10 C-21.34 8.35 -20.68 6.7 -20 5 C-20.99 5 -21.98 5 -23 5 C-23.33 5.66 -23.66 6.32 -24 7 C-28.29105809 8.09771253 -31.69211856 7.92311745 -36 7 C-36 6.67 -36 6.34 -36 6 C-31.35584074 5.14212533 -26.71106181 4.28771949 -22.06567383 3.43652344 C-20.48542035 3.14646151 -18.90534049 2.85545207 -17.32543945 2.56347656 C-15.05464931 2.14399035 -12.78325685 1.72791436 -10.51171875 1.3125 C-9.80536789 1.18125732 -9.09901703 1.05001465 -8.3712616 0.91479492 C-5.53096327 0.39819987 -2.89430099 0 0 0 Z " fill="#E2CD89" transform="translate(272,342)"/>
<path d="M0 0 C3.46221304 1.08575001 6.81621211 2.31487331 10.15234375 3.734375 C27.80684051 11.21503092 45.84908213 16.38787629 65 18 C61.50007882 20.89884776 59.56830973 21.31147566 55 21 C55 22.32 55 23.64 55 25 C54.34 25 53.68 25 53 25 C53 27.31 53 29.62 53 32 C52.67 32 52.34 32 52 32 C52 29.69 52 27.38 52 25 C51.01773438 24.896875 50.03546875 24.79375 49.0234375 24.6875 C44.64303168 24.05450608 40.72595658 22.62524729 36.625 21 C35.45904297 20.54077148 35.45904297 20.54077148 34.26953125 20.07226562 C22.29534198 15.22649113 10.01250522 9.26585198 0 1 C0 0.67 0 0.34 0 0 Z " fill="#D4C492" transform="translate(145,330)"/>
<path d="M0 0 C0.495 3.465 0.495 3.465 1 7 C-11.17329787 12.44594905 -22.7784352 13.27718336 -36 13.3125 C-37.26473145 13.31789795 -38.52946289 13.3232959 -39.83251953 13.32885742 C-45.90849107 13.28234319 -51.2815425 13.13591195 -57 11 C-57 10.67 -57 10.34 -57 10 C-55.70449219 9.90203125 -54.40898437 9.8040625 -53.07421875 9.703125 C-37.45426162 8.42724108 -22.17563545 6.31729623 -7.4453125 0.734375 C-4.8420966 -0.04742147 -2.70249866 -0.13560925 0 0 Z " fill="#EDE8C5" transform="translate(296,365)"/>
<path d="M0 0 C0.33 0 0.66 0 1 0 C1 2.64 1 5.28 1 8 C3.64 8 6.28 8 9 8 C9 5.36 9 2.72 9 0 C9.66 0 10.32 0 11 0 C11 0.99 11 1.98 11 3 C11.33 2.34 11.66 1.68 12 1 C14.475 1.495 14.475 1.495 17 2 C9.74982027 11.52880765 0.13659034 18.22522988 -10.4375 23.625 C-11.09927246 23.96781006 -11.76104492 24.31062012 -12.44287109 24.66381836 C-16.45589365 26.61545417 -19.54871744 27.37151354 -24 27 C-23.81640625 25.19921875 -23.81640625 25.19921875 -23 23 C-20.77734375 21.39453125 -20.77734375 21.39453125 -17.9375 19.8125 C-9.77846241 14.86409668 -4.31568245 8.45154479 0 0 Z " fill="#E7C16D" transform="translate(335,416)"/>
<path d="M0 0 C0.66 0.33 1.32 0.66 2 1 C1.67 1.99 1.34 2.98 1 4 C1.66 4 2.32 4 3 4 C3.33 34.69 3.66 65.38 4 97 C2.02 97.99 2.02 97.99 0 99 C-0.15356395 86.23972168 -0.30174573 73.47939349 -0.4429636 60.71897221 C-0.50870045 54.79446542 -0.57632526 48.86999247 -0.64819336 42.94555664 C-0.71741905 37.23331908 -0.7817788 31.52104592 -0.84269524 25.80871391 C-0.86686072 23.62409902 -0.8928107 21.43950314 -0.92053413 19.2549305 C-0.95892192 16.20652368 -0.99109185 13.15811228 -1.02172852 10.10961914 C-1.03467453 9.19684204 -1.04762054 8.28406494 -1.06095886 7.34362793 C-1.07898082 5.22906446 -1.04529762 3.11415506 -1 1 C-0.67 0.67 -0.34 0.34 0 0 Z " fill="#1D1617" transform="translate(227,244)"/>
<path d="M0 0 C4.18744075 -0.05840224 8.37477565 -0.09373166 12.5625 -0.125 C13.74392578 -0.14175781 14.92535156 -0.15851563 16.14257812 -0.17578125 C22.15396759 -0.2094585 27.34183122 -0.11038894 33 2 C30 4 30 4 28 4 C28 4.99 28 5.98 28 7 C28.66 7.33 29.32 7.66 30 8 C20.1 8 10.2 8 0 8 C0 8.66 0 9.32 0 10 C-2.31 10 -4.62 10 -7 10 C-7 8.02 -7 6.04 -7 4 C-4.69 4 -2.38 4 0 4 C0 2.68 0 1.36 0 0 Z " fill="#D19F30" transform="translate(416,294)"/>
<path d="M0 0 C1.485 0.99 1.485 0.99 3 2 C3.28628303 4.7515767 3.37827044 7.27720631 3.34057617 10.02978516 C3.34123329 11.27380348 3.34123329 11.27380348 3.34190369 12.54295349 C3.33980898 15.29189368 3.31644613 18.0402285 3.29296875 20.7890625 C3.28737521 22.69192166 3.28310397 24.59478513 3.28010559 26.49765015 C3.26863772 31.51192095 3.2391539 36.52593207 3.20599365 41.5401001 C3.17533455 46.65430182 3.16160916 51.76854541 3.14648438 56.8828125 C3.11428601 66.92198925 3.06306628 76.96097305 3 87 C3.66 87.33 4.32 87.66 5 88 C4.505 88.99 4.505 88.99 4 90 C2.68 90 1.36 90 0 90 C0 60.3 0 30.6 0 0 Z " fill="#E7E0BA" transform="translate(197,249)"/>
<path d="M0 0 C0.73411102 -0.00394775 1.46822205 -0.00789551 2.22457886 -0.01196289 C14.33814162 -0.04240854 25.64309124 1.11936809 37.375 4.3125 C37.375 4.9725 37.375 5.6325 37.375 6.3125 C39.355 6.6425 41.335 6.9725 43.375 7.3125 C43.045 8.9625 42.715 10.6125 42.375 12.3125 C35.75 12.4375 35.75 12.4375 32.375 11.3125 C29.71605893 11.22755272 27.08414623 11.19655204 24.42578125 11.21484375 C23.26685616 11.21696617 23.26685616 11.21696617 22.08451843 11.21913147 C19.61880611 11.22472534 17.15318485 11.23727667 14.6875 11.25 C13.01497527 11.25501579 11.34244912 11.25957856 9.66992188 11.26367188 C5.57157954 11.27469276 1.47330521 11.29195316 -2.625 11.3125 C-2.625 10.9825 -2.625 10.6525 -2.625 10.3125 C6.615 9.9825 15.855 9.6525 25.375 9.3125 C25.375 8.3225 25.375 7.3325 25.375 6.3125 C26.035 5.9825 26.695 5.6525 27.375 5.3125 C23.97636617 3.26901763 21.23079897 3.01414115 17.296875 2.8984375 C16.13671875 2.85976563 14.9765625 2.82109375 13.78125 2.78125 C12.5746875 2.7503125 11.368125 2.719375 10.125 2.6875 C8.90296875 2.64882813 7.6809375 2.61015625 6.421875 2.5703125 C3.4064006 2.47607892 0.39093172 2.39046545 -2.625 2.3125 C-2.625 3.6325 -2.625 4.9525 -2.625 6.3125 C-4.935 6.3125 -7.245 6.3125 -9.625 6.3125 C-9.955 5.3225 -10.285 4.3325 -10.625 3.3125 C-14.255 2.9825 -17.885 2.6525 -21.625 2.3125 C-21.625 1.9825 -21.625 1.6525 -21.625 1.3125 C-14.45141721 -0.04890487 -7.27266558 0.02816095 0 0 Z " fill="#BF963E" transform="translate(418.625,291.6875)"/>
<path d="M0 0 C0.33 1.32 0.66 2.64 1 4 C-0.65 4.33 -2.3 4.66 -4 5 C-5.33211294 8.92265017 -4.99377278 12.80773897 -4.80859375 16.87890625 C-4.75030192 18.45636735 -4.69237111 20.03384182 -4.63476562 21.61132812 C-4.53836529 24.07746826 -4.43833211 26.54333081 -4.33129883 29.0090332 C-3.93896261 38.25642573 -3.66691175 46.94308974 -6 56 C-6.33 56 -6.66 56 -7 56 C-7 41.15 -7 26.3 -7 11 C-8.98 11.66 -10.96 12.32 -13 13 C-13 12.34 -13 11.68 -13 11 C-13.66 11 -14.32 11 -15 11 C-15 11.99 -15 12.98 -15 14 C-15.66 13.67 -16.32 13.34 -17 13 C-17 10.36 -17 7.72 -17 5 C-11.18524285 1.72408048 -6.75479274 -0.7342166 0 0 Z " fill="#EAC26D" transform="translate(349,340)"/>
<path d="M0 0 C12.66970387 -0.18451025 12.66970387 -0.18451025 18 1 C17.01 1.33 16.02 1.66 15 2 C15 8.27 15 14.54 15 21 C11.25501967 20.06375492 9.90423166 19.40527564 7 17.125 C6.01 16.35542969 6.01 16.35542969 5 15.5703125 C4.34 15.05210937 3.68 14.53390625 3 14 C1.66888847 12.99704444 0.33619113 11.99617821 -1 11 C-0.34 11 0.32 11 1 11 C1 10.34 1 9.68 1 9 C1.99 9 2.98 9 4 9 C3.814375 8.05125 3.62875 7.1025 3.4375 6.125 C3 3 3 3 4 1 C2.68 0.67 1.36 0.34 0 0 Z " fill="#DBAE4C" transform="translate(249,234)"/>
<path d="M0 0 C0.33 0.99 0.66 1.98 1 3 C1.99 3 2.98 3 4 3 C4.33 3.99 4.66 4.98 5 6 C-3.96994652 11.19312693 -13.83728711 11.63516956 -24 11 C-24.66 10.67 -25.32 10.34 -26 10 C-25.67 8.35 -25.34 6.7 -25 5 C-24.13117188 4.89042969 -23.26234375 4.78085937 -22.3671875 4.66796875 C-14.71189816 3.61472424 -7.50990025 -0.53642145 0 0 Z " fill="#CFAC5C" transform="translate(261,310)"/>
<path d="M0 0 C0.33 0 0.66 0 1 0 C1.11571159 12.72570322 1.20462295 25.45128185 1.25906086 38.17740345 C1.28518484 44.08631243 1.32063467 49.99486223 1.37719727 55.90356445 C1.43141612 61.60292287 1.46139941 67.30193525 1.47438622 73.0015316 C1.48364425 75.17894631 1.50172256 77.35634151 1.52865028 79.53360939 C1.56480537 82.57727005 1.56995095 85.61949019 1.56762695 88.66333008 C1.58560333 89.56891663 1.60357971 90.47450317 1.62210083 91.40753174 C1.60294019 93.71771531 1.56102886 95.75887526 1 98 C-1.53547668 100.08354187 -1.53547668 100.08354187 -4 101 C-1.03 101.33 1.94 101.66 5 102 C5 102.33 5 102.66 5 103 C-1.93 103 -8.86 103 -16 103 C-16 102.67 -16 102.34 -16 102 C-17.98 101.67 -19.96 101.34 -22 101 C-22 100.67 -22 100.34 -22 100 C-21.21753906 99.86722656 -20.43507812 99.73445313 -19.62890625 99.59765625 C-18.11103516 99.33275391 -18.11103516 99.33275391 -16.5625 99.0625 C-15.04849609 98.80146484 -15.04849609 98.80146484 -13.50390625 98.53515625 C-11.0712562 98.25248903 -11.0712562 98.25248903 -10 97 C-13.3 96.67 -16.6 96.34 -20 96 C-20 95.67 -20 95.34 -20 95 C-13.4 95 -6.8 95 0 95 C0 63.65 0 32.3 0 0 Z " fill="#0C0807" transform="translate(226,246)"/>
<path d="M0 0 C-0.515625 0.4125 -1.03125 0.825 -1.5625 1.25 C-2.036875 1.8275 -2.51125 2.405 -3 3 C-2.77242269 5.16299211 -2.77242269 5.16299211 -2 7 C-2.66 7 -3.32 7 -4 7 C-4 7.99 -4 8.98 -4 10 C-3.45859375 9.84660156 -2.9171875 9.69320313 -2.359375 9.53515625 C0.34704023 8.92128392 2.9850509 8.66791243 5.75 8.4375 C6.73484375 8.35371094 7.7196875 8.26992188 8.734375 8.18359375 C9.48203125 8.12300781 10.2296875 8.06242187 11 8 C7.5962379 10.90773646 4.07282513 12.26016645 -0.125 13.75 C-1.36507813 14.19859375 -2.60515625 14.6471875 -3.8828125 15.109375 C-7 16 -7 16 -9 15 C-9 12.69 -9 10.38 -9 8 C-11.64 8 -14.28 8 -17 8 C-17 7.34 -17 6.68 -17 6 C-19.31 6.33 -21.62 6.66 -24 7 C-20.63499959 4.75666639 -17.24925569 3.65279013 -13.4375 2.4375 C-3.04879891 -0.91463967 -3.04879891 -0.91463967 0 0 Z " fill="#DEBD6B" transform="translate(289,336)"/>
<path d="M0 0 C4.46203859 1.40485065 8.75952053 3.09531595 13.08300781 4.86914062 C20.94019713 8.09214967 28.67908749 11.16787247 37 13 C37 16 37 16 35.375 17.8125 C33 19 33 19 30.3671875 18.3359375 C26.34274378 16.73923245 22.56619952 14.85053745 18.75 12.8125 C17.63153687 12.21791992 17.63153687 12.21791992 16.49047852 11.61132812 C10.72170614 8.49462769 5.07124175 5.18657795 0 1 C0 0.67 0 0.34 0 0 Z " fill="#D9C289" transform="translate(145,330)"/>
<path d="M0 0 C22.44 0 44.88 0 68 0 C68 1.32 68 2.64 68 4 C66.20991533 4.22151549 64.41781838 4.42682213 62.625 4.625 C61.62726563 4.74101562 60.62953125 4.85703125 59.6015625 4.9765625 C58.74304688 4.98429688 57.88453125 4.99203125 57 5 C56.34 4.34 55.68 3.68 55 3 C55.33 2.34 55.66 1.68 56 1 C49.94910825 1.09357049 43.89861493 1.19967313 37.84814453 1.31738281 C35.78993751 1.35565995 33.73166388 1.39051504 31.67333984 1.421875 C28.71427612 1.46755278 25.75567043 1.52554302 22.796875 1.5859375 C21.87694763 1.59748871 20.95702026 1.60903992 20.00921631 1.62094116 C19.1486261 1.64081085 18.28803589 1.66068054 17.40136719 1.68115234 C16.26885529 1.70113785 16.26885529 1.70113785 15.11346436 1.7215271 C12.72533846 2.03618977 11.11482242 2.87923443 9 4 C6.640625 4.1953125 6.640625 4.1953125 4.25 4.125 C3.45078125 4.10695312 2.6515625 4.08890625 1.828125 4.0703125 C1.22484375 4.04710937 0.6215625 4.02390625 0 4 C0 2.68 0 1.36 0 0 Z " fill="#D6AF5D" transform="translate(321,234)"/>
<path d="M0 0 C0.12375 0.639375 0.2475 1.27875 0.375 1.9375 C0.58125 2.618125 0.7875 3.29875 1 4 C1.66 4.33 2.32 4.66 3 5 C3.33 4.34 3.66 3.68 4 3 C4.66 3.33 5.32 3.66 6 4 C6 4.99 6 5.98 6 7 C3.46543163 8.34855894 0.92375848 9.67875217 -1.625 11 C-2.69427734 11.57234375 -2.69427734 11.57234375 -3.78515625 12.15625 C-8.0393071 14.34186878 -11.0924454 15.49539983 -16 15 C-15.83203125 13.21875 -15.83203125 13.21875 -15 11 C-12.63671875 9.21875 -12.63671875 9.21875 -9.6875 7.5 C-5.95329045 5.30633885 -2.94453777 3.18933307 0 0 Z " fill="#DBBA6B" transform="translate(327,428)"/>
<path d="M0 0 C0.33 0 0.66 0 1 0 C1 15.18 1 30.36 1 46 C3.64 46 6.28 46 9 46 C9.99 46.33 10.98 46.66 12 47 C12 47.66 12 48.32 12 49 C10.515 49.495 10.515 49.495 9 50 C9.33 50.99 9.66 51.98 10 53 C10.03874921 54.66621616 10.0450286 56.33394172 10 58 C8.02 58.495 8.02 58.495 6 59 C5.67 56.03 5.34 53.06 5 50 C3.02 50.495 3.02 50.495 1 51 C-0.5625 49.25 -0.5625 49.25 -2 47 C-1.71370746 45.65578072 -1.37345887 44.32265542 -1 43 C-0.8903555 41.53538048 -0.82490964 40.06703953 -0.79467773 38.59863281 C-0.7647599 37.3077475 -0.7647599 37.3077475 -0.73423767 35.99078369 C-0.71752518 35.07085632 -0.70081268 34.15092896 -0.68359375 33.203125 C-0.66281265 32.25435486 -0.64203156 31.30558472 -0.62062073 30.32806396 C-0.55532066 27.30211518 -0.49633112 24.2760808 -0.4375 21.25 C-0.3942962 19.19660579 -0.35068131 17.14322018 -0.30664062 15.08984375 C-0.19965927 10.0599832 -0.09833677 5.03003668 0 0 Z " fill="#D3B46F" transform="translate(370,253)"/>
<path d="M0 0 C1.0725 0.2475 2.145 0.495 3.25 0.75 C3.25 1.41 3.25 2.07 3.25 2.75 C6.88 2.75 10.51 2.75 14.25 2.75 C12.2427092 5.7609362 11.41115776 6.38016497 8.25 7.75 C8.25 8.08 8.25 8.41 8.25 8.75 C-3.27164009 8.93451025 -3.27164009 8.93451025 -8.75 7.75 C-8.09 7.42 -7.43 7.09 -6.75 6.75 C-7.08 5.76 -7.41 4.77 -7.75 3.75 C-5.15187156 0.32047046 -4.43092205 -0.2953948 0 0 Z " fill="#171112" transform="translate(202.75,339.25)"/>
<path d="M0 0 C10.56 0 21.12 0 32 0 C32 0.33 32 0.66 32 1 C27.05 1.33 22.1 1.66 17 2 C18.32 2.99 19.64 3.98 21 5 C21.875 7 21.875 7 22 9 C21.01 10.485 21.01 10.485 20 12 C19.814375 11.401875 19.62875 10.80375 19.4375 10.1875 C17.31888406 6.96351921 14.59931966 5.96319822 11 5 C7.33946246 4.48831196 3.69013865 4.19351541 0 4 C0 2.68 0 1.36 0 0 Z " fill="#E6D699" transform="translate(176,234)"/>
<path d="M0 0 C-0.33 1.98 -0.66 3.96 -1 6 C-1.66 6 -2.32 6 -3 6 C-3 6.99 -3 7.98 -3 9 C-7.455 10.485 -7.455 10.485 -12 12 C-12.33 9.69 -12.66 7.38 -13 5 C-13.99 4.67 -14.98 4.34 -16 4 C-5.62642369 -0.59225513 -5.62642369 -0.59225513 0 0 Z " fill="#E4C169" transform="translate(309,360)"/>
<path d="M0 0 C1.0236264 0.00424484 1.0236264 0.00424484 2.06793213 0.00857544 C4.23817807 0.01973152 6.40800471 0.04482693 8.578125 0.0703125 C10.05337944 0.08034824 11.52864037 0.08947306 13.00390625 0.09765625 C16.61211442 0.11965563 20.22007875 0.15415367 23.828125 0.1953125 C23.828125 0.8553125 23.828125 1.5153125 23.828125 2.1953125 C23.23386719 2.27571777 22.63960938 2.35612305 22.02734375 2.43896484 C19.29362487 2.81150313 16.56089277 3.19086277 13.828125 3.5703125 C12.89355469 3.69664062 11.95898438 3.82296875 10.99609375 3.953125 C6.71451029 4.55194786 2.56123168 5.20839588 -1.609375 6.359375 C-4.99626375 7.15410548 -6.03552112 7.16982246 -9.171875 6.1953125 C-8.511875 5.2053125 -7.851875 4.2153125 -7.171875 3.1953125 C-4.531875 3.5253125 -1.891875 3.8553125 0.828125 4.1953125 C0.828125 3.2053125 0.828125 2.2153125 0.828125 1.1953125 C0.333125 1.3603125 -0.161875 1.5253125 -0.671875 1.6953125 C-4.20631589 2.40220068 -7.56878201 2.25536405 -11.171875 2.1953125 C-7.48183299 -0.15363495 -4.3047647 -0.03528496 0 0 Z " fill="#A9863B" transform="translate(391.171875,325.8046875)"/>
<path d="M0 0 C-1.98 0.66 -3.96 1.32 -6 2 C-6 2.33 -6 2.66 -6 3 C-0.555 3.495 -0.555 3.495 5 4 C5 4.33 5 4.66 5 5 C0.9981675 5.04978833 -3.00354265 5.08590164 -7.00561523 5.10986328 C-8.36437118 5.11986243 -9.72310594 5.13346624 -11.08178711 5.15087891 C-13.04531296 5.17539594 -15.00900201 5.18546962 -16.97265625 5.1953125 C-18.15093994 5.20578613 -19.32922363 5.21625977 -20.54321289 5.22705078 C-24.35125693 4.97692853 -27.38113496 4.16789726 -31 3 C-31 2.67 -31 2.34 -31 2 C-30.39526855 1.94465088 -29.79053711 1.88930176 -29.16748047 1.83227539 C-26.40310534 1.57796135 -23.63905593 1.32025918 -20.875 1.0625 C-19.92367187 0.97548828 -18.97234375 0.88847656 -17.9921875 0.79882812 C-14.12103069 0.43590717 -10.30474656 0.05124057 -6.46875 -0.59375 C-3.94008132 -1.00986004 -2.40141098 -0.83125765 0 0 Z " fill="#D6C597" transform="translate(270,373)"/>
<path d="M0 0 C0.66 0.33 1.32 0.66 2 1 C1.67 1.99 1.34 2.98 1 4 C2.80252869 4.70194993 2.80252869 4.70194993 5 5 C6.34187818 4.3507041 7.67479497 3.68268138 9 3 C11.75 2.875 11.75 2.875 14 3 C10.44283087 5.96430761 6.54949068 7.7721925 2.375 9.6875 C1.694375 10.00783203 1.01375 10.32816406 0.3125 10.65820312 C-4.74058835 13 -4.74058835 13 -7 13 C-7 12.34 -7 11.68 -7 11 C-6.34 11 -5.68 11 -5 11 C-4.74969023 8.58380177 -4.74969023 8.58380177 -5 6 C-5.99 5.34 -6.98 4.68 -8 4 C-6.71349294 3.30289269 -5.42059335 2.61757124 -4.125 1.9375 C-3.40570313 1.55464844 -2.68640625 1.17179687 -1.9453125 0.77734375 C-1.30335938 0.52082031 -0.66140625 0.26429688 0 0 Z " fill="#DCB863" transform="translate(313,355)"/>
<path d="M0 0 C5.94 0.33 11.88 0.66 18 1 C13.78492722 4.16130459 12.93928888 4.3367697 8 4 C8 5.32 8 6.64 8 8 C7.34 8 6.68 8 6 8 C6 10.31 6 12.62 6 15 C5.67 15 5.34 15 5 15 C5 12.69 5 10.38 5 8 C3.68 8 2.36 8 1 8 C1 7.01 1 6.02 1 5 C-0.32 4.67 -1.64 4.34 -3 4 C-2.01 4 -1.02 4 0 4 C0 2.68 0 1.36 0 0 Z " fill="#E3D5A9" transform="translate(192,347)"/>
<path d="M0 0 C0 0.66 0 1.32 0 2 C-0.99 2.66 -1.98 3.32 -3 4 C8.55 4.33 20.1 4.66 32 5 C32 5.33 32 5.66 32 6 C17.48 6 2.96 6 -12 6 C-12.33 4.68 -12.66 3.36 -13 2 C-10.73548507 0.86774254 -9.01180526 0.69438917 -6.5 0.4375 C-5.7059375 0.35371094 -4.911875 0.26992188 -4.09375 0.18359375 C-2 0 -2 0 0 0 Z " fill="#C5B78C" transform="translate(192,384)"/>
<path d="M0 0 C0.66 0 1.32 0 2 0 C2 0.66 2 1.32 2 2 C2.99 2.33 3.98 2.66 5 3 C5.33 3.66 5.66 4.32 6 5 C2.38132441 6.2062252 -0.92506251 6.10816918 -4.6875 6.0625 C-5.38939453 6.05798828 -6.09128906 6.05347656 -6.81445312 6.04882812 C-8.54300538 6.03706927 -10.27151365 6.01913454 -12 6 C-12 4.68 -12 3.36 -12 2 C-6.06 1.505 -6.06 1.505 0 1 C0 0.67 0 0.34 0 0 Z " fill="#E9C666" transform="translate(251,314)"/>
<path d="M0 0 C-0.020625 0.969375 -0.04125 1.93875 -0.0625 2.9375 C-0.35618499 5.87465895 -0.35618499 5.87465895 1 7 C1 6.01 1 5.02 1 4 C1.66 4 2.32 4 3 4 C3.33 4.99 3.66 5.98 4 7 C1.03 8.32 -1.94 9.64 -5 11 C-5.33 9.68 -5.66 8.36 -6 7 C-6.66 6.67 -7.32 6.34 -8 6 C-8.625 3.9375 -8.625 3.9375 -9 2 C-3.375 -1.125 -3.375 -1.125 0 0 Z " fill="#D8B867" transform="translate(333,347)"/>
<path d="M0 0 C0.33 2.31 0.66 4.62 1 7 C-2.81489674 8.46726798 -5.29011622 7.43336419 -9 6 C-9 5.34 -9 4.68 -9 4 C-10.65 4 -12.3 4 -14 4 C-9.49667324 0.99778216 -5.42232421 -0.31896025 0 0 Z " fill="#ECDDA0" transform="translate(296,365)"/>
<path d="M0 0 C0 0.99 0 1.98 0 3 C-1.0725 2.9175 -2.145 2.835 -3.25 2.75 C-7.72362547 3.0482417 -8.06101407 3.87732745 -11 7 C-14.75 8.25 -14.75 8.25 -18 9 C-18.66 8.34 -19.32 7.68 -20 7 C-18.68 7 -17.36 7 -16 7 C-16 5.68 -16 4.36 -16 3 C-16.66 2.34 -17.32 1.68 -18 1 C-15.75013201 0.83156069 -13.50009983 0.66531346 -11.25 0.5 C-9.37054688 0.36078125 -9.37054688 0.36078125 -7.453125 0.21875 C-4.97265229 0.06161598 -2.48544483 0 0 0 Z " fill="#CB9C2E" transform="translate(392,327)"/>
<path d="M0 0 C0.33 0 0.66 0 1 0 C1 1.65 1 3.3 1 5 C1.66 5 2.32 5 3 5 C2.67 7.64 2.34 10.28 2 13 C1.34 13 0.68 13 0 13 C-0.33 13.99 -0.66 14.98 -1 16 C-0.34 16.33 0.32 16.66 1 17 C-1.97 17.33 -4.94 17.66 -8 18 C-8 17.67 -8 17.34 -8 17 C-9.98 16.67 -11.96 16.34 -14 16 C-14 15.67 -14 15.34 -14 15 C-10.7 15 -7.4 15 -4 15 C-1.76059686 10.20127899 -0.9439136 5.17144153 0 0 Z " fill="#EFDCA2" transform="translate(196,371)"/>
<path d="M0 0 C1.6286551 0.42369072 3.25287378 0.8644623 4.875 1.3125 C5.77992188 1.55613281 6.68484375 1.79976563 7.6171875 2.05078125 C10 3 10 3 12 6 C12.99 6.66 13.98 7.32 15 8 C9.06997733 8.37851209 4.52760359 7.10575375 -1 5 C-1 4.34 -1 3.68 -1 3 C-1.66 2.67 -2.32 2.34 -3 2 C-2.01 2 -1.02 2 0 2 C0 1.34 0 0.68 0 0 Z " fill="#C0953E" transform="translate(467,300)"/>
<path d="M0 0 C0 1.98 0 3.96 0 6 C0.66 6.33 1.32 6.66 2 7 C2.99 8.485 2.99 8.485 4 10 C3.01 10 2.02 10 1 10 C1 10.66 1 11.32 1 12 C-0.65 12.33 -2.3 12.66 -4 13 C-4.144375 12.2575 -4.28875 11.515 -4.4375 10.75 C-4.90187492 8.47972261 -5.41863569 6.24240521 -6 4 C-4.68 4 -3.36 4 -2 4 C-2 3.34 -2 2.68 -2 2 C-2.99 1.67 -3.98 1.34 -5 1 C-1.125 0 -1.125 0 0 0 Z " fill="#E1B757" transform="translate(384,298)"/>
<path d="M0 0 C1.485 0.99 1.485 0.99 3 2 C5.15274948 1.69159401 5.15274948 1.69159401 7 1 C6.2117229 7.30621681 3.44384843 12.55615157 -1 17 C-0.67 11.39 -0.34 5.78 0 0 Z " fill="#D7AA4A" transform="translate(361,392)"/>
<path d="M0 0 C0.33 0 0.66 0 1 0 C1.19445774 4.78266114 1.37279341 9.5655735 1.53710938 14.34936523 C1.59500604 15.97191936 1.65707674 17.59433074 1.72363281 19.21655273 C2.09717301 28.39375616 2.29269367 37.01179627 0 46 C-0.33 46 -0.66 46 -1 46 C-1.15600716 30.64196151 -0.6805973 15.34240085 0 0 Z " fill="#EFC977" transform="translate(343,350)"/>
<path d="M0 0 C12.66970387 -0.18451025 12.66970387 -0.18451025 18 1 C17.01 1.66 16.02 2.32 15 3 C14.34 3.66 13.68 4.32 13 5 C12.01 5.33 11.02 5.66 10 6 C10 5.34 10 4.68 10 4 C7.69 4.33 5.38 4.66 3 5 C3.33 3.68 3.66 2.36 4 1 C2.68 0.67 1.36 0.34 0 0 Z " fill="#D5B255" transform="translate(249,234)"/>
<path d="M0 0 C1 2 1 2 1 5 C3.31 5 5.62 5 8 5 C8 5.66 8 6.32 8 7 C7.34 7 6.68 7 6 7 C5.67 7.99 5.34 8.98 5 10 C2.36 9.67 -0.28 9.34 -3 9 C-3 7.68 -3 6.36 -3 5 C-3.66 4.67 -4.32 4.34 -5 4 C-4.34 4 -3.68 4 -3 4 C-3 3.34 -3 2.68 -3 2 C-2.01 1.34 -1.02 0.68 0 0 Z " fill="#EFDCA2" transform="translate(251,348)"/>
<path d="M0 0 C7.75 -0.125 7.75 -0.125 10 1 C9.67 2.32 9.34 3.64 9 5 C1.08 5 -6.84 5 -15 5 C-15 4.67 -15 4.34 -15 4 C-13.17662109 3.90912109 -13.17662109 3.90912109 -11.31640625 3.81640625 C-9.73175772 3.73201668 -8.14712298 3.6473679 -6.5625 3.5625 C-5.76005859 3.52318359 -4.95761719 3.48386719 -4.13085938 3.44335938 C-0.24760439 3.5945704 -0.24760439 3.5945704 3 2 C2.01 1.34 1.02 0.68 0 0 Z " fill="#E5E1B6" transform="translate(239,385)"/>
<path d="M0 0 C2.64 0 5.28 0 8 0 C8.96661363 3.12180401 8.98988909 5.52083795 8.5625 8.75 C8.46066406 9.54921875 8.35882813 10.3484375 8.25390625 11.171875 C8.17011719 11.77515625 8.08632812 12.3784375 8 13 C7.01 13.33 6.02 13.66 5 14 C5.020625 12.906875 5.04125 11.81375 5.0625 10.6875 C4.99248762 6.55676953 4.77659889 4.82366549 1.9375 1.8125 C1.298125 1.214375 0.65875 0.61625 0 0 Z " fill="#F3EDBD" transform="translate(192,235)"/>
<path d="M0 0 C-0.515625 0.4125 -1.03125 0.825 -1.5625 1.25 C-2.036875 1.8275 -2.51125 2.405 -3 3 C-2.77242269 5.16299211 -2.77242269 5.16299211 -2 7 C-5.73487777 6.5020163 -7.81237635 6.12508244 -11 4 C-13.11280345 3.36707617 -13.11280345 3.36707617 -15 3 C-13.25531628 2.29911844 -11.50398839 1.61475991 -9.75 0.9375 C-8.77546875 0.55464844 -7.8009375 0.17179687 -6.796875 -0.22265625 C-3.95992605 -1.01113787 -2.70590448 -1.02437812 0 0 Z " fill="#D0B46B" transform="translate(289,336)"/>
<path d="M0 0 C8.57142857 -0.14285714 8.57142857 -0.14285714 12 1 C11.34 2.32 10.68 3.64 10 5 C6.04 4.67 2.08 4.34 -2 4 C-1.34 2.68 -0.68 1.36 0 0 Z " fill="#EBC866" transform="translate(241,234)"/>
<path d="M0 0 C3.96 0.33 7.92 0.66 12 1 C9 4 9 4 6.36450195 4.34057617 C5.33284912 4.32486572 4.30119629 4.30915527 3.23828125 4.29296875 C2.12001953 4.28330078 1.00175781 4.27363281 -0.15039062 4.26367188 C-1.31763672 4.23853516 -2.48488281 4.21339844 -3.6875 4.1875 C-4.86634766 4.17396484 -6.04519531 4.16042969 -7.25976562 4.14648438 C-10.17363411 4.11109326 -13.08658945 4.06171809 -16 4 C-16 3.67 -16 3.34 -16 3 C-10.72 3 -5.44 3 0 3 C0 2.01 0 1.02 0 0 Z " fill="#FBF4CB" transform="translate(232,385)"/>
<path d="M0 0 C-1.134375 0.433125 -2.26875 0.86625 -3.4375 1.3125 C-5.2009375 2.1478125 -5.2009375 2.1478125 -7 3 C-7.33 3.99 -7.66 4.98 -8 6 C-12.29 6 -16.58 6 -21 6 C-17.75881841 3.83921227 -14.71790415 2.65115273 -11.0625 1.3125 C-9.83660156 0.85488281 -8.61070312 0.39726562 -7.34765625 -0.07421875 C-4.22378307 -0.93811367 -2.92750001 -1.21062031 0 0 Z " fill="#C3A552" transform="translate(374,330)"/>
<path d="M0 0 C4.29 0 8.58 0 13 0 C14.4783226 2.95664519 14.06032783 5.74229737 14 9 C11 8 11 8 9.25 5.5625 C6.43238415 2.35354861 4.10856208 1.8691189 0 1 C0 0.67 0 0.34 0 0 Z " fill="#E6C56B" transform="translate(330,238)"/>
<path d="M0 0 C6.93 0.33 13.86 0.66 21 1 C21 1.33 21 1.66 21 2 C17.37 2 13.74 2 10 2 C10 2.66 10 3.32 10 4 C8.7934375 3.9690625 8.7934375 3.9690625 7.5625 3.9375 C5.06645115 3.70366379 5.06645115 3.70366379 4 5 C2.00041636 5.04080783 -0.00045254 5.04254356 -2 5 C-2.33 4.34 -2.66 3.68 -3 3 C-0.03 3.495 -0.03 3.495 3 4 C3 3.34 3 2.68 3 2 C2.01 1.34 1.02 0.68 0 0 Z " fill="#0E0C0A" transform="translate(246,378)"/>
<path d="M0 0 C0 11.88 0 23.76 0 36 C-0.33 36 -0.66 36 -1 36 C-1.33 25.77 -1.66 15.54 -2 5 C-2.66 5 -3.32 5 -4 5 C-4 3.68 -4 2.36 -4 1 C-2 0 -2 0 0 0 Z " fill="#322C26" transform="translate(342,351)"/>
<path d="M0 0 C1.305239 3.91571701 0.32239848 5.03892997 -1.4375 8.6875 C-1.91058594 9.68136719 -2.38367188 10.67523438 -2.87109375 11.69921875 C-3.42990234 12.83810547 -3.42990234 12.83810547 -4 14 C-6.02350324 10.96474514 -6.32124018 9.80573798 -6.625 6.3125 C-6.69976562 5.50425781 -6.77453125 4.69601562 -6.8515625 3.86328125 C-6.90054687 3.24839844 -6.94953125 2.63351562 -7 2 C-4 3 -4 3 -3 5 C-2.67 4.01 -2.34 3.02 -2 2 C-1.34 2 -0.68 2 0 2 C0 1.34 0 0.68 0 0 Z " fill="#B9913E" transform="translate(295,282)"/>
<path d="M0 0 C1.0194119 0.98020375 2.02246356 1.97803008 3 3 C2.67 3.66 2.34 4.32 2 5 C-1.3 4.67 -4.6 4.34 -8 4 C-8 3.34 -8 2.68 -8 2 C-10.31 2.33 -12.62 2.66 -15 3 C-12.04808566 1.03205711 -10.34507977 0.47996408 -6.9375 -0.1875 C-6.05964844 -0.36667969 -5.18179687 -0.54585938 -4.27734375 -0.73046875 C-2 -1 -2 -1 0 0 Z " fill="#DABF74" transform="translate(280,340)"/>
<path d="M0 0 C1.60332791 -0.08121924 3.20784026 -0.13929134 4.8125 -0.1875 C6.15248047 -0.23970703 6.15248047 -0.23970703 7.51953125 -0.29296875 C10.41647515 0.04918998 11.22555028 0.75393573 13 3 C10.00519083 3.8723412 7.36424089 4.10829766 4.25 4.0625 C3.45078125 4.05347656 2.6515625 4.04445312 1.828125 4.03515625 C1.22484375 4.02355469 0.6215625 4.01195312 0 4 C0 2.68 0 1.36 0 0 Z " fill="#E7BF66" transform="translate(321,234)"/>
<path d="M0 0 C0.33 0 0.66 0 1 0 C1.30993348 4.54569102 0.97680153 6.565229 -2 10 C-3.61721067 12.83708881 -3.61721067 12.83708881 -4 16 C-6.97 15.505 -6.97 15.505 -10 15 C-9.61328125 14.5875 -9.2265625 14.175 -8.828125 13.75 C-4.94262217 9.4413236 -2.40726392 5.2774632 0 0 Z " fill="#C69D45" transform="translate(267,295)"/>
<path d="M0 0 C1.32 0.33 2.64 0.66 4 1 C4 1.66 4 2.32 4 3 C5.13179687 2.96519531 6.26359375 2.93039063 7.4296875 2.89453125 C8.91144353 2.86639664 10.39321556 2.83909613 11.875 2.8125 C12.99455078 2.77479492 12.99455078 2.77479492 14.13671875 2.73632812 C16.3046875 2.70703125 16.3046875 2.70703125 20 3 C20.99 4.485 20.99 4.485 22 6 C18.37506666 6.05787784 14.75025143 6.0935542 11.125 6.125 C10.09246094 6.14175781 9.05992187 6.15851563 7.99609375 6.17578125 C7.00996094 6.18222656 6.02382812 6.18867188 5.0078125 6.1953125 C3.64100342 6.21102295 3.64100342 6.21102295 2.24658203 6.22705078 C0 6 0 6 -2 4 C-1.34 2.68 -0.68 1.36 0 0 Z " fill="#C9A857" transform="translate(226,239)"/>
<path d="M0 0 C2.94194821 2.73905523 5.33889284 5.30865076 7 9 C6.1875 11.3125 6.1875 11.3125 5 13 C4.67 12.34 4.34 11.68 4 11 C2.68 10.34 1.36 9.68 0 9 C0 6.03 0 3.06 0 0 Z " fill="#BA8D42" transform="translate(288,247)"/>
<path d="M0 0 C4.29 0 8.58 0 13 0 C13 0.33 13 0.66 13 1 C15.31 1.33 17.62 1.66 20 2 C20 2.33 20 2.66 20 3 C13.73 3 7.46 3 1 3 C0.67 2.01 0.34 1.02 0 0 Z " fill="#F0E3B4" transform="translate(261,374)"/>
<path d="M0 0 C0.66 0 1.32 0 2 0 C2.33 0.66 2.66 1.32 3 2 C5.52733235 2.65555119 5.52733235 2.65555119 8 3 C6.30820672 5.04219706 5.36272334 5.91793306 2.73828125 6.51171875 C1.93777344 6.56972656 1.13726562 6.62773437 0.3125 6.6875 C-0.49574219 6.75324219 -1.30398438 6.81898438 -2.13671875 6.88671875 C-3.05904297 6.94279297 -3.05904297 6.94279297 -4 7 C-4.33 6.34 -4.66 5.68 -5 5 C-4.01 5 -3.02 5 -2 5 C-1.34 3.35 -0.68 1.7 0 0 Z " fill="#E5E1B3" transform="translate(285,369)"/>
<path d="M0 0 C3.96 0 7.92 0 12 0 C12 0.33 12 0.66 12 1 C9.03 1 6.06 1 3 1 C3 2.32 3 3.64 3 5 C6.63 5 10.26 5 14 5 C14 5.33 14 5.66 14 6 C11.87506859 6.02693575 9.75004088 6.04636628 7.625 6.0625 C6.44164062 6.07410156 5.25828125 6.08570313 4.0390625 6.09765625 C1 6 1 6 -1 5 C-0.67 3.35 -0.34 1.7 0 0 Z " fill="#AD9A67" transform="translate(236,315)"/>
<path d="M0 0 C0.66 0.33 1.32 0.66 2 1 C2 1.66 2 2.32 2 3 C2.99 3.66 3.98 4.32 5 5 C1.17010894 6.80230168 -1.78121808 7.19622241 -6 7 C-5.8125 5.1875 -5.8125 5.1875 -5 3 C-2.5625 1.1875 -2.5625 1.1875 0 0 Z " fill="#C8AB5E" transform="translate(317,436)"/>
<path d="M0 0 C3.96 0 7.92 0 12 0 C12 0.99 12 1.98 12 3 C8.0186217 4.3271261 4.14954773 4.06915913 0 4 C0 2.68 0 1.36 0 0 Z " fill="#E8CA7A" transform="translate(176,234)"/>
<path d="M0 0 C4.455 0.99 4.455 0.99 9 2 C9 2.99 9 3.98 9 5 C4.31034294 6.11658501 1.46236469 5.80619523 -3 4 C-1.68 3.34 -0.36 2.68 1 2 C0.67 1.34 0.34 0.68 0 0 Z " fill="#EED699" transform="translate(180,344)"/>
<path d="M0 0 C1.8125 0.875 1.8125 0.875 2.8125 2.875 C2.1525 3.535 1.4925 4.195 0.8125 4.875 C0.8125 5.535 0.8125 6.195 0.8125 6.875 C-1.8275 7.205 -4.4675 7.535 -7.1875 7.875 C-6.5275 7.545 -5.8675 7.215 -5.1875 6.875 C-5.5175 5.885 -5.8475 4.895 -6.1875 3.875 C-2.76553468 -0.15803055 -2.76553468 -0.15803055 0 0 Z " fill="#28231D" transform="translate(201.1875,339.125)"/>
<path d="M0 0 C-1.76641683 0.6987693 -3.53832664 1.38366583 -5.3125 2.0625 C-6.79169922 2.63677734 -6.79169922 2.63677734 -8.30078125 3.22265625 C-11 4 -11 4 -14 3 C-13.34 2.67 -12.68 2.34 -12 2 C-12 1.01 -12 0.02 -12 -1 C-3.96428571 -2.33928571 -3.96428571 -2.33928571 0 0 Z " fill="#221912" transform="translate(367,331)"/>
<path d="M0 0 C0.66 0.66 1.32 1.32 2 2 C4.06874034 2.6425235 4.06874034 2.6425235 6 3 C4.37750059 3.83819158 2.75191503 4.6704116 1.125 5.5 C-0.23238281 6.19609375 -0.23238281 6.19609375 -1.6171875 6.90625 C-4 8 -4 8 -6 8 C-6 6.68 -6 5.36 -6 4 C-4.68 4 -3.36 4 -2 4 C-2 3.01 -2 2.02 -2 1 C-1.34 0.67 -0.68 0.34 0 0 Z " fill="#D4B567" transform="translate(326,328)"/>
<path d="M0 0 C1.08667969 0.01804687 2.17335937 0.03609375 3.29296875 0.0546875 C4.54013672 0.08949219 4.54013672 0.08949219 5.8125 0.125 C6.875 1.9375 6.875 1.9375 7.8125 4.125 C7.4825 5.115 7.1525 6.105 6.8125 7.125 C6.1525 6.795 5.4925 6.465 4.8125 6.125 C5.1425 5.135 5.4725 4.145 5.8125 3.125 C0.8625 2.795 -4.0875 2.465 -9.1875 2.125 C-5.66070901 -0.22619399 -4.15870515 -0.08943452 0 0 Z " fill="#1E1916" transform="translate(243.1875,382.875)"/>
<path d="M0 0 C-2.0753682 0.89372793 -4.16067006 1.76441696 -6.25 2.625 C-7.41015625 3.11226563 -8.5703125 3.59953125 -9.765625 4.1015625 C-13 5 -13 5 -15.421875 4.1484375 C-15.94265625 3.76945312 -16.4634375 3.39046875 -17 3 C-15.68 2.67 -14.36 2.34 -13 2 C-13 1.34 -13 0.68 -13 0 C-11.88625 0.020625 -10.7725 0.04125 -9.625 0.0625 C-0.32608696 -0.09782609 -0.32608696 -0.09782609 0 0 Z " fill="#D0B56B" transform="translate(300,345)"/>
<path d="M0 0 C5.44876003 1.72066106 10.71169451 3.84705349 16 6 C15.01 6.495 15.01 6.495 14 7 C14 7.66 14 8.32 14 9 C10.40241608 7.67726488 7.36262865 6.0805802 4.1875 3.9375 C3.39730469 3.41027344 2.60710937 2.88304687 1.79296875 2.33984375 C1.20128906 1.89769531 0.60960937 1.45554687 0 1 C0 0.67 0 0.34 0 0 Z " fill="#B8A271" transform="translate(145,330)"/>
<path d="M0 0 C0.99 0 1.98 0 3 0 C2.67 1.98 2.34 3.96 2 6 C1.34 6 0.68 6 0 6 C-0.33 6.99 -0.66 7.98 -1 9 C-1.99 9 -2.98 9 -4 9 C-3.67 6.69 -3.34 4.38 -3 2 C-2.01 2 -1.02 2 0 2 C0 1.34 0 0.68 0 0 Z " fill="#E9C46B" transform="translate(331,425)"/>
<path d="M0 0 C2.09749995 2.35968744 2.96905704 3.54616994 3.1875 6.75 C3.125625 7.4925 3.06375 8.235 3 9 C1.35 9.66 -0.3 10.32 -2 11 C-1 3.57142857 -1 3.57142857 0 0 Z " fill="#F1CB72" transform="translate(341,400)"/>
<path d="M0 0 C6.94485303 -0.48452463 13.2990368 1.30712509 20 3 C16.77208445 5.1519437 15.71599191 5.20086443 12 5 C12 4.67 12 4.34 12 4 C6.06 2.515 6.06 2.515 0 1 C0 0.67 0 0.34 0 0 Z " fill="#AF8940" transform="translate(436,293)"/>
<path d="M0 0 C2.125 0.9375 2.125 0.9375 4 2 C4 2.99 4 3.98 4 5 C4.66 5.33 5.32 5.66 6 6 C3 7 3 7 -0.1875 5.5625 C-1.115625 5.046875 -2.04375 4.53125 -3 4 C-2.67 3.01 -2.34 2.02 -2 1 C-1.34 0.67 -0.68 0.34 0 0 Z " fill="#1B1716" transform="translate(155,329)"/>
<path d="M0 0 C0.99 0.66 1.98 1.32 3 2 C3.1875 5.125 3.1875 5.125 3 8 C-2.75 7.25 -2.75 7.25 -5 5 C-4.34 5 -3.68 5 -3 5 C-3 4.34 -3 3.68 -3 3 C-2.01 3 -1.02 3 0 3 C0 2.01 0 1.02 0 0 Z " fill="#DEB85C" transform="translate(253,240)"/>
<path d="M0 0 C0.33 0 0.66 0 1 0 C1.28571429 7.42857143 1.28571429 7.42857143 -1 11 C-1 10.34 -1 9.68 -1 9 C-1.99 9 -2.98 9 -4 9 C-4 9.66 -4 10.32 -4 11 C-4.66 11 -5.32 11 -6 11 C-4.18690997 7.22272911 -2.0926741 3.62730178 0 0 Z " fill="#D3B56B" transform="translate(335,416)"/>
<path d="M0 0 C1.65 0.33 3.3 0.66 5 1 C5 1.99 5 2.98 5 4 C4.01 4.33 3.02 4.66 2 5 C2 5.66 2 6.32 2 7 C0.68 6.67 -0.64 6.34 -2 6 C-1.49396008 3.83125748 -1.00016187 2.00032373 0 0 Z " fill="#1E1515" transform="translate(361,407)"/>
<path d="M0 0 C2.64 0 5.28 0 8 0 C7.01 0.495 7.01 0.495 6 1 C5.67 1.99 5.34 2.98 5 4 C5.66 4.66 6.32 5.32 7 6 C4.69 6.66 2.38 7.32 0 8 C-0.66 7.34 -1.32 6.68 -2 6 C-0.68 6 0.64 6 2 6 C2 4.68 2 3.36 2 2 C1.34 1.34 0.68 0.68 0 0 Z " fill="#BD902D" transform="translate(374,328)"/>
<path d="M0 0 C2.10353495 -0.0810206 4.20795952 -0.13919907 6.3125 -0.1875 C7.48425781 -0.22230469 8.65601563 -0.25710938 9.86328125 -0.29296875 C13 0 13 0 14.91796875 1.51171875 C15.27503906 2.00285156 15.63210937 2.49398438 16 3 C10.22192976 3.2358396 5.48675196 2.86783046 0 1 C0 0.67 0 0.34 0 0 Z " fill="#B6A37D" transform="translate(239,375)"/>
<path d="M0 0 C2.475 0.495 2.475 0.495 5 1 C5 1.66 5 2.32 5 3 C5.99 3 6.98 3 8 3 C8.33 3.99 8.66 4.98 9 6 C6.36 6 3.72 6 1 6 C0.67 4.02 0.34 2.04 0 0 Z " fill="#DEAF45" transform="translate(257,310)"/>
<path d="M0 0 C0.99 0.33 1.98 0.66 3 1 C3 3.97 3 6.94 3 10 C2.01 10 1.02 10 0 10 C-1.231394 6.30581799 -0.64432764 3.7943739 0 0 Z " fill="#1F1815" transform="translate(194,245)"/>
<path d="M0 0 C0.33 0 0.66 0 1 0 C1 1.65 1 3.3 1 5 C1.66 5 2.32 5 3 5 C2.67 7.64 2.34 10.28 2 13 C0.68 12.67 -0.64 12.34 -2 12 C-1.34 8.04 -0.68 4.08 0 0 Z " fill="#DED5A1" transform="translate(196,371)"/>
<path d="M0 0 C2.31 0.33 4.62 0.66 7 1 C7 1.66 7 2.32 7 3 C6.195625 3.12375 5.39125 3.2475 4.5625 3.375 C3.2940625 3.684375 3.2940625 3.684375 2 4 C1.67 4.66 1.34 5.32 1 6 C-0.32 5.34 -1.64 4.68 -3 4 C-2.01 4 -1.02 4 0 4 C0 2.68 0 1.36 0 0 Z " fill="#EFE0A4" transform="translate(192,347)"/>
<path d="M0 0 C4.77609498 1.64178265 8.79382904 4.26546702 13 7 C12.01 7.495 12.01 7.495 11 8 C8.92803369 7.26821134 6.8891448 6.44100997 4.875 5.5625 C3.77929688 5.08941406 2.68359375 4.61632812 1.5546875 4.12890625 C0.71164062 3.75636719 -0.13140625 3.38382812 -1 3 C-0.67 2.01 -0.34 1.02 0 0 Z " fill="#8E7C4D" transform="translate(496,313)"/>
<path d="M0 0 C1.32 0.66 2.64 1.32 4 2 C2 5 2 5 -1 6 C-1 6.99 -1 7.98 -1 9 C-1.66 9 -2.32 9 -3 9 C-3.75 6.75 -3.75 6.75 -4 4 C-2.0625 1.6875 -2.0625 1.6875 0 0 Z " fill="#241B18" transform="translate(351,419)"/>
<path d="M0 0 C0.33 0 0.66 0 1 0 C1 3.63 1 7.26 1 11 C1.66 11 2.32 11 3 11 C3 11.66 3 12.32 3 13 C2.01 13 1.02 13 0 13 C-0.33 14.98 -0.66 16.96 -1 19 C-2.45839897 15.04294544 -1.67906093 11.30168612 -1.0625 7.25 C-0.96259766 6.55261719 -0.86269531 5.85523438 -0.75976562 5.13671875 C-0.51334127 3.42348274 -0.25759045 1.71159275 0 0 Z " fill="#C8AD73" transform="translate(341,387)"/>
<path d="M0 0 C0.33 1.32 0.66 2.64 1 4 C-1.64 4 -4.28 4 -7 4 C-7 3.01 -7 2.02 -7 1 C-4.53721199 -0.231394 -2.7204945 -0.07159196 0 0 Z " fill="#EECC7D" transform="translate(303,364)"/>
<path d="M0 0 C-1.32 1.32 -2.64 2.64 -4 4 C-5.32 3.34 -6.64 2.68 -8 2 C-8 2.66 -8 3.32 -8 4 C-9.32 3.67 -10.64 3.34 -12 3 C-10.75823305 2.29773859 -9.50614401 1.61370891 -8.25 0.9375 C-7.20585937 0.36322266 -7.20585937 0.36322266 -6.140625 -0.22265625 C-3.63859372 -1.1312406 -2.4667645 -0.88336837 0 0 Z M-6 4 C-4 5 -4 5 -4 5 Z " fill="#DAB973" transform="translate(344,342)"/>
<path d="M0 0 C0.33 0.66 0.66 1.32 1 2 C1.99 2.66 2.98 3.32 4 4 C-1.4185766 4.22577402 -5.77487721 3.46670113 -11 2 C-11 1.67 -11 1.34 -11 1 C-7.27569643 0.30710631 -3.78916254 -0.11144596 0 0 Z " fill="#CA9A34" transform="translate(478,304)"/>
<path d="M0 0 C2.64 0 5.28 0 8 0 C8.625 2.3125 8.625 2.3125 9 5 C8.01 6.485 8.01 6.485 7 8 C6.6596875 7.071875 6.6596875 7.071875 6.3125 6.125 C4.62070165 3.38589791 3.00755839 2.94975528 0 2 C0 1.34 0 0.68 0 0 Z " fill="#DED7AC" transform="translate(189,238)"/>
<path d="M0 0 C0.33 0.99 0.66 1.98 1 3 C-0.4375 5.1875 -0.4375 5.1875 -2 7 C-3.98 6.01 -5.96 5.02 -8 4 C-5.33440687 2.22293791 -2.9719385 1.12451727 0 0 Z " fill="#231919" transform="translate(306,368)"/>
<path d="M0 0 C3.73487777 0.4979837 5.81237635 0.87491756 9 3 C8.01 3 7.02 3 6 3 C5.67 3.99 5.34 4.98 5 6 C2.5 4.6875 2.5 4.6875 0 3 C0 2.01 0 1.02 0 0 Z " fill="#CEB77C" transform="translate(159,337)"/>
<path d="M0 0 C0 0.66 0 1.32 0 2 C-1.6232687 2.6708712 -3.24867578 3.33657029 -4.875 4 C-6.23238281 4.556875 -6.23238281 4.556875 -7.6171875 5.125 C-10 6 -10 6 -12 6 C-12 4.68 -12 3.36 -12 2 C-9.03 2.495 -9.03 2.495 -6 3 C-6 2.34 -6 1.68 -6 1 C-3.92446352 0.4465236 -2.15634036 0 0 0 Z " fill="#DBB971" transform="translate(370,313)"/>
<path d="M0 0 C2.31 0.33 4.62 0.66 7 1 C7 1.66 7 2.32 7 3 C1.91913204 3.84681133 -2.84828377 4.09038099 -8 4 C-8 3.67 -8 3.34 -8 3 C-5.36 2.67 -2.72 2.34 0 2 C0 1.34 0 0.68 0 0 Z " fill="#F5E3AE" transform="translate(200,385)"/>
<path d="M0 0 C4.29 0.33 8.58 0.66 13 1 C8.5 4.375 8.5 4.375 4.25 4.1875 C3.05117187 4.14689453 3.05117187 4.14689453 1.828125 4.10546875 C1.22484375 4.07066406 0.6215625 4.03585937 0 4 C0.66 3.67 1.32 3.34 2 3 C2 2.34 2 1.68 2 1 C1.34 0.67 0.68 0.34 0 0 Z " fill="#D3C99A" transform="translate(197,347)"/>
<path d="M0 0 C5.66153846 1.47692308 5.66153846 1.47692308 7.375 4.125 C7.684375 5.053125 7.684375 5.053125 8 6 C5.3333581 7.33332095 3.83319697 6.67102033 1 6 C1 5.01 1 4.02 1 3 C0.67 2.01 0.34 1.02 0 0 Z " fill="#BD913D" transform="translate(478,304)"/>
<path d="M0 0 C0.33 0 0.66 0 1 0 C1.19645093 3.12450532 1.38063489 6.24961445 1.5625 9.375 C1.61857422 10.26445312 1.67464844 11.15390625 1.73242188 12.0703125 C1.78076172 12.92109375 1.82910156 13.771875 1.87890625 14.6484375 C1.9260376 15.43395996 1.97316895 16.21948242 2.02172852 17.02880859 C2 19 2 19 1 21 C0.34 21 -0.32 21 -1 21 C-0.67 14.07 -0.34 7.14 0 0 Z " fill="#372D0D" transform="translate(297,265)"/>
<path d="M0 0 C0.99 0.66 1.98 1.32 3 2 C2.01 2.33 1.02 2.66 0 3 C-0.33 3.99 -0.66 4.98 -1 6 C-3.475 5.01 -3.475 5.01 -6 4 C-4.03617993 2.49440461 -2.21736634 1.10868317 0 0 Z " fill="#261917" transform="translate(323,360)"/>
<path d="M0 0 C-0.33 1.32 -0.66 2.64 -1 4 C-3.64 4.33 -6.28 4.66 -9 5 C-8.67 4.01 -8.34 3.02 -8 2 C-5.10441559 0.5522078 -3.25811062 0 0 0 Z " fill="#DEC894" transform="translate(265,353)"/>
<path d="M0 0 C1.1875 2.05078125 1.1875 2.05078125 2 4 C0.51882199 3.71872579 -0.95993249 3.42466268 -2.4375 3.125 C-3.26121094 2.96257812 -4.08492187 2.80015625 -4.93359375 2.6328125 C-5.61550781 2.42398437 -6.29742187 2.21515625 -7 2 C-7.33 1.34 -7.66 0.68 -8 0 C-5.04063954 -1.47968023 -3.13239866 -0.84835797 0 0 Z " fill="#231D15" transform="translate(178,339)"/>
<path d="M0 0 C1.11375 0.598125 2.2275 1.19625 3.375 1.8125 C4.00148438 2.14894531 4.62796875 2.48539063 5.2734375 2.83203125 C7 4 7 4 9 7 C8.01 7.33 7.02 7.66 6 8 C5.67 7.01 5.34 6.02 5 5 C2.98491642 4.26676204 2.98491642 4.26676204 1 4 C0.67 2.68 0.34 1.36 0 0 Z " fill="#B78E39" transform="translate(279,240)"/>
<path d="M0 0 C0.66 0.33 1.32 0.66 2 1 C1.67 2.32 1.34 3.64 1 5 C-1.97 5 -4.94 5 -8 5 C-5.45378681 2.99940392 -3.01962385 1.20784954 0 0 Z " fill="#CAB06A" transform="translate(313,355)"/>
<path d="M0 0 C-5.36439644 2.68219822 -9.01006953 3.3152595 -15 3 C-10.42919136 0.44034716 -5.14097791 -2.05639116 0 0 Z " fill="#0F0C09" transform="translate(280,354)"/>
<path d="M0 0 C0 1.98 0 3.96 0 6 C-0.66 6 -1.32 6 -2 6 C-2.33 5.34 -2.66 4.68 -3 4 C-5.52733235 3.34444881 -5.52733235 3.34444881 -8 3 C-4.93882432 0.37613513 -4.26826873 0 0 0 Z " fill="#D7B66A" transform="translate(352,337)"/>
<path d="M0 0 C0.33 0 0.66 0 1 0 C1.66 3.3 2.32 6.6 3 10 C4.32 10.33 5.64 10.66 7 11 C5.1875 11.6875 5.1875 11.6875 3 12 C0.98141988 10.57951769 0.16383026 9.40957566 -0.75 7.125 C-1.05204823 4.55759 -0.62375908 2.49503633 0 0 Z " fill="#201C1A" transform="translate(228,372)"/>
<path d="M0 0 C3.3 0 6.6 0 10 0 C7.3144406 2.6855594 4.62378672 3.06049974 1 4 C0.67 2.68 0.34 1.36 0 0 Z " fill="#D5C58B" transform="translate(296,368)"/>
<path d="M0 0 C-2.29576678 2.29576678 -3.90346249 3.0638375 -7 4 C-9.8125 3.625 -9.8125 3.625 -12 3 C-7.97869817 0.31913211 -4.73968522 -1.57989507 0 0 Z " fill="#CDC4A1" transform="translate(294,366)"/>
<path d="M0 0 C2.31 0 4.62 0 7 0 C7.33 1.32 7.66 2.64 8 4 C5.125 3.6875 5.125 3.6875 2 3 C1.34 2.01 0.68 1.02 0 0 Z " fill="#E8C264" transform="translate(342,340)"/>
<path d="M0 0 C0.99 0.33 1.98 0.66 3 1 C3 1.99 3 2.98 3 4 C2.01 4 1.02 4 0 4 C0 6.97 0 9.94 0 13 C-0.33 13 -0.66 13 -1 13 C-1.02686553 11.02090602 -1.04633375 9.04171029 -1.0625 7.0625 C-1.07410156 5.96035156 -1.08570313 4.85820312 -1.09765625 3.72265625 C-1 1 -1 1 0 0 Z " fill="#35230E" transform="translate(372,336)"/>
<path d="M0 0 C0.66 0.33 1.32 0.66 2 1 C1.34 2.32 0.68 3.64 0 5 C-2.64 5 -5.28 5 -8 5 C-5.45378681 2.99940392 -3.01962385 1.20784954 0 0 Z " fill="#CFAD6A" transform="translate(313,323)"/>
<path d="M0 0 C-4.33542505 3.32382587 -6.47141274 4.12018668 -12 4 C-4 -1.33333333 -4 -1.33333333 0 0 Z " fill="#D4B672" transform="translate(338,314)"/>
<path d="M0 0 C-0.99 0 -1.98 0 -3 0 C-3.12375 1.134375 -3.2475 2.26875 -3.375 3.4375 C-3.58125 4.613125 -3.7875 5.78875 -4 7 C-4.99 7.495 -4.99 7.495 -6 8 C-6 5.36 -6 2.72 -6 0 C-3.50907189 -1.24546405 -2.58919267 -0.7767578 0 0 Z " fill="#EAD185" transform="translate(222,236)"/>
<path d="M0 0 C0 0.66 0 1.32 0 2 C-0.99 2 -1.98 2 -3 2 C-3 3.65 -3 5.3 -3 7 C-3.99 6.67 -4.98 6.34 -6 6 C-6 5.67 -6 5.34 -6 5 C-6.66 4.67 -7.32 4.34 -8 4 C-6.4425489 0.88509781 -3.40085499 0 0 0 Z " fill="#CCA962" transform="translate(304,328)"/>
<path d="M0 0 C3.3 0 6.6 0 10 0 C10 1.65 10 3.3 10 5 C6.66666667 3.33333333 3.33333333 1.66666667 0 0 Z " fill="#C9B06E" transform="translate(330,238)"/>
<path d="M0 0 C0.99 0.33 1.98 0.66 3 1 C2.67 2.65 2.34 4.3 2 6 C0.35 5.67 -1.3 5.34 -3 5 C-2.01 3.35 -1.02 1.7 0 0 Z " fill="#DBB95D" transform="translate(320,434)"/>
<path d="M0 0 C-3.37097383 1.49821059 -5.20442119 2 -9 2 C-9.33 1.01 -9.66 0.02 -10 -1 C-5.92224809 -1.9267618 -3.57818963 -2.33958553 0 0 Z " fill="#1D1818" transform="translate(285,378)"/>
<path d="M0 0 C0.66 0 1.32 0 2 0 C1.40138258 2.35171131 0.73075648 4.6859378 0 7 C-0.99 7.495 -0.99 7.495 -2 8 C-2.66 7.34 -3.32 6.68 -4 6 C-3.34 6 -2.68 6 -2 6 C-1.855625 5.195625 -1.71125 4.39125 -1.5625 3.5625 C-1 1 -1 1 0 0 Z " fill="#272218" transform="translate(194,376)"/>
<path d="M0 0 C1 2 1 2 1 5 C0.01 5.495 0.01 5.495 -1 6 C-1 6.66 -1 7.32 -1 8 C-1.66 8 -2.32 8 -3 8 C-3 7.01 -3 6.02 -3 5 C-3.66 4.67 -4.32 4.34 -5 4 C-4.34 4 -3.68 4 -3 4 C-3 3.34 -3 2.68 -3 2 C-2.01 1.34 -1.02 0.68 0 0 Z " fill="#F3E4AA" transform="translate(251,348)"/>
<path d="M0 0 C0.8353125 0.7425 0.8353125 0.7425 1.6875 1.5 C-3.1458472 1.58333357 -7.54942563 1.45261487 -12.3125 0.5 C-12.3125 0.17 -12.3125 -0.16 -12.3125 -0.5 C-3.77816901 -2.45070423 -3.77816901 -2.45070423 0 0 Z " fill="#A6833E" transform="translate(458.3125,303.5)"/>
<path d="M0 0 C3.63 0 7.26 0 11 0 C9.515 1.98 9.515 1.98 8 4 C7.01 3.67 6.02 3.34 5 3 C5.33 2.34 5.66 1.68 6 1 C4.02 1 2.04 1 0 1 C0 0.67 0 0.34 0 0 Z " fill="#E3B860" transform="translate(371,234)"/>
<path d="M0 0 C2.31 0 4.62 0 7 0 C4.06171403 2.50298434 1.82097239 3.46930939 -2 4 C-2 3.34 -2 2.68 -2 2 C-1.34 2 -0.68 2 0 2 C0 1.34 0 0.68 0 0 Z " fill="#CBB172" transform="translate(312,336)"/>
<path d="M0 0 C1.65 0 3.3 0 5 0 C5 0.99 5 1.98 5 3 C2.69 3.33 0.38 3.66 -2 4 C-1.34 2.68 -0.68 1.36 0 0 Z " fill="#BC9134" transform="translate(384,329)"/>
<path d="M0 0 C2.475 0.495 2.475 0.495 5 1 C4.6875 2.9375 4.6875 2.9375 4 5 C3.01 5.33 2.02 5.66 1 6 C0 1.125 0 1.125 0 0 Z " fill="#DDB75F" transform="translate(315,322)"/>
<path d="M0 0 C0.99 0.33 1.98 0.66 3 1 C4.05404945 4.98196457 3.84098656 7.98195309 3 12 C2.67 12 2.34 12 2 12 C1.34 8.04 0.68 4.08 0 0 Z " fill="#1C1A17" transform="translate(265,264)"/>
<path d="M0 0 C1.98 0 3.96 0 6 0 C5.01 0.495 5.01 0.495 4 1 C4 1.66 4 2.32 4 3 C4.66 3.33 5.32 3.66 6 4 C4.02 4 2.04 4 0 4 C0 2.68 0 1.36 0 0 Z " fill="#D3B66D" transform="translate(176,234)"/>
<path d="M0 0 C0.99 0 1.98 0 3 0 C2.39009109 3.55780196 1.4216319 6.6828589 0 10 C-0.33 10 -0.66 10 -1 10 C-1 8.02 -1 6.04 -1 4 C-0.34 4 0.32 4 1 4 C0.67 2.68 0.34 1.36 0 0 Z " fill="#B79746" transform="translate(365,393)"/>
<path d="M0 0 C7.75 -0.125 7.75 -0.125 10 1 C9.67 1.99 9.34 2.98 9 4 C7.68 3.67 6.36 3.34 5 3 C5 2.34 5 1.68 5 1 C3.35 1 1.7 1 0 1 C0 0.67 0 0.34 0 0 Z " fill="#C3BE9E" transform="translate(239,385)"/>
<path d="M0 0 C2.97 0.495 2.97 0.495 6 1 C6 1.99 6 2.98 6 4 C4.35 3.67 2.7 3.34 1 3 C0.67 2.01 0.34 1.02 0 0 Z " fill="#B88C44" transform="translate(490,311)"/>
<path d="M0 0 C-2.62198774 2.15377564 -4.64404172 3.40072174 -8 4 C-8.33 3.01 -8.66 2.02 -9 1 C-5.92677456 0.08941469 -3.19902639 -0.08886184 0 0 Z " fill="#C0983D" transform="translate(274,312)"/>
<path d="M0 0 C1.03348696 3.10046087 1.17755913 4.05610218 0 7 C-0.99 7.33 -1.98 7.66 -3 8 C-3.1875 5.125 -3.1875 5.125 -3 2 C-2.01 1.34 -1.02 0.68 0 0 Z " fill="#C0942E" transform="translate(277,304)"/>
<path d="M0 0 C3.75 1.375 3.75 1.375 7 3 C6.34 3.66 5.68 4.32 5 5 C2.03 4.01 -0.94 3.02 -4 2 C-2.68 1.34 -1.36 0.68 0 0 Z " fill="#251F1C" transform="translate(188,239)"/>
<path d="M0 0 C1.98 0 3.96 0 6 0 C6.33 0.99 6.66 1.98 7 3 C6.01 3.495 6.01 3.495 5 4 C2.375 2.625 2.375 2.625 0 1 C0 0.67 0 0.34 0 0 Z " fill="#F4E8B0" transform="translate(192,235)"/>
<path d="M0 0 C-3.85756507 2.15305957 -6.55129785 3.39253254 -11 3 C-4.23255814 -1.51162791 -4.23255814 -1.51162791 0 0 Z " fill="#C7B27D" transform="translate(304,362)"/>
<path d="M0 0 C0.33 0 0.66 0 1 0 C1.07347656 1.04800781 1.07347656 1.04800781 1.1484375 2.1171875 C1.22320312 3.02726562 1.29796875 3.93734375 1.375 4.875 C1.44460937 5.77992188 1.51421875 6.68484375 1.5859375 7.6171875 C1.79568132 10.17941903 1.79568132 10.17941903 4 12 C2.68 12 1.36 12 0 12 C-1.53166168 7.91556885 -0.63081652 4.20544343 0 0 Z " fill="#EED288" transform="translate(216,328)"/>
<path d="M0 0 C2.31 0.66 4.62 1.32 7 2 C3.77208445 4.1519437 2.71599191 4.20086443 -1 4 C-0.67 2.68 -0.34 1.36 0 0 Z " fill="#1E1716" transform="translate(286,330)"/>
<path d="M0 0 C1.175625 0.5259375 1.175625 0.5259375 2.375 1.0625 C3.674375 1.5265625 3.674375 1.5265625 5 2 C5.66 1.67 6.32 1.34 7 1 C7 1.99 7 2.98 7 4 C6.01 4 5.02 4 4 4 C3.67 4.66 3.34 5.32 3 6 C2.01 4.02 1.02 2.04 0 0 Z " fill="#C59943" transform="translate(262,255)"/>
<path d="M0 0 C1.65 0 3.3 0 5 0 C4.67 1.32 4.34 2.64 4 4 C2.35 3.67 0.7 3.34 -1 3 C-0.67 2.01 -0.34 1.02 0 0 Z " fill="#CFAE63" transform="translate(321,234)"/>
<path d="M0 0 C0.33 0.66 0.66 1.32 1 2 C2.65 1.67 4.3 1.34 6 1 C1.25 5 1.25 5 -1 5 C-0.67 3.35 -0.34 1.7 0 0 Z " fill="#CDAF67" transform="translate(323,435)"/>
<path d="M0 0 C1.98 0 3.96 0 6 0 C3.06171403 2.50298434 0.82097239 3.46930939 -3 4 C-3 3.34 -3 2.68 -3 2 C-2.01 2 -1.02 2 0 2 C0 1.34 0 0.68 0 0 Z " fill="#D0B16F" transform="translate(309,364)"/>
<path d="M0 0 C2.97 0.33 5.94 0.66 9 1 C5.5647952 3.29013653 4.014669 3.17842973 0 3 C0 2.01 0 1.02 0 0 Z " fill="#E0BA6B" transform="translate(248,317)"/>
<path d="M0 0 C-0.99 0.66 -1.98 1.32 -3 2 C-3.66 2.66 -4.32 3.32 -5 4 C-5.99 4.33 -6.98 4.66 -8 5 C-7.625 3.0625 -7.625 3.0625 -7 1 C-4.53721199 -0.231394 -2.7204945 -0.07159196 0 0 Z " fill="#C3A150" transform="translate(267,235)"/>
</svg>
