<?xml version="1.0" encoding="UTF-8"?>
<svg version="1.1" xmlns="http://www.w3.org/2000/svg" width="499" height="499">
<path d="M0 0 C1.04085251 0.02009628 2.08170502 0.04019257 3.15409851 0.06089783 C4.83702751 0.10145042 4.83702751 0.10145042 6.55395508 0.14282227 C7.70390457 0.16643326 8.85385406 0.19004425 10.03865051 0.21437073 C13.71705377 0.29103698 17.39524808 0.37504897 21.07348633 0.45922852 C23.56501251 0.51244621 26.05654894 0.56518663 28.5480957 0.61743164 C34.66085562 0.74665619 40.77345994 0.88191461 46.88598633 1.02172852 C46.88598633 2.34172852 46.88598633 3.66172852 46.88598633 5.02172852 C43.25598633 6.01172852 39.62598633 7.00172852 35.88598633 8.02172852 C33.56169254 17.37559375 33.44679372 26.56603471 33.26098633 36.14672852 C33.22272625 37.78737242 33.18367012 39.42799797 33.14379883 41.06860352 C33.04868312 45.05282619 32.9643403 49.03714241 32.88598633 53.02172852 C33.89918945 52.74748047 34.91239258 52.47323242 35.95629883 52.19067383 C37.30783751 51.82697852 38.65940135 51.46337672 40.01098633 51.09985352 C40.67614258 50.9195459 41.34129883 50.73923828 42.02661133 50.5534668 C72.99696785 42.24156964 105.09547959 47.37281434 132.78442383 63.15454102 C136.31464578 65.27978799 139.63877038 67.48731607 142.88598633 70.02172852 C138.55246491 71.46623565 135.55948456 69.53016837 131.51098633 67.89672852 C124.37764042 65.14341034 117.26538604 62.90699051 109.82348633 61.14672852 C108.55915771 60.8429126 108.55915771 60.8429126 107.26928711 60.53295898 C71.12143206 52.28746322 37.82888398 63.30221902 5.20581055 78.24975586 C-47.50418444 102.33678766 -47.50418444 102.33678766 -73.05151367 102.08422852 C-73.92614258 102.0797168 -74.80077148 102.07520508 -75.7019043 102.07055664 C-77.83930415 102.05887686 -79.9766683 102.04094541 -82.11401367 102.02172852 C-82.02640778 104.08499829 -81.91822094 106.14740011 -81.80151367 108.20922852 C-81.74350586 109.3577832 -81.68549805 110.50633789 -81.62573242 111.68969727 C-81.0661131 115.33363068 -80.55964396 117.25535983 -78.11401367 120.02172852 C-74.71695721 121.05998653 -74.71695721 121.05998653 -70.92651367 121.33422852 C-69.65420898 121.47473633 -68.3819043 121.61524414 -67.07104492 121.76000977 C-65.60731445 121.88956055 -65.60731445 121.88956055 -64.11401367 122.02172852 C-64.11401367 123.34172852 -64.11401367 124.66172852 -64.11401367 126.02172852 C-66.63081241 127.28012789 -68.35807103 127.14871636 -71.17456055 127.15112305 C-72.75630066 127.15585129 -72.75630066 127.15585129 -74.36999512 127.16067505 C-76.08406555 127.1576387 -76.08406555 127.1576387 -77.83276367 127.15454102 C-79.00158081 127.15549774 -80.17039795 127.15645447 -81.37463379 127.15744019 C-83.84944716 127.15812165 -86.32426231 127.15626974 -88.79907227 127.15209961 C-92.5981038 127.14675092 -96.39701709 127.15204579 -100.19604492 127.15844727 C-102.59578477 127.15778648 -104.99552454 127.1565053 -107.39526367 127.15454102 C-108.53797729 127.15656525 -109.68069092 127.15858948 -110.85803223 127.16067505 C-111.91252563 127.15752289 -112.96701904 127.15437073 -114.0534668 127.15112305 C-114.98453247 127.15032745 -115.91559814 127.14953186 -116.87487793 127.14871216 C-119.11401367 127.02172852 -119.11401367 127.02172852 -121.11401367 126.02172852 C-121.11401367 124.70172852 -121.11401367 123.38172852 -121.11401367 122.02172852 C-120.3431543 121.93536133 -119.57229492 121.84899414 -118.77807617 121.76000977 C-117.77518555 121.61950195 -116.77229492 121.47899414 -115.73901367 121.33422852 C-114.7412793 121.20661133 -113.74354492 121.07899414 -112.71557617 120.94750977 C-109.97723042 120.27340423 -109.97723042 120.27340423 -108.80151367 117.95922852 C-107.9212893 114.19826982 -107.65420428 110.56023463 -107.48901367 106.70922852 C-107.4503418 105.96866211 -107.41166992 105.2280957 -107.37182617 104.46508789 C-107.27819663 102.65101543 -107.19504516 100.83640736 -107.11401367 99.02172852 C-108.01120117 98.75360352 -108.90838867 98.48547852 -109.83276367 98.20922852 C-122.99157286 94.07670993 -137.02165682 88.39432479 -148.11401367 80.02172852 C-148.11401367 79.36172852 -148.11401367 78.70172852 -148.11401367 78.02172852 C-143.37408533 78.62236066 -139.44500226 79.9781558 -135.05151367 81.83422852 C-101.29142301 95.63484798 -67.76801331 94.64315793 -34.11401367 81.02172852 C-24.18331695 76.78049346 -14.39032747 72.21522279 -4.63049316 67.59664917 C-0.4940339 65.64297977 3.67281785 63.80139097 7.88598633 62.02172852 C7.9368485 55.456414 7.97178794 48.89115063 7.99584961 42.32568359 C8.00588449 40.09389344 8.0195154 37.86211637 8.03686523 35.63037109 C8.06122394 32.41573859 8.0724948 29.20128048 8.08129883 25.98657227 C8.0916214 24.99463364 8.10194397 24.00269501 8.11257935 22.98069763 C8.11344558 17.58792758 7.67513638 13.11987754 5.88598633 8.02172852 C1.26598633 7.03172852 -3.35401367 6.04172852 -8.11401367 5.02172852 C-8.11401367 3.70172852 -8.11401367 2.38172852 -8.11401367 1.02172852 C-5.0749458 0.00870589 -3.17022514 -0.06908481 0 0 Z " fill="#E8BF66" transform="translate(263.114013671875,184.978271484375)"/>
<path d="M0 0 C1.94090737 0.03066354 3.88192765 0.05491635 5.82299805 0.07244873 C20.50920778 0.21912137 32.867131 0.70090938 43.93029785 11.47994995 C49.7689923 18.20162276 51.33042532 25.24514735 51.20373535 33.9291687 C50.50254106 43.85172937 45.9389017 52.9073337 38.9263916 59.93307495 C26.90470327 69.86497159 15.07920653 71.047126 -0.0032959 70.8588562 C-0.3332959 69.8688562 -0.6632959 68.8788562 -1.0032959 67.8588562 C1.3791896 65.4763707 2.48222108 65.44070577 5.7467041 64.9213562 C9.947724 64.16250145 13.23423635 62.92821347 16.9967041 60.8588562 C17.6567041 60.8588562 18.3167041 60.8588562 18.9967041 60.8588562 C18.9967041 60.1988562 18.9967041 59.5388562 18.9967041 58.8588562 C19.61029785 58.26330933 20.2238916 57.66776245 20.8560791 57.0541687 C25.46735963 52.32508174 27.21869476 45.2924236 27.4342041 38.7963562 C26.99937075 29.94539353 24.30732848 22.21350819 17.9967041 15.8588562 C12.45532673 11.72081465 7.52642742 10.72266356 0.7467041 10.7963562 C-0.33095215 10.80537964 -1.4086084 10.81440308 -2.5189209 10.82369995 C-3.74868652 10.84110229 -3.74868652 10.84110229 -5.0032959 10.8588562 C-6.1477737 19.03652629 -6.1315274 27.1556171 -6.10095215 35.39401245 C-6.09908358 36.88330538 -6.09766175 38.37259893 -6.09666443 39.8618927 C-6.09287379 43.75311017 -6.08307359 47.64428942 -6.07196045 51.53549194 C-6.06167149 55.51762373 -6.05715088 59.49976178 -6.05212402 63.48190308 C-6.04144772 71.27423808 -6.02441354 79.06654175 -6.0032959 86.8588562 C-8.69086545 86.88606444 -11.37815388 86.905795 -14.0657959 86.9213562 C-14.81796387 86.92973511 -15.57013184 86.93811401 -16.34509277 86.94674683 C-17.46174316 86.95158081 -17.46174316 86.95158081 -18.60095215 86.95651245 C-19.61427612 86.96436768 -19.61427612 86.96436768 -20.64807129 86.97238159 C-23.80247918 86.82033436 -26.88366569 86.3366374 -30.0032959 85.8588562 C-30.01360336 84.97015839 -30.02391083 84.08146057 -30.03453064 83.16583252 C-30.13262009 74.77943601 -30.23515056 66.39310797 -30.34263515 58.0068264 C-30.39773459 53.69564663 -30.45113332 49.38445993 -30.50061035 45.07321167 C-30.54844599 40.91049139 -30.60079478 36.74784983 -30.65623665 32.58522415 C-30.6765735 30.99928378 -30.69530043 29.41332189 -30.71236992 27.82734299 C-30.73660698 25.60127772 -30.76663355 23.37535862 -30.79797363 21.14938354 C-30.82129005 19.25076065 -30.82129005 19.25076065 -30.84507751 17.31378174 C-30.95491041 13.41470537 -30.95491041 13.41470537 -32.0032959 7.8588562 C-36.9532959 6.8688562 -41.9032959 5.8788562 -47.0032959 4.8588562 C-47.0032959 3.5388562 -47.0032959 2.2188562 -47.0032959 0.8588562 C-31.33244126 -0.08887376 -15.69311412 -0.26090329 0 0 Z " fill="#C59634" transform="translate(187.0032958984375,185.14114379882813)"/>
<path d="M0 0 C0 0.66 0 1.32 0 2 C-1.41925781 2.12955078 -1.41925781 2.12955078 -2.8671875 2.26171875 C-20.06060048 3.42631351 -20.06060048 3.42631351 -35 10 C-35.05124849 12.03190756 -35.03519036 14.06555746 -34.9921875 16.09765625 C-34.9730127 17.36697998 -34.95383789 18.63630371 -34.93408203 19.9440918 C-34.92362854 20.61725433 -34.91317505 21.29041687 -34.90240479 21.98397827 C-34.62994926 42.64842502 -35.91599446 59.04826227 -50.81640625 74.828125 C-58.02697842 82 -58.02697842 82 -61 82 C-61 82.66 -61 83.32 -61 84 C-63.53804678 85.46495337 -66.08009717 86.92204322 -68.625 88.375 C-69.33785156 88.7875 -70.05070312 89.2 -70.78515625 89.625 C-74.77580578 91.89491074 -78.55729762 93.72465011 -83 95 C-83.66 93.68 -84.32 92.36 -85 91 C-84.27554688 90.50371094 -83.55109375 90.00742187 -82.8046875 89.49609375 C-71.61958014 81.63669164 -65.19981646 74.35348397 -62.28125 60.6171875 C-60.39158064 47.52844823 -60.35635241 34.19952511 -60 21 C-60.48654053 21.26627197 -60.97308105 21.53254395 -61.47436523 21.80688477 C-85.9835779 35.1481418 -108.56631481 44.12140989 -137 43 C-137.66 42.67 -138.32 42.34 -139 42 C-140.32860925 41.64830932 -141.66158328 41.31229724 -143 41 C-143 40.34 -143 39.68 -143 39 C-140.74740352 37.87370176 -139.24274797 37.77730046 -136.73828125 37.60546875 C-112.24250232 35.73277262 -90.07948785 27.98207168 -69.19921875 15.04296875 C-64.03738499 11.91628243 -58.7216502 9.5484094 -53.125 7.3125 C-52.16190918 6.92384766 -51.19881836 6.53519531 -50.20654297 6.13476562 C-43.58130178 3.51015515 -37.03731426 1.24051503 -30 0 C-28.741875 -0.226875 -27.48375 -0.45375 -26.1875 -0.6875 C-17.49572408 -1.58224164 -8.6132194 -1.39673828 0 0 Z " fill="#E3B654" transform="translate(332,260)"/>
<path d="M0 0 C18.48 0 36.96 0 56 0 C56 0.33 56 0.66 56 1 C43.625 1.495 43.625 1.495 31 2 C31.66 3.98 32.32 5.96 33 8 C32.625 10.375 32.625 10.375 32 12 C32.66 12 33.32 12 34 12 C34 35.76 34 59.52 34 84 C26.74 84 19.48 84 12 84 C11.96241577 80.77549072 11.96241577 80.77549072 11.92407227 77.48583984 C11.84049279 70.37316219 11.75182073 63.26055454 11.66066074 56.1479702 C11.60556131 51.83679043 11.55216257 47.52560373 11.50268555 43.21435547 C11.4548499 39.05163519 11.40250112 34.88899363 11.34705925 30.72636795 C11.3267224 29.14042758 11.30799547 27.55446569 11.29092598 25.96848679 C11.26668892 23.74242152 11.23666235 21.51650241 11.20532227 19.29052734 C11.18977798 18.02477875 11.1742337 16.75903015 11.15821838 15.45492554 C11.01014389 12.22150631 10.60806802 9.17577319 10 6 C9.34 6 8.68 6 8 6 C7.566875 5.360625 7.13375 4.72125 6.6875 4.0625 C4.59150148 1.50072404 3.21700528 1.34778436 0 1 C0 0.67 0 0.34 0 0 Z " fill="#E8CA79" transform="translate(145,187)"/>
<path d="M0 0 C4.73992834 0.60063214 8.66901141 1.95642728 13.0625 3.8125 C31.38328792 11.30176373 49.10064622 14.00018076 68.8125 14.8125 C70.01076416 14.86559326 71.20902832 14.91868652 72.44360352 14.97338867 C78.39998268 15.16090821 83.39893606 15.11777454 89 13 C88.01 14.32 87.02 15.64 86 17 C86.495 17.99 86.495 17.99 87 19 C85.578125 20.984375 85.578125 20.984375 83 23 C79.90543827 23.50627389 76.87526825 23.37696402 73.75 23.25 C72.90953125 23.23195313 72.0690625 23.21390625 71.203125 23.1953125 C69.13492605 23.14830798 67.06731559 23.07656724 65 23 C65.25659311 25.23085067 65.53087314 27.45967123 65.8125 29.6875 C65.96332031 30.92886719 66.11414063 32.17023438 66.26953125 33.44921875 C67.01782488 37.08664609 67.54342202 39.21587829 70 42 C73.39705646 43.03825802 73.39705646 43.03825802 77.1875 43.3125 C78.45980469 43.45300781 79.73210937 43.59351563 81.04296875 43.73828125 C82.01878906 43.82464844 82.99460937 43.91101563 84 44 C84 45.32 84 46.64 84 48 C81.48320126 49.25839937 79.75594264 49.12698785 76.93945312 49.12939453 C75.35771301 49.13412277 75.35771301 49.13412277 73.74401855 49.13894653 C72.02994812 49.13591019 72.02994812 49.13591019 70.28125 49.1328125 C69.11243286 49.13376923 67.94361572 49.13472595 66.73937988 49.13571167 C64.26456651 49.13639313 61.78975136 49.13454122 59.31494141 49.13037109 C55.51590988 49.1250224 51.71699658 49.13031728 47.91796875 49.13671875 C45.5182289 49.13605796 43.11848913 49.13477679 40.71875 49.1328125 C39.57603638 49.13483673 38.43332275 49.13686096 37.25598145 49.13894653 C36.20148804 49.13579437 35.14699463 49.13264221 34.06054688 49.12939453 C33.1294812 49.12859894 32.19841553 49.12780334 31.23913574 49.12698364 C29 49 29 49 27 48 C27 46.68 27 45.36 27 44 C27.77085937 43.91363281 28.54171875 43.82726562 29.3359375 43.73828125 C30.33882812 43.59777344 31.34171875 43.45726562 32.375 43.3125 C33.37273437 43.18488281 34.37046875 43.05726563 35.3984375 42.92578125 C38.13678325 42.25167572 38.13678325 42.25167572 39.3125 39.9375 C40.19272437 36.17654131 40.45980939 32.53850612 40.625 28.6875 C40.66367188 27.94693359 40.70234375 27.20636719 40.7421875 26.44335938 C40.83581705 24.62928691 40.91896851 22.81467884 41 21 C40.1028125 20.731875 39.205625 20.46375 38.28125 20.1875 C25.12244081 16.05498141 11.09235685 10.37259628 0 2 C0 1.34 0 0.68 0 0 Z " fill="#E7DDB0" transform="translate(115,263)"/>
<path d="M0 0 C0.33 0 0.66 0 1 0 C0.67 14.19 0.34 28.38 0 43 C4.95 41.68 9.9 40.36 15 39 C46.36849677 32.46489651 78.73983691 39.15819003 105.4765625 56.6171875 C107.01527079 57.70225271 108.51574777 58.84155923 110 60 C105.66647859 61.44450714 102.67349823 59.50843986 98.625 57.875 C91.4916541 55.12168183 84.37939972 52.88526199 76.9375 51.125 C76.09461426 50.92245605 75.25172852 50.71991211 74.38330078 50.51123047 C49.15486217 44.75650495 24.41480338 48.50065708 0.14648438 56.32080078 C-2.8848699 57.27999409 -5.93793869 58.14442405 -9 59 C-8.67 58.01 -8.34 57.02 -8 56 C-7.01 56 -6.02 56 -5 56 C-5 55.34 -5 54.68 -5 54 C-3.35 54 -1.7 54 0 54 C0.268125 53.401875 0.53625 52.80375 0.8125 52.1875 C2.00987475 49.98180967 3.04478984 48.56416813 5 47 C5.99 47 6.98 47 8 47 C7.67 46.34 7.34 45.68 7 45 C5.10466658 44.53476937 5.10466658 44.53476937 2.9375 44.375 C0.9884375 44.189375 0.9884375 44.189375 -1 44 C-1.02483298 38.85880886 -1.04292277 33.71765313 -1.05493164 28.57641602 C-1.05994129 26.82966503 -1.06675085 25.0829182 -1.07543945 23.33618164 C-1.08765319 20.81655854 -1.09326213 18.29699119 -1.09765625 15.77734375 C-1.10281754 15.00414291 -1.10797882 14.23094208 -1.11329651 13.43431091 C-1.1137642 8.85072672 -0.75676121 4.52223738 0 0 Z " fill="#D4A43E" transform="translate(296,195)"/>
<path d="M0 0 C0.99 0.495 0.99 0.495 2 1 C1.525625 1.4125 1.05125 1.825 0.5625 2.25 C-2.18867997 5.33132156 -2 7.92238612 -2 12 C-0.68528432 11.71848913 0.62675767 11.42446661 1.9375 11.125 C3.03384766 10.88136719 3.03384766 10.88136719 4.15234375 10.6328125 C6.20700294 10.17038477 6.20700294 10.17038477 7 8 C7.66 8 8.32 8 9 8 C9.20496094 7.37480469 9.40992188 6.74960937 9.62109375 6.10546875 C11 4 11 4 13.78515625 2.98828125 C14.86667969 2.76527344 15.94820313 2.54226563 17.0625 2.3125 C20.84156259 1.79148962 20.84156259 1.79148962 24 0 C26.33297433 -0.04092937 28.66705225 -0.04241723 31 0 C28.56725284 1.62183144 26.43474507 2.7781629 23.7890625 3.953125 C22.96341797 4.32187744 22.13777344 4.69062988 21.28710938 5.07055664 C19.96936523 5.6543811 19.96936523 5.6543811 18.625 6.25 C16.79399456 7.06578645 14.96326487 7.8821921 13.1328125 8.69921875 C12.2449707 9.09544434 11.35712891 9.49166992 10.44238281 9.89990234 C7.44383001 11.25050999 4.47182059 12.65418293 1.5 14.0625 C-23.29122547 25.51929226 -47.46102933 33.80037913 -75 33 C-75 35.97 -75 38.94 -75 42 C-75.33 42 -75.66 42 -76 42 C-76 38.7 -76 35.4 -76 32 C-70.06 31.67 -64.12 31.34 -58 31 C-57.01 29.02 -56.02 27.04 -55 25 C-54.67 24.34 -54.34 23.68 -54 23 C-54.94875 23.350625 -55.8975 23.70125 -56.875 24.0625 C-61.64652464 25.46358424 -66.1545323 24.72145797 -71 24 C-71 23.67 -71 23.34 -71 23 C-69.8346875 22.87625 -68.669375 22.7525 -67.46875 22.625 C-46.49950378 20.10834303 -27.57648576 12.64156892 -8.55639648 3.77368164 C-7.46786377 3.26957764 -6.37933105 2.76547363 -5.2578125 2.24609375 C-4.2898877 1.78904053 -3.32196289 1.3319873 -2.32470703 0.86108398 C-1.55755371 0.57692627 -0.79040039 0.29276855 0 0 Z " fill="#D5BC74" transform="translate(256,254)"/>
<path d="M0 0 C7.59 0 15.18 0 23 0 C23.03763202 14.33152916 22.95174989 28.65306746 22.68261719 42.98217773 C22.64359554 45.15300488 22.60889375 47.32391324 22.578125 49.49487305 C22.53280619 52.6778115 22.47492117 55.86029427 22.4140625 59.04296875 C22.39673569 60.50357979 22.39673569 60.50357979 22.37905884 61.99369812 C22.35918915 62.88676163 22.33931946 63.77982513 22.31884766 64.69995117 C22.30552399 65.48488449 22.29220032 66.26981781 22.2784729 67.07853699 C22 69 22 69 20 71 C19.53603307 73.89223503 19.53603307 73.89223503 19.375 77.125 C19.30023438 78.22070312 19.22546875 79.31640625 19.1484375 80.4453125 C19.09945312 81.28835938 19.05046875 82.13140625 19 83 C17.02 83 15.04 83 13 83 C12.67 58.25 12.34 33.5 12 8 C11.34 8 10.68 8 10 8 C10 7.34 10 6.68 10 6 C9.34 6 8.68 6 8 6 C7.566875 5.360625 7.13375 4.72125 6.6875 4.0625 C4.59150148 1.50072404 3.21700528 1.34778436 0 1 C0 0.67 0 0.34 0 0 Z " fill="#F8F1C3" transform="translate(145,187)"/>
<path d="M0 0 C-4.625 3 -4.625 3 -8 3 C-8.20625 3.804375 -8.4125 4.60875 -8.625 5.4375 C-9.07875 6.283125 -9.5325 7.12875 -10 8 C-13.125 8.8125 -13.125 8.8125 -16 9 C-13.69 9.99 -11.38 10.98 -9 12 C-8.97514636 16.02017255 -8.95706762 20.04031488 -8.94506836 24.06054688 C-8.94006214 25.4261147 -8.93325518 26.79167724 -8.92456055 28.15722656 C-8.91233169 30.12823118 -8.90727134 32.0992761 -8.90234375 34.0703125 C-8.89710693 35.25383301 -8.89187012 36.43735352 -8.88647461 37.65673828 C-8.99529823 40.86153532 -9.39482517 43.85476612 -10 47 C-10.33 47 -10.66 47 -11 47 C-10.67 35.78 -10.34 24.56 -10 13 C-12.784375 14.505625 -15.56875 16.01125 -18.4375 17.5625 C-40.55260997 29.26937765 -61.64365391 36.00004122 -87 35 C-87.66 34.67 -88.32 34.34 -89 34 C-90.32860925 33.64830932 -91.66158328 33.31229724 -93 33 C-93 32.34 -93 31.68 -93 31 C-90.74740352 29.87370176 -89.24274797 29.77730046 -86.73828125 29.60546875 C-62.10095069 27.72195103 -39.73481093 19.87344632 -18.75 6.8125 C-4.28457447 -2.14228723 -4.28457447 -2.14228723 0 0 Z " fill="#B9AD84" transform="translate(282,268)"/>
<path d="M0 0 C1.98 0 3.96 0 6 0 C5 2 5 2 4 3 C4.33 3.99 4.66 4.98 5 6 C5.01609404 7.83110337 4.96540915 9.6630577 4.87890625 11.4921875 C4.80615479 13.23109253 4.80615479 13.23109253 4.73193359 15.00512695 C4.67602051 16.28218506 4.62010742 17.55924316 4.5625 18.875 C4.00410156 33.02058615 3.88275166 47.15685001 3.875 61.3125 C3.87259308 62.32560242 3.87018616 63.33870483 3.8677063 64.38250732 C3.8618171 67.27196633 3.86315628 70.16132092 3.8671875 73.05078125 C3.86519852 73.92649277 3.86320953 74.80220428 3.86116028 75.70445251 C3.75196481 79.98750979 3.75196481 79.98750979 5 84 C-0.28 84 -5.56 84 -11 84 C-11.33 58.92 -11.66 33.84 -12 8 C-9.53186835 11.70219748 -9.75752805 13.53178751 -9.77294922 17.94995117 C-9.77265717 18.65264633 -9.77236511 19.35534149 -9.77206421 20.07933044 C-9.77345692 22.40066907 -9.78901513 24.72168623 -9.8046875 27.04296875 C-9.80841784 28.65293706 -9.81126472 30.26290764 -9.81326294 31.87287903 C-9.82089773 36.10946932 -9.84054487 40.3459224 -9.8626709 44.5824585 C-9.88313265 48.90586491 -9.89226536 53.2292935 -9.90234375 57.55273438 C-9.92379094 66.03521921 -9.95792499 74.51759253 -10 83 C-7.03 82.01 -7.03 82.01 -4 81 C-4 77.37 -4 73.74 -4 70 C-2.515 69.505 -2.515 69.505 -1 69 C-1.00222061 68.16506012 -1.00444122 67.33012024 -1.00672913 66.46987915 C-1.02674299 58.61208268 -1.04197974 50.75429473 -1.05181217 42.89647865 C-1.05703699 38.85643046 -1.06412739 34.81640328 -1.07543945 30.77636719 C-1.08628254 26.879559 -1.09227987 22.98277105 -1.09487724 19.08594894 C-1.09672892 17.59715837 -1.10034463 16.10836893 -1.10573006 14.61958694 C-1.11295934 12.53884715 -1.11399014 10.45819168 -1.11352539 8.37744141 C-1.115746 7.19163483 -1.11796661 6.00582825 -1.12025452 4.78408813 C-1 2 -1 2 0 0 Z " fill="#EFE0A2" transform="translate(168,187)"/>
<path d="M0 0 C29.57934114 -0.76467871 58.03022815 4.29188538 82 23 C77.66647859 24.44450714 74.67349823 22.50843986 70.625 20.875 C63.4916541 18.12168183 56.37939972 15.88526199 48.9375 14.125 C48.09461426 13.92245605 47.25172852 13.71991211 46.38330078 13.51123047 C37.47484002 11.47916867 28.621689 10.80514083 19.5 10.8125 C18.65211914 10.81185547 17.80423828 10.81121094 16.93066406 10.81054688 C8.20766185 10.88170225 -0.3643118 11.83188759 -9 13 C-9 12.34 -9 11.68 -9 11 C-0.81524547 8.41753292 7.3781814 8.60190473 15.8984375 8.46826172 C17.8465059 8.43462532 19.79436291 8.38937115 21.7421875 8.34375 C22.8957373 8.32505859 24.04928711 8.30636719 25.23779297 8.28710938 C28.14159546 8.27854682 28.14159546 8.27854682 30 6 C29.34 5.34 28.68 4.68 28 4 C28 3.67 28 3.34 28 3 C14.14 2.01 14.14 2.01 0 1 C0 0.67 0 0.34 0 0 Z " fill="#765A2D" transform="translate(324,232)"/>
<path d="M0 0 C0.66 0.33 1.32 0.66 2 1 C1.525625 1.4125 1.05125 1.825 0.5625 2.25 C-2.18867997 5.33132156 -2 7.92238612 -2 12 C-0.68528432 11.71848913 0.62675767 11.42446661 1.9375 11.125 C3.03384766 10.88136719 3.03384766 10.88136719 4.15234375 10.6328125 C6.20700294 10.17038477 6.20700294 10.17038477 7 8 C7.66 8 8.32 8 9 8 C9.20496094 7.37480469 9.40992188 6.74960937 9.62109375 6.10546875 C11 4 11 4 13.78515625 2.98828125 C14.86667969 2.76527344 15.94820313 2.54226563 17.0625 2.3125 C20.84156259 1.79148962 20.84156259 1.79148962 24 0 C26.33297433 -0.04092937 28.66705225 -0.04241723 31 0 C28.56725284 1.62183144 26.43474507 2.7781629 23.7890625 3.953125 C22.54987061 4.50649536 22.54987061 4.50649536 21.28564453 5.07104492 C20.40763184 5.4601001 19.52961914 5.84915527 18.625 6.25 C16.80184757 7.06327376 14.97893073 7.87707586 13.15625 8.69140625 C12.269375 9.08730957 11.3825 9.48321289 10.46875 9.89111328 C7.34096082 11.29602017 4.23223586 12.73771297 1.125 14.1875 C-3.4380551 16.29761745 -8.01773318 18.36355211 -12.625 20.375 C-14.34589844 21.12910156 -14.34589844 21.12910156 -16.1015625 21.8984375 C-19 23 -19 23 -22 23 C-22 22.34 -22 21.68 -22 21 C-23.65 20.67 -25.3 20.34 -27 20 C-26.2265625 18.329375 -26.2265625 18.329375 -25.4375 16.625 C-24.963125 15.42875 -24.48875 14.2325 -24 13 C-24.33 12.34 -24.66 11.68 -25 11 C-20.88061575 9.13316794 -16.75366476 7.28370576 -12.625 5.4375 C-10.8615625 4.63795898 -10.8615625 4.63795898 -9.0625 3.82226562 C-7.94101563 3.32275391 -6.81953125 2.82324219 -5.6640625 2.30859375 C-4.10872803 1.60947876 -4.10872803 1.60947876 -2.52197266 0.89624023 C-1.68972168 0.60048096 -0.8574707 0.30472168 0 0 Z " fill="#D8B25C" transform="translate(256,254)"/>
<path d="M0 0 C-0.2784375 1.670625 -0.2784375 1.670625 -0.5625 3.375 C-1.31680657 6.82568861 -1.31680657 6.82568861 0 9 C-0.33 9.99 -0.66 10.98 -1 12 C-5.7540859 12.33168041 -8.05646203 11.59443287 -12 9 C-15.42046356 7.84464342 -18.6616152 7.89849582 -22.25 7.9375 C-23.86648437 7.95103516 -23.86648437 7.95103516 -25.515625 7.96484375 C-26.74539062 7.98224609 -26.74539062 7.98224609 -28 8 C-29.1444778 16.17767009 -29.12823151 24.2967609 -29.09765625 32.53515625 C-29.09578768 34.02444918 -29.09436585 35.51374273 -29.09336853 37.0030365 C-29.08957789 40.89425397 -29.0797777 44.78543322 -29.06866455 48.67663574 C-29.05837559 52.65876753 -29.05385498 56.64090558 -29.04882812 60.62304688 C-29.03815181 68.4153839 -29.0205836 76.20768169 -29 84 C-34.61 84 -40.22 84 -46 84 C-46 83.67 -46 83.34 -46 83 C-41.05 83 -36.1 83 -31 83 C-31.33 59.57 -31.66 36.14 -32 12 C-32.66 11.67 -33.32 11.34 -34 11 C-34 7.7 -34 4.4 -34 1 C-31.15120682 0.05040227 -29.11073447 -0.1900127 -26.140625 -0.31640625 C-25.18929687 -0.35830078 -24.23796875 -0.40019531 -23.2578125 -0.44335938 C-22.26523438 -0.48267578 -21.27265625 -0.52199219 -20.25 -0.5625 C-19.27289063 -0.60568359 -18.29578125 -0.64886719 -17.2890625 -0.69335938 C-2.63125 -1.315625 -2.63125 -1.315625 0 0 Z " fill="#E9C269" transform="translate(210,188)"/>
<path d="M0 0 C0 0.66 0 1.32 0 2 C-0.94617188 2.08636719 -1.89234375 2.17273438 -2.8671875 2.26171875 C-20.06060048 3.42631351 -20.06060048 3.42631351 -35 10 C-35.05124849 12.03190756 -35.03519036 14.06555746 -34.9921875 16.09765625 C-34.9730127 17.36697998 -34.95383789 18.63630371 -34.93408203 19.9440918 C-34.92362854 20.61725433 -34.91317505 21.29041687 -34.90240479 21.98397827 C-34.68750831 38.28284685 -34.7326054 52.84397978 -44 67 C-45.33332095 64.3333581 -44.67102033 62.83319697 -44 60 C-43.34 60 -42.68 60 -42 60 C-42 59.01 -42 58.02 -42 57 C-41.34 57 -40.68 57 -40 57 C-38.72746625 47.49008257 -37.8051044 38.1041089 -37.8125 28.5 C-37.81185547 27.68168701 -37.81121094 26.86337402 -37.81054688 26.02026367 C-37.7544505 21.87680475 -37.7544505 21.87680475 -39 18 C-39.0396713 16.33380554 -39.04384447 14.66608987 -39 13 C-39.66 12.67 -40.32 12.34 -41 12 C-41 11.01 -41 10.02 -41 9 C-41.99 8.67 -42.98 8.34 -44 8 C-44 7.34 -44 6.68 -44 6 C-45.98 6.33 -47.96 6.66 -50 7 C-36.13178153 -2.24547898 -15.86662 -2.53622442 0 0 Z " fill="#BB974A" transform="translate(332,260)"/>
<path d="M0 0 C4.73992834 0.60063214 8.66901141 1.95642728 13.0625 3.8125 C31.22806565 11.23831119 49.46864813 14.14180424 69 15 C69 15.33 69 15.66 69 16 C51.14350797 16.18451025 51.14350797 16.18451025 43 15 C43.185625 15.680625 43.37125 16.36125 43.5625 17.0625 C44 20 44 20 43.53125 23.1875 C42.97775996 27.15960496 42.90203305 30.92973486 42.9375 34.9375 C42.94201172 35.62134766 42.94652344 36.30519531 42.95117188 37.00976562 C42.9628044 38.67321604 42.98073306 40.3366205 43 42 C42.01 41.67 41.02 41.34 40 41 C40.33 34.4 40.66 27.8 41 21 C38.855 20.34 36.71 19.68 34.5 19 C22.71915286 15.18451552 9.9174233 9.4857474 0 2 C0 1.34 0 0.68 0 0 Z " fill="#AA9972" transform="translate(115,263)"/>
<path d="M0 0 C0.33 0 0.66 0 1 0 C1.19441368 2.2910905 1.38033135 4.58290337 1.5625 6.875 C1.66691406 8.15117187 1.77132813 9.42734375 1.87890625 10.7421875 C2 14 2 14 1 16 C2.65 16.33 4.3 16.66 6 17 C6.33 16.01 6.66 15.02 7 14 C7.99 14 8.98 14 10 14 C9.82701599 16.33528415 9.29774631 17.69177582 7.66796875 19.37890625 C3.42788462 23 3.42788462 23 1 23 C1 23.66 1 24.32 1 25 C-1.53804678 26.46495337 -4.08009717 27.92204322 -6.625 29.375 C-7.33785156 29.7875 -8.05070312 30.2 -8.78515625 30.625 C-12.77580578 32.89491074 -16.55729762 34.72465011 -21 36 C-21.66 34.68 -22.32 33.36 -23 32 C-22.27554688 31.50371094 -21.55109375 31.00742187 -20.8046875 30.49609375 C-9.89844951 22.83264385 -3.3402065 15.5381078 -0.36328125 2.1328125 C-0.24339844 1.42898438 -0.12351562 0.72515625 0 0 Z " fill="#C6A563" transform="translate(270,319)"/>
<path d="M0 0 C0.33 0 0.66 0 1 0 C0.67 14.19 0.34 28.38 0 43 C4.95 41.68 9.9 40.36 15 39 C18.59051661 38.28189668 21.25633567 37.87215619 24.80859375 37.8671875 C25.71464355 37.86525391 26.62069336 37.86332031 27.55419922 37.86132812 C28.50568848 37.86583984 29.45717773 37.87035156 30.4375 37.875 C31.89953857 37.87790039 31.89953857 37.87790039 33.39111328 37.88085938 C40.96430935 37.92588581 48.45832184 38.27929356 56 39 C56 39.33 56 39.66 56 40 C55.04222656 39.98428955 54.08445312 39.9685791 53.09765625 39.95239258 C49.51196855 39.89770288 45.926317 39.86350953 42.34033203 39.83520508 C40.79437032 39.8202067 39.24845052 39.79980113 37.70263672 39.77368164 C25.98743701 39.41181817 25.98743701 39.41181817 15 43 C12.7763932 44.9254644 12.7763932 44.9254644 12 48 C15.465 48.495 15.465 48.495 19 49 C18 51 18 51 16.16162109 51.74609375 C14.97947021 52.08833984 14.97947021 52.08833984 13.7734375 52.4375 C12.90589844 52.69273437 12.03835938 52.94796875 11.14453125 53.2109375 C10.23058594 53.47132813 9.31664062 53.73171875 8.375 54 C7.03888672 54.39058594 7.03888672 54.39058594 5.67578125 54.7890625 C3.11952781 55.53447956 0.56049699 56.26930908 -2 57 C-2.72928711 57.20882812 -3.45857422 57.41765625 -4.20996094 57.6328125 C-5.80633563 58.08960889 -7.40311332 58.54499667 -9 59 C-8.67 58.01 -8.34 57.02 -8 56 C-7.01 56 -6.02 56 -5 56 C-5 55.34 -5 54.68 -5 54 C-3.35 54 -1.7 54 0 54 C0.268125 53.401875 0.53625 52.80375 0.8125 52.1875 C2.00987475 49.98180967 3.04478984 48.56416813 5 47 C5.99 47 6.98 47 8 47 C7.67 46.34 7.34 45.68 7 45 C5.10466658 44.53476937 5.10466658 44.53476937 2.9375 44.375 C0.9884375 44.189375 0.9884375 44.189375 -1 44 C-1.02483298 38.85880886 -1.04292277 33.71765313 -1.05493164 28.57641602 C-1.05994129 26.82966503 -1.06675085 25.0829182 -1.07543945 23.33618164 C-1.08765319 20.81655854 -1.09326213 18.29699119 -1.09765625 15.77734375 C-1.10281754 15.00414291 -1.10797882 14.23094208 -1.11329651 13.43431091 C-1.1137642 8.85072672 -0.75676121 4.52223738 0 0 Z " fill="#B7954F" transform="translate(296,195)"/>
<path d="M0 0 C0.66 0.33 1.32 0.66 2 1 C-2.625 4 -2.625 4 -6 4 C-6.309375 5.2065625 -6.309375 5.2065625 -6.625 6.4375 C-7.07875 7.283125 -7.5325 8.12875 -8 9 C-11.125 9.8125 -11.125 9.8125 -14 10 C-10.535 11.485 -10.535 11.485 -7 13 C-6.97514636 17.02017255 -6.95706762 21.04031488 -6.94506836 25.06054688 C-6.94006214 26.4261147 -6.93325518 27.79167724 -6.92456055 29.15722656 C-6.91233169 31.12823118 -6.90727134 33.0992761 -6.90234375 35.0703125 C-6.89448853 36.84559326 -6.89448853 36.84559326 -6.88647461 38.65673828 C-6.99529823 41.86153532 -7.39482517 44.85476612 -8 48 C-8.33 48 -8.66 48 -9 48 C-8.67 36.78 -8.34 25.56 -8 14 C-13.85179869 17.14800221 -13.85179869 17.14800221 -19.69506836 20.31176758 C-24.99500857 23.13190356 -30.23858078 25.30946112 -36 27 C-35.505 25.515 -35.505 25.515 -35 24 C-31.4375 22.3125 -31.4375 22.3125 -28 21 C-29.32 19.35 -30.64 17.7 -32 16 C-6.55381776 2.38615111 -6.55381776 2.38615111 0 0 Z " fill="#B59854" transform="translate(280,267)"/>
<path d="M0 0 C0.99 0 1.98 0 3 0 C3 23.76 3 47.52 3 72 C1.68 71.67 0.36 71.34 -1 71 C-0.83734146 70.14711395 -0.67468292 69.29422791 -0.50709534 68.41549683 C0.00005554 64.99962593 0.12023983 61.80327071 0.11352539 58.35205078 C0.11344986 57.05115509 0.11337433 55.7502594 0.11329651 54.40994263 C0.10819101 53.00506552 0.10297504 51.60018881 0.09765625 50.1953125 C0.09578923 48.74657236 0.09436667 47.29783158 0.09336853 45.84909058 C0.08956573 42.05153637 0.07975474 38.25402092 0.06866455 34.45648193 C0.05840215 30.57515995 0.05386059 26.69383166 0.04882812 22.8125 C0.0381303 15.20831574 0.02108098 7.60416332 0 0 Z " fill="#E3C26E" transform="translate(176,199)"/>
<path d="M0 0 C16.96349963 -0.43853671 32.95813751 -0.12507477 49 6 C47.02 6.99 47.02 6.99 45 8 C44.505 7.01 44.505 7.01 44 6 C42.02 6.33 40.04 6.66 38 7 C39.3089572 10.12197478 39.3089572 10.12197478 42 12 C40.94039063 11.89171875 40.94039063 11.89171875 39.859375 11.78125 C23.4243174 10.29466188 7.34051203 10.78968919 -9 13 C-9 12.34 -9 11.68 -9 11 C-0.81524547 8.41753292 7.3781814 8.60190473 15.8984375 8.46826172 C17.8465059 8.43462532 19.79436291 8.38937115 21.7421875 8.34375 C22.8957373 8.32505859 24.04928711 8.30636719 25.23779297 8.28710938 C28.14159546 8.27854682 28.14159546 8.27854682 30 6 C29.34 5.34 28.68 4.68 28 4 C28 3.67 28 3.34 28 3 C14.14 2.01 14.14 2.01 0 1 C0 0.67 0 0.34 0 0 Z " fill="#8A6A29" transform="translate(324,232)"/>
<path d="M0 0 C2.46813165 3.70219748 2.24247195 5.53178751 2.22705078 9.94995117 C2.22734283 10.65264633 2.22763489 11.35534149 2.22793579 12.07933044 C2.22654308 14.40066907 2.21098487 16.72168623 2.1953125 19.04296875 C2.19158216 20.65293706 2.18873528 22.26290764 2.18673706 23.87287903 C2.17910227 28.10946932 2.15945513 32.3459224 2.1373291 36.5824585 C2.11686735 40.90586491 2.10773464 45.2292935 2.09765625 49.55273438 C2.07620906 58.03521921 2.04207501 66.51759253 2 75 C4.97 74.01 4.97 74.01 8 73 C8 69.37 8 65.74 8 62 C9.485 61.505 9.485 61.505 11 61 C11 45.16 11 29.32 11 13 C11.33 13 11.66 13 12 13 C12.17021947 19.43695771 12.32970288 25.8741212 12.48217773 32.31152344 C12.53511975 34.49550212 12.59040285 36.67942549 12.64819336 38.86328125 C12.95818599 50.63761005 13.24552371 62.2668809 12 74 C13.65 74.33 15.3 74.66 17 75 C17 75.33 17 75.66 17 76 C11.72 76 6.44 76 1 76 C0.67 50.92 0.34 25.84 0 0 Z " fill="#DDD3AB" transform="translate(156,195)"/>
<path d="M0 0 C0.598125 0.20625 1.19625 0.4125 1.8125 0.625 C0.8225 0.955 -0.1675 1.285 -1.1875 1.625 C-2.0943392 18.27128767 -2.31952801 34.91441552 -2.36474609 51.58233643 C-2.37157865 53.85965232 -2.3818292 56.13696054 -2.39550781 58.41424561 C-2.41344371 61.65905011 -2.41766769 64.90358901 -2.41796875 68.1484375 C-2.42511398 69.13078369 -2.43225922 70.11312988 -2.43962097 71.12524414 C-2.42437086 75.71757658 -2.40730246 79.4691251 -0.1875 83.625 C-2.125 83.3125 -2.125 83.3125 -4.1875 82.625 C-5.47524971 78.76175087 -5.33007162 75.11151449 -5.3203125 71.0859375 C-5.32158646 70.22412369 -5.32286041 69.36230988 -5.32417297 68.47438049 C-5.32598707 65.64955341 -5.31960194 62.82481772 -5.3125 60 C-5.31194611 59.04191437 -5.31139221 58.08382874 -5.31082153 57.09671021 C-5.30091784 42.50491998 -5.0487603 27.93483578 -4.45556641 13.35498047 C-4.40706543 12.09186035 -4.35856445 10.82874023 -4.30859375 9.52734375 C-4.2614624 8.42898193 -4.21433105 7.33062012 -4.16577148 6.19897461 C-3.99878632 3.63605443 -3.99878632 3.63605443 -5.1875 1.625 C-2.1875 -0.375 -2.1875 -0.375 0 0 Z " fill="#EBD387" transform="translate(176.1875,187.375)"/>
<path d="M0 0 C-0.8156543 0.46156494 -1.63130859 0.92312988 -2.47167969 1.39868164 C-5.69383576 4.71386829 -5.55989395 6.41635944 -5.54083252 10.88096619 C-5.51188904 11.78520828 -5.48294556 12.68945038 -5.453125 13.62109375 C-5.44367859 14.55800552 -5.43423218 15.4949173 -5.42449951 16.46022034 C-5.38992088 19.45353076 -5.32116756 22.44485591 -5.25 25.4375 C-5.19996605 28.42630665 -5.15696855 31.41509311 -5.11834717 34.40406799 C-5.09204015 36.26287444 -5.05789585 38.12159073 -5.01495361 39.98008728 C-4.93510686 44.15416295 -4.9779791 47.92031793 -6 52 C-6 52.66 -6 53.32 -6 54 C-8 55.625 -8 55.625 -10 57 C-10.02730462 55.12508307 -10.04653244 53.25004775 -10.0625 51.375 C-10.07410156 50.33085937 -10.08570313 49.28671875 -10.09765625 48.2109375 C-10 45 -10 45 -9.51367188 42.23242188 C-8.97102946 38.8176949 -8.79061388 35.52553386 -8.68359375 32.0703125 C-8.64169922 30.78125 -8.59980469 29.4921875 -8.55664062 28.1640625 C-8.51683972 26.81771091 -8.47712727 25.47135671 -8.4375 24.125 C-8.39424817 22.75519667 -8.35063188 21.38540479 -8.30664062 20.015625 C-8.20084478 16.67717843 -8.09875628 13.338661 -8 10 C-8.763125 9.87625 -9.52625 9.7525 -10.3125 9.625 C-13 9 -13 9 -16 7 C-14.88625 6.7525 -13.7725 6.505 -12.625 6.25 C-8.95175786 5.43232951 -8.95175786 5.43232951 -7.875 3 C-7.58625 2.34 -7.2975 1.68 -7 1 C-2.6097561 -1.30487805 -2.6097561 -1.30487805 0 0 Z " fill="#EFCA7D" transform="translate(281,270)"/>
<path d="M0 0 C0.66 0.33 1.32 0.66 2 1 C1.01 1.99 0.02 2.98 -1 4 C-0.67 4.66 -0.34 5.32 0 6 C-1.70478416 8.35222951 -3.06634865 9.82204137 -5.98535156 10.37841797 C-8.37633141 10.50223106 -10.73164134 10.49610515 -13.125 10.4375 C-14.36056641 10.44813477 -14.36056641 10.44813477 -15.62109375 10.45898438 C-20.15392543 10.41076276 -20.15392543 10.41076276 -22 10 C-22.66 9.01 -23.32 8.02 -24 7 C-26.5654594 4.4345406 -28.47686668 4.45953913 -32 4 C-32 3.67 -32 3.34 -32 3 C-23.91253275 2.32099225 -15.95607766 1.90428507 -7.83984375 2.16015625 C-4.82715192 1.99025203 -2.76269649 1.14434049 0 0 Z " fill="#FCF5D2" transform="translate(202,276)"/>
<path d="M0 0 C-0.23396484 0.83144531 -0.23396484 0.83144531 -0.47265625 1.6796875 C-0.66730469 2.40414063 -0.86195313 3.12859375 -1.0625 3.875 C-1.25972656 4.59429687 -1.45695312 5.31359375 -1.66015625 6.0546875 C-2.21132607 8.07273593 -2.21132607 8.07273593 -1 10 C-3.83203125 10.68359375 -3.83203125 10.68359375 -6.6640625 11.3671875 C-9.08571635 11.97487315 -9.08571635 11.97487315 -11.65625 13.0625 C-16.1213753 14.31440429 -20.26522634 14.21525159 -24.875 14.125 C-25.75414062 14.11597656 -26.63328125 14.10695313 -27.5390625 14.09765625 C-29.6928271 14.07424577 -31.84645014 14.0383801 -34 14 C-34 16.97 -34 19.94 -34 23 C-34.33 23 -34.66 23 -35 23 C-35 19.7 -35 16.4 -35 13 C-29.06 12.67 -23.12 12.34 -17 12 C-16.01 10.02 -15.02 8.04 -14 6 C-13.67 5.34 -13.34 4.68 -13 4 C-14.423125 4.5259375 -14.423125 4.5259375 -15.875 5.0625 C-20.64652464 6.46358424 -25.1545323 5.72145797 -30 5 C-30 4.67 -30 4.34 -30 4 C-29.2886792 3.91435791 -28.5773584 3.82871582 -27.84448242 3.74047852 C-24.62508937 3.35103793 -21.40629819 2.9568257 -18.1875 2.5625 C-17.06794922 2.42779297 -15.94839844 2.29308594 -14.79492188 2.15429688 C-13.72177734 2.02216797 -12.64863281 1.89003906 -11.54296875 1.75390625 C-10.55321045 1.63345947 -9.56345215 1.5130127 -8.54370117 1.38891602 C-5.51289701 0.925525 -3.09880101 0 0 0 Z " fill="#CFC08F" transform="translate(215,273)"/>
<path d="M0 0 C1.1446875 0.495 1.1446875 0.495 2.3125 1 C-0.97269475 2.09506492 -3.42413415 2.09960608 -6.875 2.0625 C-8.50501953 2.04896484 -8.50501953 2.04896484 -10.16796875 2.03515625 C-10.99941406 2.02355469 -11.83085937 2.01195312 -12.6875 2 C-13.8319778 10.17767009 -13.81573151 18.2967609 -13.78515625 26.53515625 C-13.78328768 28.02444918 -13.78186585 29.51374273 -13.78086853 31.0030365 C-13.77707789 34.89425397 -13.7672777 38.78543322 -13.75616455 42.67663574 C-13.74587559 46.65876753 -13.74135498 50.64090558 -13.73632812 54.62304688 C-13.72565181 62.4153839 -13.7080836 70.20768169 -13.6875 78 C-19.2975 78 -24.9075 78 -30.6875 78 C-30.6875 77.67 -30.6875 77.34 -30.6875 77 C-25.7375 77 -20.7875 77 -15.6875 77 C-16.0175 53.57 -16.3475 30.14 -16.6875 6 C-17.3475 5.67 -18.0075 5.34 -18.6875 5 C-18.6875 3.68 -18.6875 2.36 -18.6875 1 C-13.00211616 -2.36318481 -6.1839199 -1.67699523 0 0 Z " fill="#AB9560" transform="translate(194.6875,194)"/>
<path d="M0 0 C1.32 0.33 2.64 0.66 4 1 C3.01 1.33 2.02 1.66 1 2 C1.66 2.33 2.32 2.66 3 3 C2.96970703 3.78906738 2.93941406 4.57813477 2.90820312 5.39111328 C1.950355 31.26406481 1.88845739 57.11181853 2 83 C0.68 82.67 -0.64 82.34 -2 82 C-1.93148331 81.25140213 -1.86296661 80.50280426 -1.79237366 79.73152161 C-1.02506409 70.69934519 -0.78802141 61.69523775 -0.68359375 52.63671875 C-0.66296086 51.10829692 -0.64196306 49.57987998 -0.62062073 48.0514679 C-0.56605266 44.07488017 -0.51636239 40.09824671 -0.46777344 36.12158203 C-0.41707429 32.04520718 -0.36164387 27.96889677 -0.30664062 23.89257812 C-0.19986041 15.92844028 -0.09824583 7.96424768 0 0 Z " fill="#EEDA96" transform="translate(170,187)"/>
<path d="M0 0 C14.85 0 29.7 0 45 0 C45 0.33 45 0.66 45 1 C44.33468262 1.01981934 43.66936523 1.03963867 42.98388672 1.06005859 C39.94721732 1.15576418 36.91119322 1.26525808 33.875 1.375 C32.82828125 1.4059375 31.7815625 1.436875 30.703125 1.46875 C25.4655217 1.66764633 20.89494631 1.91668375 16 4 C16.32342377 4.55218201 16.64684753 5.10436401 16.98007202 5.67327881 C18.1590679 8.36287528 18.27617345 10.29724349 18.31884766 13.22753906 C18.33871735 14.26831604 18.35858704 15.30909302 18.37905884 16.38140869 C18.39061005 17.49820007 18.40216125 18.61499146 18.4140625 19.765625 C18.43342865 20.91415955 18.4527948 22.06269409 18.4727478 23.24603271 C18.53252126 26.9139463 18.57892064 30.58189129 18.625 34.25 C18.66318178 36.73699284 18.70223362 39.22397249 18.7421875 41.7109375 C18.83822105 47.80717453 18.92327529 53.90349104 19 60 C18.01 60.495 18.01 60.495 17 61 C16.99191315 60.36772995 16.98382629 59.7354599 16.97549438 59.08403015 C16.88955965 52.51422719 16.79006102 45.94472982 16.68261719 39.37524414 C16.64429046 36.92217127 16.60944418 34.46904149 16.578125 32.01586914 C16.53255493 28.49344515 16.47454679 24.97141425 16.4140625 21.44921875 C16.40251129 20.34913986 16.39096008 19.24906097 16.37905884 18.11564636 C16.35918915 17.09481461 16.33931946 16.07398285 16.31884766 15.0222168 C16.30552399 14.12286911 16.29220032 13.22352142 16.2784729 12.29692078 C16.14158026 9.72430104 16.14158026 9.72430104 14 7 C14 6.01 14 5.02 14 4 C9.38 3.34 4.76 2.68 0 2 C0 1.34 0 0.68 0 0 Z " fill="#E8C780" transform="translate(256,187)"/>
<path d="M0 0 C-1.98 0.99 -1.98 0.99 -4 2 C-2.03177114 3.96822886 1.34808709 3.66248381 4 4 C4 4.33 4 4.66 4 5 C-1.70133779 6.27013533 -7.36785131 6.39180253 -13.1875 6.625 C-14.84555664 6.70234375 -14.84555664 6.70234375 -16.53710938 6.78125 C-17.59091797 6.82507813 -18.64472656 6.86890625 -19.73046875 6.9140625 C-20.69364014 6.9548291 -21.65681152 6.9955957 -22.64916992 7.03759766 C-25 7 -25 7 -27 6 C-28.32860925 5.64830932 -29.66158328 5.31229724 -31 5 C-31 4.34 -31 3.68 -31 3 C-28.67951947 1.83975973 -26.96974195 1.72264442 -24.38671875 1.5 C-23.46826172 1.4175 -22.54980469 1.335 -21.60351562 1.25 C-20.16008789 1.12625 -20.16008789 1.12625 -18.6875 1 C-16.7953572 0.83580049 -14.90342017 0.66920879 -13.01171875 0.5 C-12.17084717 0.4278125 -11.32997559 0.355625 -10.46362305 0.28125 C-7.95731776 0.04026021 -7.95731776 0.04026021 -5.37426758 -0.59375 C-3 -1 -3 -1 0 0 Z " fill="#C1B794" transform="translate(220,296)"/>
<path d="M0 0 C1.66666667 0.33333333 3.33333333 0.66666667 5 1 C5.33 0.67 5.66 0.34 6 0 C13.73622831 -0.49506037 21.49092619 0.26934386 29.1875 1 C30.75854492 1.14308594 30.75854492 1.14308594 32.36132812 1.2890625 C34.90799269 1.52163461 37.45415315 1.75866925 40 2 C40 2.33 40 2.66 40 3 C22.14350797 3.18451025 22.14350797 3.18451025 14 2 C14.185625 2.680625 14.37125 3.36125 14.5625 4.0625 C15 7 15 7 14.53125 10.1875 C13.97775996 14.15960496 13.90203305 17.92973486 13.9375 21.9375 C13.94201172 22.62134766 13.94652344 23.30519531 13.95117188 24.00976562 C13.9628044 25.67321604 13.98073306 27.3366205 14 29 C13.01 28.67 12.02 28.34 11 28 C11.33 21.4 11.66 14.8 12 8 C9.6178125 7.38125 9.6178125 7.38125 7.1875 6.75 C3.06404326 5.67897228 1.26786278 4.64666307 -1 1 C-0.67 0.67 -0.34 0.34 0 0 Z " fill="#B2A886" transform="translate(144,276)"/>
<path d="M0 0 C0.79921875 0.00902344 1.5984375 0.01804688 2.421875 0.02734375 C3.02515625 0.03894531 3.6284375 0.05054688 4.25 0.0625 C3.26 0.3925 2.27 0.7225 1.25 1.0625 C1.085 1.7225 0.92 2.3825 0.75 3.0625 C0.585 3.7225 0.42 4.3825 0.25 5.0625 C-0.74 5.3925 -1.73 5.7225 -2.75 6.0625 C-2.09 6.7225 -1.43 7.3825 -0.75 8.0625 C-6.32067277 9.65412079 -10.96101581 10.26924944 -16.75 10.0625 C-16.125 7.25 -16.125 7.25 -14.75 4.0625 C-9.94423015 1.03277553 -5.61496158 -0.08257296 0 0 Z " fill="#DEB04C" transform="translate(323.75,233.9375)"/>
<path d="M0 0 C0 0.33 0 0.66 0 1 C-19.8 1.33 -39.6 1.66 -60 2 C-59.34 3.32 -58.68 4.64 -58 6 C-62.29 5.34 -66.58 4.68 -71 4 C-71 2.68 -71 1.36 -71 0 C-47.31038213 -1.43268259 -23.70281013 -0.70680501 0 0 Z " fill="#6B5D39" transform="translate(211,186)"/>
<path d="M0 0 C0.99 0 1.98 0 3 0 C3 0.99 3 1.98 3 3 C4.32 3.66 5.64 4.32 7 5 C-5.06835505 12.36980575 -5.06835505 12.36980575 -9 14 C-9.99 13.67 -10.98 13.34 -12 13 C-12.33 12.01 -12.66 11.02 -13 10 C-12.22914063 9.44570313 -11.45828125 8.89140625 -10.6640625 8.3203125 C-9.66117188 7.59585937 -8.65828125 6.87140625 -7.625 6.125 C-6.62726563 5.40570313 -5.62953125 4.68640625 -4.6015625 3.9453125 C-2.00530106 2.1005342 -2.00530106 2.1005342 0 0 Z " fill="#C0A05F" transform="translate(260,341)"/>
<path d="M0 0 C0.66 0 1.32 0 2 0 C2 0.66 2 1.32 2 2 C3.65 2.66 5.3 3.32 7 4 C6.01 4.495 6.01 4.495 5 5 C4.34 4.67 3.68 4.34 3 4 C2.67 4.99 2.34 5.98 2 7 C-2.50105768 9.04102015 -6.4816192 9.21732794 -11.375 9.125 C-12.62023437 9.10695313 -13.86546875 9.08890625 -15.1484375 9.0703125 C-16.55996094 9.03550781 -16.55996094 9.03550781 -18 9 C-18.33 8.01 -18.66 7.02 -19 6 C-16.14206684 3.14206684 -13.85334416 3.59200059 -9.875 3.375 C-8.59367188 3.30023438 -7.31234375 3.22546875 -5.9921875 3.1484375 C-5.00476563 3.09945312 -4.01734375 3.05046875 -3 3 C-3.33 3.66 -3.66 4.32 -4 5 C-3.34 5.33 -2.68 5.66 -2 6 C-1.34 4.02 -0.68 2.04 0 0 Z " fill="#DEB051" transform="translate(205,247)"/>
<path d="M0 0 C1.134375 0.020625 2.26875 0.04125 3.4375 0.0625 C1.00475284 1.68433144 -1.12775493 2.8406629 -3.7734375 4.015625 C-4.60053223 4.38510254 -5.42762695 4.75458008 -6.27978516 5.13525391 C-7.15683105 5.52374512 -8.03387695 5.91223633 -8.9375 6.3125 C-16.35129955 9.60035816 -16.35129955 9.60035816 -23.703125 13.0234375 C-24.85296875 13.57257813 -26.0028125 14.12171875 -27.1875 14.6875 C-28.19039062 15.17476563 -29.19328125 15.66203125 -30.2265625 16.1640625 C-30.99742187 16.46054687 -31.76828125 16.75703125 -32.5625 17.0625 C-33.2225 16.7325 -33.8825 16.4025 -34.5625 16.0625 C-34.5625 15.0725 -34.5625 14.0825 -34.5625 13.0625 C-33.63566406 12.86914062 -32.70882812 12.67578125 -31.75390625 12.4765625 C-30.55636719 12.21617187 -29.35882813 11.95578125 -28.125 11.6875 C-26.93003906 11.43226563 -25.73507812 11.17703125 -24.50390625 10.9140625 C-23.53324219 10.63304687 -22.56257813 10.35203125 -21.5625 10.0625 C-21.2325 9.4025 -20.9025 8.7425 -20.5625 8.0625 C-19.9025 8.0625 -19.2425 8.0625 -18.5625 8.0625 C-18.35753906 7.43730469 -18.15257812 6.81210937 -17.94140625 6.16796875 C-16.5625 4.0625 -16.5625 4.0625 -13.77734375 3.05078125 C-12.69582031 2.82777344 -11.61429687 2.60476563 -10.5 2.375 C-6.67055407 1.55993363 -3.74453933 0.06569367 0 0 Z " fill="#C8A763" transform="translate(283.5625,253.9375)"/>
<path d="M0 0 C0.33 0.99 0.66 1.98 1 3 C1.66 3.33 2.32 3.66 3 4 C2.36191406 4.10957031 1.72382813 4.21914063 1.06640625 4.33203125 C0.24011719 4.49058594 -0.58617187 4.64914062 -1.4375 4.8125 C-2.26121094 4.96332031 -3.08492187 5.11414063 -3.93359375 5.26953125 C-4.61550781 5.51058594 -5.29742187 5.75164062 -6 6 C-6.33 6.99 -6.66 7.98 -7 9 C-9.64 9 -12.28 9 -15 9 C-15.33 7.35 -15.66 5.7 -16 4 C-14.27921959 3.1290621 -12.54793677 2.27885442 -10.8125 1.4375 C-9.84957031 0.96183594 -8.88664063 0.48617188 -7.89453125 -0.00390625 C-4.72281223 -1.0953885 -3.16301775 -0.96567452 0 0 Z " fill="#E1C372" transform="translate(251,285)"/>
<path d="M0 0 C1.04085251 0.02009628 2.08170502 0.04019257 3.15409851 0.06089783 C4.83702751 0.10145042 4.83702751 0.10145042 6.55395508 0.14282227 C7.70390457 0.16643326 8.85385406 0.19004425 10.03865051 0.21437073 C13.71705377 0.29103698 17.39524808 0.37504897 21.07348633 0.45922852 C23.56501251 0.51244621 26.05654894 0.56518663 28.5480957 0.61743164 C34.66085562 0.74665619 40.77345994 0.88191461 46.88598633 1.02172852 C46.88598633 2.34172852 46.88598633 3.66172852 46.88598633 5.02172852 C43.92934114 6.50005111 41.14368896 6.08205634 37.88598633 6.02172852 C37.88598633 5.69172852 37.88598633 5.36172852 37.88598633 5.02172852 C39.86598633 5.02172852 41.84598633 5.02172852 43.88598633 5.02172852 C43.39098633 4.03172852 43.39098633 4.03172852 42.88598633 3.02172852 C18.13598633 2.52672852 18.13598633 2.52672852 -7.11401367 2.02172852 C-7.11401367 2.68172852 -7.11401367 3.34172852 -7.11401367 4.02172852 C-6.43854492 3.99852539 -5.76307617 3.97532227 -5.06713867 3.95141602 C-3.7290918 3.9243457 -3.7290918 3.9243457 -2.36401367 3.89672852 C-1.48229492 3.87352539 -0.60057617 3.85032227 0.30786133 3.82641602 C2.99957213 4.0303335 4.58503606 4.6562113 6.88598633 6.02172852 C6.55598633 6.68172852 6.22598633 7.34172852 5.88598633 8.02172852 C1.26598633 7.03172852 -3.35401367 6.04172852 -8.11401367 5.02172852 C-8.11401367 3.70172852 -8.11401367 2.38172852 -8.11401367 1.02172852 C-5.0749458 0.00870589 -3.17022514 -0.06908481 0 0 Z " fill="#786138" transform="translate(263.114013671875,184.978271484375)"/>
<path d="M0 0 C0 0.66 0 1.32 0 2 C-1.02738281 2.10957031 -2.05476563 2.21914063 -3.11328125 2.33203125 C-10.5612022 3.17068805 -17.60757938 4.16645846 -24.765625 6.51171875 C-27.22514823 7.04920197 -28.64177354 6.80590767 -31 6 C-30.34 6 -29.68 6 -29 6 C-29 5.34 -29 4.68 -29 4 C-29.66 3.67 -30.32 3.34 -31 3 C-28.83125748 3.50603992 -27.00032373 3.99983813 -25 5 C-24.67 4.01 -24.34 3.02 -24 2 C-20.04 2 -16.08 2 -12 2 C-12 1.34 -12 0.68 -12 0 C-13.11375 0.165 -14.2275 0.33 -15.375 0.5 C-20.25510338 1.12094505 -25.08861948 1.09057874 -30 1 C-30 0.67 -30 0.34 -30 0 C-20.08211317 -1.61924683 -9.91325492 -1.60755485 0 0 Z " fill="#68552D" transform="translate(332,260)"/>
<path d="M0 0 C1.32 0.33 2.64 0.66 4 1 C3.814375 2.11375 3.62875 3.2275 3.4375 4.375 C2.68319343 7.82568861 2.68319343 7.82568861 4 10 C3.67 10.99 3.34 11.98 3 13 C-0.93774177 13.36630156 -2.56539771 13.30233203 -5.875 11 C-6.57625 10.34 -7.2775 9.68 -8 9 C-7.01 8.34 -6.02 7.68 -5 7 C-4.27034634 4.43717258 -4.27034634 4.43717258 -4 2 C-2.68 2 -1.36 2 0 2 C0 1.34 0 0.68 0 0 Z " fill="#DFB659" transform="translate(206,187)"/>
<path d="M0 0 C-0.99 0.99 -1.98 1.98 -3 3 C-2.67 3.66 -2.34 4.32 -2 5 C-3.375 7.0625 -3.375 7.0625 -6 9 C-9.40060685 9.05863115 -12.65559323 8.58718592 -16 8 C-16.33 6.68 -16.66 5.36 -17 4 C-2.89108911 -1.44554455 -2.89108911 -1.44554455 0 0 Z " fill="#F4E8B3" transform="translate(204,277)"/>
<path d="M0 0 C0.66 0.33 1.32 0.66 2 1 C-0.43210846 9.02595791 -5.9098674 13.277398 -12.9375 17.375 C-13.52241211 17.72087158 -14.10732422 18.06674316 -14.70996094 18.4230957 C-18.8920469 20.74744649 -22.31981606 21.58159275 -27 22 C-23.24376611 17.9847155 -20.32672936 17.00775961 -15 16 C-15 15.34 -15 14.68 -15 14 C-14.01 14 -13.02 14 -12 14 C-12 13.34 -12 12.68 -12 12 C-9.69 11.01 -7.38 10.02 -5 9 C-5 8.01 -5 7.02 -5 6 C-4.01 6 -3.02 6 -2 6 C-2 4.35 -2 2.7 -2 1 C-1.34 0.67 -0.68 0.34 0 0 Z " fill="#907331" transform="translate(231,233)"/>
<path d="M0 0 C0.33 0 0.66 0 1 0 C1.80037313 42.02985075 1.80037313 42.02985075 -8 57 C-9.33332095 54.3333581 -8.67102033 52.83319697 -8 50 C-7.34 50 -6.68 50 -6 50 C-6 49.01 -6 48.02 -6 47 C-5.34 47 -4.68 47 -4 47 C-3.86722656 45.73542969 -3.73445313 44.47085938 -3.59765625 43.16796875 C-3.41944537 41.50779375 -3.24105037 39.84763852 -3.0625 38.1875 C-2.97548828 37.35412109 -2.88847656 36.52074219 -2.79882812 35.66210938 C-2.71181641 34.85966797 -2.62480469 34.05722656 -2.53515625 33.23046875 C-2.456604 32.49207764 -2.37805176 31.75368652 -2.29711914 30.99291992 C-2 29 -2 29 -1 26 C-0.85013589 24.0093556 -0.75171962 22.01464609 -0.68359375 20.01953125 C-0.64169922 18.85615234 -0.59980469 17.69277344 -0.55664062 16.49414062 C-0.51732422 15.27919922 -0.47800781 14.06425781 -0.4375 12.8125 C-0.39431641 11.58595703 -0.35113281 10.35941406 -0.30664062 9.09570312 C-0.2004691 6.06391619 -0.09842048 3.03204685 0 0 Z " fill="#6D5525" transform="translate(296,270)"/>
<path d="M0 0 C0 0.66 0 1.32 0 2 C-0.66 2 -1.32 2 -2 2 C-1.34 2.66 -0.68 3.32 0 4 C1.40553682 10.17786338 1.12602315 16.76393564 1.0625 23.0625 C1.05798828 23.92810547 1.05347656 24.79371094 1.04882812 25.68554688 C1.03719913 27.79039539 1.01927073 29.89520758 1 32 C0.67 32 0.34 32 0 32 C-0.06058594 30.86820312 -0.12117188 29.73640625 -0.18359375 28.5703125 C-0.26799917 27.08852855 -0.35264717 25.6067584 -0.4375 24.125 C-0.47681641 23.37863281 -0.51613281 22.63226563 -0.55664062 21.86328125 C-0.71573624 17.80013136 -0.71573624 17.80013136 -2 14 C-2.0396713 12.33380554 -2.04384447 10.66608987 -2 9 C-2.66 8.67 -3.32 8.34 -4 8 C-4 7.01 -4 6.02 -4 5 C-4.99 4.67 -5.98 4.34 -7 4 C-7 3.34 -7 2.68 -7 2 C-8.98 2.33 -10.96 2.66 -13 3 C-8.48332093 -0.01111938 -5.3360009 -0.10067926 0 0 Z " fill="#CBA44C" transform="translate(295,264)"/>
<path d="M0 0 C4.87925914 0.61274417 9.16865783 2.07364522 13.6875 3.9375 C14.35072266 4.20240234 15.01394531 4.46730469 15.69726562 4.74023438 C18.69707031 5.95767777 21.29630994 7.19753996 24 9 C22.68 9.33 21.36 9.66 20 10 C20 9.34 20 8.68 20 8 C19.34 8.66 18.68 9.32 18 10 C18.33 10.66 18.66 11.32 19 12 C14.60616294 10.40376856 10.71004193 8.21975667 6.6875 5.875 C6.04232422 5.50246094 5.39714844 5.12992187 4.73242188 4.74609375 C3.15324055 3.83367787 1.57638136 2.91724491 0 2 C0 1.34 0 0.68 0 0 Z " fill="#9B8961" transform="translate(115,263)"/>
<path d="M0 0 C5.28 0 10.56 0 16 0 C16.66 1.32 17.32 2.64 18 4 C17 5 17 5 13.40234375 5.09765625 C11.91403133 5.0909822 10.42573568 5.07902183 8.9375 5.0625 C8.17888672 5.05798828 7.42027344 5.05347656 6.63867188 5.04882812 C4.75908129 5.0370068 2.87953101 5.01907078 1 5 C1 4.34 1 3.68 1 3 C1.66 2.67 2.32 2.34 3 2 C2.01 1.34 1.02 0.68 0 0 Z " fill="#CE9D32" transform="translate(337,235)"/>
<path d="M0 0 C5.52662107 4.63041225 7.60499318 9.60554916 8.25 16.78125 C8.36992231 22.23771505 7.82711803 26.86123055 6 32 C5.0415664 29.12469919 4.93343613 27.70950069 5.12109375 24.76953125 C5.16943359 23.96708984 5.21777344 23.16464844 5.26757812 22.33789062 C5.32365234 21.50451172 5.37972656 20.67113281 5.4375 19.8125 C5.51581055 18.5450293 5.51581055 18.5450293 5.59570312 17.25195312 C5.72523689 15.16763701 5.86193177 13.08376818 6 11 C5.01 11.33 4.02 11.66 3 12 C2.49166409 10.75336669 1.99368855 9.50250613 1.5 8.25 C1.2215625 7.55390625 0.943125 6.8578125 0.65625 6.140625 C0 4 0 4 0 0 Z " fill="#765F30" transform="translate(230,197)"/>
<path d="M0 0 C-0.33 1.32 -0.66 2.64 -1 4 C-1.763125 4.12375 -2.52625 4.2475 -3.3125 4.375 C-6.20267136 4.88102792 -6.20267136 4.88102792 -9 7 C-12.5625 7.3125 -12.5625 7.3125 -16 7 C-16.66 6.01 -17.32 5.02 -18 4 C-17.195625 3.690625 -16.39125 3.38125 -15.5625 3.0625 C-13.10919595 2.23664655 -13.10919595 2.23664655 -12 1 C-10.36530922 0.57907433 -8.71653706 0.21197742 -7.0625 -0.125 C-6.16660156 -0.31320312 -5.27070313 -0.50140625 -4.34765625 -0.6953125 C-2 -1 -2 -1 0 0 Z " fill="#EFE6B2" transform="translate(233,293)"/>
<path d="M0 0 C1.32 0.33 2.64 0.66 4 1 C0.59348736 3.27100843 -2.81434699 4.32631727 -6.6875 5.5 C-7.37005859 5.71269531 -8.05261719 5.92539062 -8.75585938 6.14453125 C-10.83177841 6.78357715 -12.91326453 7.39726252 -15 8 C-16.07048584 8.31517578 -16.07048584 8.31517578 -17.16259766 8.63671875 C-20.8592825 9.65791188 -23.34287763 10.13599711 -27 9 C-26.44570312 8.79503906 -25.89140625 8.59007812 -25.3203125 8.37890625 C-24.59585938 8.10949219 -23.87140625 7.84007812 -23.125 7.5625 C-22.40570313 7.29566406 -21.68640625 7.02882813 -20.9453125 6.75390625 C-18.96351155 6.02083146 -18.96351155 6.02083146 -17 5 C-16.67 4.01 -16.34 3.02 -16 2 C-12.535 3.485 -12.535 3.485 -9 5 C-9 4.34 -9 3.68 -9 3 C-4.545 2.505 -4.545 2.505 0 2 C0 1.34 0 0.68 0 0 Z " fill="#A79968" transform="translate(230,276)"/>
<path d="M0 0 C4.72039536 -0.23026319 8.5330667 0.45375386 13 2 C15 4 15 4 16 6 C11.04653013 7.59789351 6.86717585 6.28306814 2 5 C2 4.34 2 3.68 2 3 C1.01 2.67 0.02 2.34 -1 2 C-0.67 1.34 -0.34 0.68 0 0 Z " fill="#BD9845" transform="translate(362,238)"/>
<path d="M0 0 C0.763125 0.33 1.52625 0.66 2.3125 1 C-2.58818963 2.63356321 -7.54488476 2.05529694 -12.6875 2 C-13.3475 5.96 -14.0075 9.92 -14.6875 14 C-15.0175 14 -15.3475 14 -15.6875 14 C-15.8828125 11.94921875 -16.078125 9.8984375 -16.2734375 7.84765625 C-16.47839844 6.93306641 -16.47839844 6.93306641 -16.6875 6 C-17.3475 5.67 -18.0075 5.34 -18.6875 5 C-18.6875 3.68 -18.6875 2.36 -18.6875 1 C-13.00211616 -2.36318481 -6.1839199 -1.67699523 0 0 Z " fill="#947B44" transform="translate(194.6875,194)"/>
<path d="M0 0 C1.4540625 0.0309375 1.4540625 0.0309375 2.9375 0.0625 C2.6075 1.0525 2.2775 2.0425 1.9375 3.0625 C3.2575 3.7225 4.5775 4.3825 5.9375 5.0625 C-0.75925136 6.09276944 -7.2939676 6.16402799 -14.0625 6.0625 C-13.7325 5.0725 -13.4025 4.0825 -13.0625 3.0625 C-11.03125 2.3671875 -11.03125 2.3671875 -8.5625 1.9375 C-5.31702446 1.35208194 -3.1715148 0.06472479 0 0 Z " fill="#EFE0AE" transform="translate(157.0625,303.9375)"/>
<path d="M0 0 C-1.22783203 0.67289062 -1.22783203 0.67289062 -2.48046875 1.359375 C-5.77930704 4.81676211 -5.5231842 6.83898191 -5.43945312 11.4609375 C-5.37661133 12.84152344 -5.37661133 12.84152344 -5.3125 14.25 C-5.28994141 15.18585938 -5.26738281 16.12171875 -5.24414062 17.0859375 C-5.18530595 19.39225674 -5.10317146 21.69530838 -5 24 C-5.33 24 -5.66 24 -6 24 C-6.33 18.39 -6.66 12.78 -7 7 C-7.33 7.99 -7.66 8.98 -8 10 C-11.37462715 9.45276317 -13.08235 8.9451 -16 7 C-14.88625 6.7525 -13.7725 6.505 -12.625 6.25 C-8.95175786 5.43232951 -8.95175786 5.43232951 -7.875 3 C-7.58625 2.34 -7.2975 1.68 -7 1 C-2.6097561 -1.30487805 -2.6097561 -1.30487805 0 0 Z " fill="#EAC36C" transform="translate(281,270)"/>
<path d="M0 0 C1.98 0 3.96 0 6 0 C5 2 5 2 3.16162109 2.74609375 C2.37352051 2.97425781 1.58541992 3.20242187 0.7734375 3.4375 C-0.52787109 3.82035156 -0.52787109 3.82035156 -1.85546875 4.2109375 C-2.76941406 4.47132813 -3.68335938 4.73171875 -4.625 5 C-5.51574219 5.26039063 -6.40648437 5.52078125 -7.32421875 5.7890625 C-9.88047219 6.53447956 -12.43950301 7.26930908 -15 8 C-15.72928711 8.20882812 -16.45857422 8.41765625 -17.20996094 8.6328125 C-18.80633563 9.08960889 -20.40311332 9.54499667 -22 10 C-21.67 9.01 -21.34 8.02 -21 7 C-20.01 7 -19.02 7 -18 7 C-18 6.34 -18 5.68 -18 5 C-11.79485526 2.86380263 -6.57315478 1.63482473 0 2 C0 1.34 0 0.68 0 0 Z " fill="#A38951" transform="translate(309,244)"/>
<path d="M0 0 C-0.99 0.33 -1.98 0.66 -3 1 C-4.22520264 4.00847418 -4.22520264 4.00847418 -5 7 C-3.68 7.33 -2.36 7.66 -1 8 C-1.33 8.66 -1.66 9.32 -2 10 C-2.99 9.67 -3.98 9.34 -5 9 C-5 9.66 -5 10.32 -5 11 C-7.97 10.505 -7.97 10.505 -11 10 C-11 8.35 -11 6.7 -11 5 C-10.01 4.67 -9.02 4.34 -8 4 C-8 3.01 -8 2.02 -8 1 C-4.93251126 -0.86240388 -3.40254489 -1.2151946 0 0 Z " fill="#E0C06C" transform="translate(235,267)"/>
<path d="M0 0 C0.33 0 0.66 0 1 0 C2.30677587 10.35368578 2.30677587 10.35368578 1 15 C1 15.66 1 16.32 1 17 C-1 18.625 -1 18.625 -3 20 C-3.19595216 6.54461822 -3.19595216 6.54461822 -2 2 C-1.34 1.34 -0.68 0.68 0 0 Z " fill="#E1BE74" transform="translate(274,307)"/>
<path d="M0 0 C1.22589844 0.01353516 1.22589844 0.01353516 2.4765625 0.02734375 C3.41628906 0.04474609 3.41628906 0.04474609 4.375 0.0625 C4.375 0.7225 4.375 1.3825 4.375 2.0625 C10.645 2.3925 16.915 2.7225 23.375 3.0625 C23.375 3.3925 23.375 3.7225 23.375 4.0625 C19.41704914 4.25875099 15.45863065 4.44301982 11.5 4.625 C9.80810547 4.70911133 9.80810547 4.70911133 8.08203125 4.79492188 C7.00566406 4.84326172 5.92929688 4.89160156 4.8203125 4.94140625 C3.32781982 5.01210327 3.32781982 5.01210327 1.80517578 5.08422852 C-0.625 5.0625 -0.625 5.0625 -2.625 4.0625 C-3.95360925 3.71080932 -5.28658328 3.37479724 -6.625 3.0625 C-6.625 2.4025 -6.625 1.7425 -6.625 1.0625 C-4.21954362 -0.14022819 -2.67503047 -0.03821472 0 0 Z " fill="#5D4E3B" transform="translate(195.625,297.9375)"/>
<path d="M0 0 C-4.625 3 -4.625 3 -8 3 C-8.165 3.78375 -8.33 4.5675 -8.5 5.375 C-10 8 -10 8 -11.7734375 8.8125 C-15.56883353 9.82836808 -18.19350185 10.17779539 -22 9 C-3.14537445 -1.57268722 -3.14537445 -1.57268722 0 0 Z " fill="#A78C59" transform="translate(282,268)"/>
<path d="M0 0 C1.36067049 0.01005022 2.72134817 0.01917246 4.08203125 0.02734375 C7.38820647 0.0507918 10.6940088 0.08361144 14 0.125 C14 0.455 14 0.785 14 1.125 C13.19892822 1.18034912 12.39785645 1.23569824 11.57250977 1.29272461 C7.90237068 1.5474003 4.23243695 1.80492852 0.5625 2.0625 C-0.69755859 2.14951172 -1.95761719 2.23652344 -3.25585938 2.32617188 C-9.85868356 2.79164512 -16.42829985 3.33124732 -23 4.125 C-23 3.465 -23 2.805 -23 2.125 C-15.37087517 -0.34668075 -7.96011213 -0.10135304 0 0 Z " fill="#795F2D" transform="translate(338,240.875)"/>
<path d="M0 0 C-0.66 0.66 -1.32 1.32 -2 2 C-1.01 3.485 -1.01 3.485 0 5 C-1.65 5.66 -3.3 6.32 -5 7 C-5 9.64 -5 12.28 -5 15 C-5.33 15 -5.66 15 -6 15 C-6.34179688 12.02148438 -6.34179688 12.02148438 -6.68359375 9.04296875 C-6.97170735 6.80603607 -6.97170735 6.80603607 -8 4 C-7.34 4 -6.68 4 -6 4 C-6 3.34 -6 2.68 -6 2 C-7.65 2 -9.3 2 -11 2 C-7.00042393 -0.06874624 -4.43559483 -1.37656391 0 0 Z " fill="#B18C3C" transform="translate(301,262)"/>
<path d="M0 0 C-0.33 0.99 -0.66 1.98 -1 3 C-1.99 3 -2.98 3 -4 3 C-4 3.66 -4 4.32 -4 5 C-10.75 6.125 -10.75 6.125 -13 5 C-13 4.01 -13 3.02 -13 2 C-10.66836622 1.32741333 -8.3347961 0.66152556 -6 0 C-5.236875 -0.226875 -4.47375 -0.45375 -3.6875 -0.6875 C-2 -1 -2 -1 0 0 Z " fill="#D6A336" transform="translate(220,244)"/>
<path d="M0 0 C1.32 0.66 2.64 1.32 4 2 C1.04738074 3.36688747 -1.91290034 4.71629538 -4.875 6.0625 C-5.71675781 6.45244141 -6.55851562 6.84238281 -7.42578125 7.24414062 C-8.63427734 7.79038086 -8.63427734 7.79038086 -9.8671875 8.34765625 C-10.61081543 8.68804932 -11.35444336 9.02844238 -12.12060547 9.37915039 C-14 10 -14 10 -16 9 C-16 8.01 -16 7.02 -16 6 C-14.64455078 5.72736328 -14.64455078 5.72736328 -13.26171875 5.44921875 C-12.08222656 5.19785156 -10.90273437 4.94648438 -9.6875 4.6875 C-7.92986328 4.32205078 -7.92986328 4.32205078 -6.13671875 3.94921875 C-3.11917264 3.03606345 -1.89419215 2.44125126 0 0 Z " fill="#A08951" transform="translate(265,261)"/>
<path d="M0 0 C0.99 0.33 1.98 0.66 3 1 C2.67 1.66 2.34 2.32 2 3 C-4.11111111 5 -4.11111111 5 -7 5 C-7.144375 5.61875 -7.28875 6.2375 -7.4375 6.875 C-8 9 -8 9 -9 11 C-12 10 -12 10 -13 9 C-14.32594105 8.63837971 -15.65938457 8.30271961 -17 8 C-15.5437455 7.32880451 -14.08492133 6.66318193 -12.625 6 C-11.81289062 5.62875 -11.00078125 5.2575 -10.1640625 4.875 C-8 4 -8 4 -6 4 C-6 3.34 -6 2.68 -6 2 C-2.25 0.875 -2.25 0.875 0 2 C0 1.34 0 0.68 0 0 Z " fill="#BB9443" transform="translate(212,242)"/>
<path d="M0 0 C-0.625 2.375 -0.625 2.375 -2 5 C-5.125 6.3125 -5.125 6.3125 -8 7 C-8.66 6.34 -9.32 5.68 -10 5 C-10 3.68 -10 2.36 -10 1 C-6.52674819 -0.1577506 -3.63932552 -0.06866652 0 0 Z " fill="#DEBB5E" transform="translate(186,188)"/>
<path d="M0 0 C4.57617505 -0.46174018 6.6809077 0.78841108 10.3125 3.5 C11.19550781 4.1496875 12.07851563 4.799375 12.98828125 5.46875 C13.65214844 5.9740625 14.31601562 6.479375 15 7 C11.29598746 8.23467085 10.00150816 7.59947981 6.375 6.3125 C5.39273437 5.97863281 4.41046875 5.64476562 3.3984375 5.30078125 C1 4 1 4 0.1640625 1.85546875 C0.10992187 1.24316406 0.05578125 0.63085938 0 0 Z " fill="#74603F" transform="translate(391,248)"/>
<path d="M0 0 C0.89203125 0.01804687 1.7840625 0.03609375 2.703125 0.0546875 C3.71632812 0.08949219 3.71632812 0.08949219 4.75 0.125 C3.76 1.61 3.76 1.61 2.75 3.125 C0.125 3.3125 0.125 3.3125 -2.25 3.125 C-1.92 4.445 -1.59 5.765 -1.25 7.125 C-2.9 7.125 -4.55 7.125 -6.25 7.125 C-6.25 5.805 -6.25 4.485 -6.25 3.125 C-7.24 2.795 -8.23 2.465 -9.25 2.125 C-6.03817851 0.21891902 -3.71117397 -0.09766247 0 0 Z " fill="#F6EEC8" transform="translate(189.25,277.875)"/>
<path d="M0 0 C0.66 0.33 1.32 0.66 2 1 C2.33 1.99 2.66 2.98 3 4 C5.97 4.495 5.97 4.495 9 5 C5.25885967 8.2531655 0.68684862 10.44374911 -4 12 C-4.66 11.67 -5.32 11.34 -6 11 C-4.37633534 7.75267068 -1.24612161 7.29844864 2 6 C0.68 4.35 -0.64 2.7 -2 1 C-1.34 0.67 -0.68 0.34 0 0 Z " fill="#A2874E" transform="translate(250,282)"/>
<path d="M0 0 C0.66 0.33 1.32 0.66 2 1 C1.50628906 1.32613281 1.01257813 1.65226562 0.50390625 1.98828125 C-0.13675781 2.42527344 -0.77742187 2.86226563 -1.4375 3.3125 C-2.07558594 3.74175781 -2.71367187 4.17101562 -3.37109375 4.61328125 C-5.2885684 6.0034052 -5.2885684 6.0034052 -6 9 C-8.64 8.34 -11.28 7.68 -14 7 C-11.54074507 4.54074507 -9.20353073 3.65628873 -6 2.3125 C-4.9275 1.85488281 -3.855 1.39726562 -2.75 0.92578125 C-1.8425 0.62027344 -0.935 0.31476563 0 0 Z " fill="#A1864C" transform="translate(245,259)"/>
<path d="M0 0 C1.46015291 0.28241641 2.91809793 0.57626614 4.375 0.875 C5.18710937 1.03742188 5.99921875 1.19984375 6.8359375 1.3671875 C9 2 9 2 11 4 C9.35 4.66 7.7 5.32 6 6 C6.66 6.66 7.32 7.32 8 8 C6.56163249 7.88541307 5.12429034 7.75790884 3.6875 7.625 C2.88699219 7.55539063 2.08648437 7.48578125 1.26171875 7.4140625 C-1 7 -1 7 -4 5 C-1.03 5 1.94 5 5 5 C4.01 4.34 3.02 3.68 2 3 C2 2.34 2 1.68 2 1 C1.34 0.67 0.68 0.34 0 0 Z " fill="#745C2A" transform="translate(373,239)"/>
<path d="M0 0 C0.78375 0.04125 1.5675 0.0825 2.375 0.125 C2.705 1.445 3.035 2.765 3.375 4.125 C5.685 4.125 7.995 4.125 10.375 4.125 C10.375 4.455 10.375 4.785 10.375 5.125 C5.755 5.125 1.135 5.125 -3.625 5.125 C-3.955 4.135 -4.285 3.145 -4.625 2.125 C-2.625 0.125 -2.625 0.125 0 0 Z " fill="#9D8A56" transform="translate(190.625,250.875)"/>
<path d="M0 0 C1.11375 0.3403125 1.11375 0.3403125 2.25 0.6875 C2.58 1.6775 2.91 2.6675 3.25 3.6875 C0.4375 5.25 0.4375 5.25 -2.75 6.6875 C-3.74 6.3575 -4.73 6.0275 -5.75 5.6875 C-6.08 4.6975 -6.41 3.7075 -6.75 2.6875 C-4.29511132 0.41445492 -3.41240272 -0.38777304 0 0 Z " fill="#927D4B" transform="translate(253.75,348.3125)"/>
<path d="M0 0 C0.33 0.99 0.66 1.98 1 3 C-0.98 3 -2.96 3 -5 3 C-5 3.66 -5 4.32 -5 5 C-7 6.625 -7 6.625 -9 8 C-9.33 6.68 -9.66 5.36 -10 4 C-9.34 3.67 -8.68 3.34 -8 3 C-10.97 2.505 -10.97 2.505 -14 2 C-14 1.67 -14 1.34 -14 1 C-4.58997722 -0.14806378 -4.58997722 -0.14806378 0 0 Z " fill="#C5A760" transform="translate(306,187)"/>
<path d="M0 0 C0.99 0.33 1.98 0.66 3 1 C1.85485202 6.41342681 0.65987191 8.9342948 -4 12 C-4 10.68 -4 9.36 -4 8 C-3.34 8 -2.68 8 -2 8 C-1.855625 6.865625 -1.71125 5.73125 -1.5625 4.5625 C-1 1 -1 1 0 0 Z " fill="#AE904E" transform="translate(285,322)"/>
<path d="M0 0 C0.33 0 0.66 0 1 0 C1.22084624 6.09781001 1.01167675 11.21642935 -1 17 C-1.66 17 -2.32 17 -3 17 C-3.33 17.99 -3.66 18.98 -4 20 C-4.33 19.01 -4.66 18.02 -5 17 C-4.566875 16.175 -4.13375 15.35 -3.6875 14.5 C-1.42704223 9.81164314 -0.77363654 5.11510279 0 0 Z " fill="#D4A94E" transform="translate(293,300)"/>
<path d="M0 0 C-0.2547514 1.31571603 -0.52934141 2.62760376 -0.8125 3.9375 C-0.96332031 4.66839844 -1.11414063 5.39929688 -1.26953125 6.15234375 C-1.51058594 6.76207031 -1.75164062 7.37179687 -2 8 C-2.99 8.33 -3.98 8.66 -5 9 C-5 7.68 -5 6.36 -5 5 C-5.99 4.67 -6.98 4.34 -8 4 C-5.52914451 0.29371676 -4.37054922 0 0 0 Z " fill="#EBD590" transform="translate(215,273)"/>
<path d="M0 0 C0.66 0.33 1.32 0.66 2 1 C0.52848475 5.85600034 -2.35047748 9.54549014 -6 13 C-6.99 13.33 -7.98 13.66 -9 14 C-9.33 13.01 -9.66 12.02 -10 11 C-8.35 10.34 -6.7 9.68 -5 9 C-5 8.01 -5 7.02 -5 6 C-4.01 6 -3.02 6 -2 6 C-2 4.35 -2 2.7 -2 1 C-1.34 0.67 -0.68 0.34 0 0 Z " fill="#816730" transform="translate(231,233)"/>
<path d="M0 0 C2.03144641 0.93446535 4.03533587 1.93224776 6 3 C6 2.34 6 1.68 6 1 C6.66 1 7.32 1 8 1 C7 4 7 4 5.125 5.1875 C3 6 3 6 0 6 C0 5.34 0 4.68 0 4 C-1.32 4.33 -2.64 4.66 -4 5 C-2.25 1.125 -2.25 1.125 0 0 Z " fill="#AD9657" transform="translate(256,345)"/>
<path d="M0 0 C0 0.66 0 1.32 0 2 C-0.66 2 -1.32 2 -2 2 C-2.66 3.32 -3.32 4.64 -4 6 C-4.99 5.34 -5.98 4.68 -7 4 C-7 3.34 -7 2.68 -7 2 C-8.98 2.33 -10.96 2.66 -13 3 C-8.48332093 -0.01111938 -5.3360009 -0.10067926 0 0 Z " fill="#B89546" transform="translate(295,264)"/>
<path d="M0 0 C4.62 0 9.24 0 14 0 C14 1.32 14 2.64 14 4 C11.04335481 5.4783226 8.25770263 5.06032783 5 5 C5 4.67 5 4.34 5 4 C6.98 4 8.96 4 11 4 C10.67 3.34 10.34 2.68 10 2 C7.64400765 1.53248212 7.64400765 1.53248212 4.9375 1.375 C4.01839844 1.30023438 3.09929687 1.22546875 2.15234375 1.1484375 C1.08693359 1.07496094 1.08693359 1.07496094 0 1 C0 0.67 0 0.34 0 0 Z " fill="#867346" transform="translate(296,186)"/>
<path d="M0 0 C1.6260287 0.06000106 3.25101549 0.1487885 4.875 0.25 C6.23238281 0.31960937 6.23238281 0.31960937 7.6171875 0.390625 C10 1 10 1 11.3203125 3.046875 C11.54460937 3.69140625 11.76890625 4.3359375 12 5 C10.3739713 4.93999894 8.74898451 4.8512115 7.125 4.75 C5.76761719 4.68039063 5.76761719 4.68039063 4.3828125 4.609375 C2 4 2 4 0.6796875 1.953125 C0.45539063 1.30859375 0.23109375 0.6640625 0 0 Z " fill="#A69869" transform="translate(141,187)"/>
<path d="M0 0 C0 3 0 3 -1 4.6875 C-4.21371429 6.7965 -7.21503429 6.18614585 -11 6 C-10.67 5.01 -10.34 4.02 -10 3 C-7.96875 2.3046875 -7.96875 2.3046875 -5.5 1.875 C-2.46069634 1.52112584 -2.46069634 1.52112584 0 0 Z " fill="#C7B793" transform="translate(154,304)"/>
<path d="M0 0 C0.66 0.99 1.32 1.98 2 3 C2.99 3.33 3.98 3.66 5 4 C5 4.66 5 5.32 5 6 C5.99 6.33 6.98 6.66 8 7 C4.52674819 8.1577506 1.63932552 8.06866652 -2 8 C-1.34 7.67 -0.68 7.34 0 7 C-0.33 6.01 -0.66 5.02 -1 4 C-0.5625 1.8125 -0.5625 1.8125 0 0 Z " fill="#F0ECC7" transform="translate(180,301)"/>
<path d="M0 0 C0.66 0.66 1.32 1.32 2 2 C-1.542799 3.180933 -4.28359861 3.27028374 -8 3 C-8.66 2.01 -9.32 1.02 -10 0 C-6.4195345 -1.2393919 -3.65498696 -0.87401862 0 0 Z " fill="#FCF5D0" transform="translate(225,297)"/>
<path d="M0 0 C4.82360189 -0.19294408 8.49646738 0.24252386 13 2 C12.34 2.66 11.68 3.32 11 4 C11.33 4.66 11.66 5.32 12 6 C11.34 6.66 10.68 7.32 10 8 C10 7.34 10 6.68 10 6 C9.34 6 8.68 6 8 6 C7.566875 5.360625 7.13375 4.72125 6.6875 4.0625 C4.59150148 1.50072404 3.21700528 1.34778436 0 1 C0 0.67 0 0.34 0 0 Z " fill="#DBC99B" transform="translate(145,187)"/>
<path d="M0 0 C1.66666667 0.33333333 3.33333333 0.66666667 5 1 C5.33 0.67 5.66 0.34 6 0 C7.66617115 -0.04063832 9.33388095 -0.042721 11 0 C10.67 1.32 10.34 2.64 10 4 C2.49230769 4.36923077 2.49230769 4.36923077 0 2.5 C-0.33 2.005 -0.66 1.51 -1 1 C-0.67 0.67 -0.34 0.34 0 0 Z " fill="#E9D6A1" transform="translate(144,276)"/>
<path d="M0 0 C1.32 0.33 2.64 0.66 4 1 C1.58592302 2.60938465 -0.34044437 3.65490738 -3 4.6875 C-3.680625 4.95949219 -4.36125 5.23148437 -5.0625 5.51171875 C-7 6 -7 6 -10 5 C-9.67 4.34 -9.34 3.68 -9 3 C-6.93359375 2.5859375 -6.93359375 2.5859375 -4.4375 2.375 C-3.61121094 2.30023438 -2.78492188 2.22546875 -1.93359375 2.1484375 C-0.97646484 2.07496094 -0.97646484 2.07496094 0 2 C0 1.34 0 0.68 0 0 Z " fill="#968354" transform="translate(230,276)"/>
<path d="M0 0 C-0.66 0.66 -1.32 1.32 -2 2 C-1.67 2.66 -1.34 3.32 -1 4 C-3.31 4 -5.62 4 -8 4 C-8.33 2.68 -8.66 1.36 -9 0 C-3.375 -1.125 -3.375 -1.125 0 0 Z " fill="#E5C57E" transform="translate(202,251)"/>
<path d="M0 0 C0.66 0.33 1.32 0.66 2 1 C1 3 1 3 -2.0625 4.125 C-3.5165625 4.558125 -3.5165625 4.558125 -5 5 C-5 5.66 -5 6.32 -5 7 C-7.97 6.505 -7.97 6.505 -11 6 C-8.66460191 4.44306794 -6.42031244 3.09799354 -3.9375 1.8125 C-2.89916016 1.26529297 -2.89916016 1.26529297 -1.83984375 0.70703125 C-1.23269531 0.47371094 -0.62554687 0.24039062 0 0 Z " fill="#A5915E" transform="translate(246,284)"/>
<path d="M0 0 C-6.68688919 2.85888741 -11.85234068 3.23852969 -19 2 C-19 1.67 -19 1.34 -19 1 C-16.58440932 0.63645961 -14.16805703 0.28389449 -11.75 -0.0625 C-11.06808594 -0.16626953 -10.38617188 -0.27003906 -9.68359375 -0.37695312 C-6.2150075 -0.86524925 -3.33088887 -1.22762141 0 0 Z " fill="#8B856B" transform="translate(204,276)"/>
<path d="M0 0 C1.84765625 0.33984375 1.84765625 0.33984375 4.0625 0.9375 C5.16271484 1.22947266 5.16271484 1.22947266 6.28515625 1.52734375 C7.13400391 1.76130859 7.13400391 1.76130859 8 2 C7.67 2.99 7.34 3.98 7 5 C4.6875 5.25 4.6875 5.25 2 5 C0.1875 3 0.1875 3 -1 1 C-0.67 0.67 -0.34 0.34 0 0 Z " fill="#DBC595" transform="translate(133,271)"/>
<path d="M0 0 C5.19822672 1.36144033 8.09543873 3.46730171 12 7 C11.01 7.33 10.02 7.66 9 8 C6.3125 6.1875 6.3125 6.1875 4 4 C4 3.34 4 2.68 4 2 C3.01 2.33 2.02 2.66 1 3 C0.67 2.01 0.34 1.02 0 0 Z " fill="#86692D" transform="translate(218,189)"/>
<path d="M0 0 C2.31 0 4.62 0 7 0 C4.3139714 1.79068573 2.3373411 2.66055791 -0.6875 3.625 C-1.89986328 4.01558594 -1.89986328 4.01558594 -3.13671875 4.4140625 C-3.75160156 4.60742188 -4.36648438 4.80078125 -5 5 C-5.33 4.01 -5.66 3.02 -6 2 C-4.02 1.67 -2.04 1.34 0 1 C0 0.67 0 0.34 0 0 Z " fill="#AD9158" transform="translate(280,254)"/>
<path d="M0 0 C3.125 0.3125 3.125 0.3125 5 2.3125 C5.556875 3.3025 5.556875 3.3025 6.125 4.3125 C-0.39807692 4.68173077 -0.39807692 4.68173077 -2.8125 2.8125 C-3.3384375 2.07 -3.3384375 2.07 -3.875 1.3125 C-2.875 0.3125 -2.875 0.3125 0 0 Z " fill="#CA9A35" transform="translate(364.875,237.6875)"/>
<path d="M0 0 C1.65 0.33 3.3 0.66 5 1 C5.33 2.32 5.66 3.64 6 5 C3.125 5.125 3.125 5.125 0 5 C-0.66 4.34 -1.32 3.68 -2 3 C-1.34 3 -0.68 3 0 3 C0 2.01 0 1.02 0 0 Z " fill="#E2BD67" transform="translate(267,337)"/>
<path d="M0 0 C1.65 0.33 3.3 0.66 5 1 C5 1.66 5 2.32 5 3 C-2.42857143 5.42857143 -2.42857143 5.42857143 -6 4 C-5.34 4 -4.68 4 -4 4 C-4 3.34 -4 2.68 -4 2 C-4.66 1.67 -5.32 1.34 -6 1 C-3.83125748 1.50603992 -2.00032373 1.99983813 0 3 C0 2.01 0 1.02 0 0 Z " fill="#846727" transform="translate(307,262)"/>
<path d="M0 0 C2.97 0 5.94 0 9 0 C9 0.99 9 1.98 9 3 C7.68 2.67 6.36 2.34 5 2 C5 2.66 5 3.32 5 4 C2.03 3.505 2.03 3.505 -1 3 C-0.67 2.01 -0.34 1.02 0 0 Z " fill="#C69D3D" transform="translate(298,262)"/>
<path d="M0 0 C1.32 0 2.64 0 4 0 C3.875 1.75 3.875 1.75 3 4 C-0.0625 6.25 -0.0625 6.25 -3 8 C-2.37240135 5.07120629 -1.41377341 2.63904371 0 0 Z " fill="#BB9D60" transform="translate(276,333)"/>
<path d="M0 0 C2.22984785 1.76529621 2.93915901 2.65233722 3.4375 5.5 C3 8 3 8 1 9.8125 C0.34 10.204375 -0.32 10.59625 -1 11 C-1.125 3.375 -1.125 3.375 0 0 Z " fill="#EDCB7B" transform="translate(272,316)"/>
<path d="M0 0 C1.65 0.33 3.3 0.66 5 1 C5 1.66 5 2.32 5 3 C5.66 3 6.32 3 7 3 C7 3.66 7 4.32 7 5 C2.545 4.01 2.545 4.01 -2 3 C-1.34 2.01 -0.68 1.02 0 0 Z " fill="#C0974C" transform="translate(380,243)"/>
<path d="M0 0 C0.99 0.495 0.99 0.495 2 1 C1.01 1.495 1.01 1.495 0 2 C0 1.34 0 0.68 0 0 Z M-1 2 C0 4 1 6 2 8 C1.67 8.99 1.34 9.98 1 11 C-0.32 10.34 -1.64 9.68 -3 9 C-2.34 6.69 -1.68 4.38 -1 2 Z " fill="#DDAE47" transform="translate(208,189)"/>
<path d="M0 0 C2 2 2 2 2.25 5.875 C2.18064077 9.05396475 1.80254921 11.29617618 0 14 C-0.66 13.67 -1.32 13.34 -2 13 C-1.67 11.35 -1.34 9.7 -1 8 C-0.34 8 0.32 8 1 8 C0.67 5.36 0.34 2.72 0 0 Z " fill="#F9F6CC" transform="translate(178,290)"/>
<path d="M0 0 C-2.2551922 2.2551922 -4.0047587 2.97723468 -7 4 C-7.99 4 -8.98 4 -10 4 C-10 3.01 -10 2.02 -10 1 C-6.78548731 -0.60725635 -3.56387464 -0.05748185 0 0 Z " fill="#9D834D" transform="translate(244,273)"/>
<path d="M0 0 C0.33 0 0.66 0 1 0 C1.33 5.28 1.66 10.56 2 16 C1.01 15.67 0.02 15.34 -1 15 C-0.67 10.05 -0.34 5.1 0 0 Z " fill="#948E6C" transform="translate(156,289)"/>
<path d="M0 0 C-1.32 0.33 -2.64 0.66 -4 1 C-4 1.99 -4 2.98 -4 4 C-6.97 4 -9.94 4 -13 4 C-10.56272708 2.37515139 -8.62713877 1.34310925 -5.9375 0.3125 C-5.24527344 0.04050781 -4.55304688 -0.23148437 -3.83984375 -0.51171875 C-2 -1 -2 -1 0 0 Z " fill="#92814E" transform="translate(231,267)"/>
<path d="M0 0 C4.571279 0.54855348 8.67435795 1.41744803 13 3 C11.02 3.99 11.02 3.99 9 5 C8.67 4.34 8.34 3.68 8 3 C6.02 3 4.04 3 2 3 C2 2.34 2 1.68 2 1 C1.34 0.67 0.68 0.34 0 0 Z " fill="#6D572A" transform="translate(360,235)"/>
<path d="M0 0 C3.3 0.33 6.6 0.66 10 1 C6.66666667 2.66666667 3.33333333 4.33333333 0 6 C0.66 4.35 1.32 2.7 2 1 C1.34 0.67 0.68 0.34 0 0 Z " fill="#997C35" transform="translate(208,187)"/>
<path d="M0 0 C4.21912747 0.4794463 6.79663178 1.16625119 10 4 C8.375 4.6875 8.375 4.6875 6 5 C2.75 3.5625 2.75 3.5625 0 2 C0 1.34 0 0.68 0 0 Z " fill="#645D42" transform="translate(115,263)"/>
<path d="M0 0 C-0.66 1.65 -1.32 3.3 -2 5 C-5 4 -5 4 -6 3 C-7.32594105 2.63837971 -8.65938457 2.30271961 -10 2 C-6.38026598 0.68373308 -3.90432869 0 0 0 Z " fill="#B29853" transform="translate(205,248)"/>
<path d="M0 0 C0.66 0 1.32 0 2 0 C2.66 2.97 3.32 5.94 4 9 C3.67 8.34 3.34 7.68 3 7 C2.01 6.67 1.02 6.34 0 6 C-0.75 4.0625 -0.75 4.0625 -1 2 C-0.67 1.34 -0.34 0.68 0 0 Z " fill="#A1833C" transform="translate(210,202)"/>
<path d="M0 0 C0 0.66 0 1.32 0 2 C0.66 2.33 1.32 2.66 2 3 C-4.625 2.25 -4.625 2.25 -8 0 C-5.13822943 -1.43088528 -3.06624227 -0.59991697 0 0 Z " fill="#A59572" transform="translate(154,280)"/>
<path d="M0 0 C2.875 -0.125 2.875 -0.125 6 0 C6.66 0.66 7.32 1.32 8 2 C7.01 2 6.02 2 5 2 C5 2.66 5 3.32 5 4 C2.525 3.01 2.525 3.01 0 2 C0 1.34 0 0.68 0 0 Z " fill="#8A7C54" transform="translate(122,267)"/>
<path d="M0 0 C0.93423645 3.01031744 1.04449911 3.86650268 0 7 C-0.99 6.34 -1.98 5.68 -3 5 C-3 3.68 -3 2.36 -3 1 C-2.01 0.67 -1.02 0.34 0 0 Z " fill="#E4BE66" transform="translate(179,188)"/>
<path d="M0 0 C-1.5625 1.5625 -1.5625 1.5625 -4 3 C-7.75 2.6875 -7.75 2.6875 -11 2 C-7.00042393 -0.06874624 -4.43559483 -1.37656391 0 0 Z " fill="#7D632D" transform="translate(301,262)"/>
<path d="M0 0 C1.65 0.33 3.3 0.66 5 1 C4.67 1.66 4.34 2.32 4 3 C1.125 3.75 1.125 3.75 -2 4 C-2.99 3.34 -3.98 2.68 -5 2 C-3.35 2 -1.7 2 0 2 C0 1.34 0 0.68 0 0 Z " fill="#D6B465" transform="translate(203,251)"/>
<path d="M0 0 C0.99 0 1.98 0 3 0 C3.33 1.65 3.66 3.3 4 5 C1.525 4.01 1.525 4.01 -1 3 C-0.67 2.01 -0.34 1.02 0 0 Z " fill="#D2B46C" transform="translate(258,343)"/>
<path d="M0 0 C2.31 0 4.62 0 7 0 C6.67 0.99 6.34 1.98 6 3 C3.69 2.67 1.38 2.34 -1 2 C-0.67 1.34 -0.34 0.68 0 0 Z " fill="#D5D4BB" transform="translate(221,294)"/>
<path d="M0 0 C0.99 0.33 1.98 0.66 3 1 C2.34 3.31 1.68 5.62 1 8 C0.67 8 0.34 8 0 8 C-0.38063221 5.6739143 -0.71269945 3.33944736 -1 1 C-0.67 0.67 -0.34 0.34 0 0 Z " fill="#BB9B4F" transform="translate(285,322)"/>
<path d="M0 0 C0.66 2.31 1.32 4.62 2 7 C-0.49361571 5.79618552 -2.68143083 4.54571278 -5 3 C-1.125 0 -1.125 0 0 0 Z " fill="#AC884C" transform="translate(203,193)"/>
<path d="M0 0 C3 1 3 1 3 1 Z " fill="#1F1F0E" transform="translate(192,305)"/>
</svg>
